<?xml version="1.0" encoding="UTF-8"?><svg id="Calque_1" xmlns="http://www.w3.org/2000/svg" viewBox="0 0 400.15 198.71"><defs><style>.cls-1{fill:#5d4495;}.cls-1,.cls-2,.cls-3,.cls-4,.cls-5,.cls-6,.cls-7,.cls-8,.cls-9{stroke-width:0px;}.cls-2{fill:#4d378d;}.cls-3{fill:#271d44;}.cls-4{fill:#51378d;}.cls-5{fill:#7258a2;}.cls-6{fill:#101022;}.cls-7{fill:#d0bfdf;}.cls-8{fill:#e0e0ef;}.cls-9{fill:#fff;}</style></defs><ellipse class="cls-8" cx="100" cy="186.88" rx="76.69" ry="11.83"/><path class="cls-1" d="M77.54,143.78c-.55.17-.77.59-1.06.91-4.4,5.02-9.37,9.38-14.99,12.99-6.2,3.98-12.94,6.58-20.2,7.81-2.94.5-5.91.72-8.89.6-6.62-.26-12.91-1.78-18.76-4.97-1.99-1.08-4.01-2.09-5.75-3.59-3.87-3.33-6.27-7.54-7.35-12.48-1.48-6.77.01-12.84,4.57-18.09,3.27-3.76,7.45-5.66,12.44-5.85,3.53-.14,6.9.38,10,2.16,3.68,2.11,6.24,5.12,7.17,9.32.5,2.23.36,4.45-.78,6.5-1,1.8-2.44,3.08-4.49,3.58-3.65.9-7.21-1.83-7.38-5.58-.1-2.31.86-3.91,2.93-4.89.14-.07.27-.16.43-.26.08-.61-.34-.96-.69-1.32-.78-.79-1.78-1.18-2.84-1.37-2.29-.42-4.45-.01-6.37,1.33-2.3,1.6-3.06,3.93-2.91,6.6.18,3.13,1.53,5.79,3.53,8.13,2.35,2.76,5.29,4.5,8.93,4.99,2.71.37,5.36.09,7.94-.76,6.61-2.18,11.95-6.08,15.75-11.97,1.81-2.81,2.85-5.93,3.23-9.26.35-3.12.72-6.23,1.68-9.24.04-.11.02-.24.04-.47-.33.07-.61.1-.87.18-2.78.9-5.64,1.4-8.56,1.52-11.97.51-22.65-3.01-32-10.42-5.25-4.16-8.74-9.58-10.26-16.16-.97-4.22-1.18-8.47.26-12.64,2.19-6.32,6.46-10.39,13.1-11.8,1.81-.38,3.63-.64,5.48-.57,7.32.27,12.9,4.92,14.61,10.9.84,2.94.85,5.9-.43,8.73-1.27,2.82-3.36,4.83-6.44,5.56-1.71.41-3.41.3-4.96-.66-2.05-1.25-3.09-3.83-2.49-6.14.49-1.88,2.09-3.16,4.11-3.25.58-.03,1.16.07,1.73.11.25.02.51.04.8.06.4-.65.35-1.32.23-1.99-.54-2.92-3.18-5.14-6.26-5.27-2.79-.12-5.04.95-6.73,3.17-2.08,2.74-2.83,5.85-2.46,9.23.77,6.89,5.65,12.92,13.78,14.65,4.91,1.04,9.65.32,14.17-1.81,4.62-2.18,8.27-5.5,11.2-9.64.57-.81.55-.82,0-1.6-4.36-6.13-7.13-12.94-8.65-20.28-1.15-5.52-1.42-11.1-.94-16.7,1.09-12.79,5.9-24.02,14.37-33.66,7.84-8.92,17.52-14.9,28.93-18.13,2.92-.83,5.9-1.36,8.93-1.69,2.48-.26,4.96-.39,7.45-.35,9.3.15,18.09,2.29,26.3,6.73,10.44,5.65,18.55,13.64,24.26,24.05,3.3,6.01,5.48,12.41,6.48,19.19.66,4.46.8,8.95.47,13.45-.62,8.36-3.02,16.17-7.24,23.41-1.01,1.73-2.2,3.35-3.34,5-.28.41-.42.72-.08,1.2,3.03,4.29,6.78,7.7,11.71,9.72,2.98,1.22,6.07,1.83,9.28,1.66,5.7-.3,10.64-2.32,14.38-6.78,2.79-3.33,4.08-7.17,3.67-11.51-.28-2.92-1.48-5.42-3.7-7.36-1.88-1.64-4.07-2.35-6.57-1.78-2.45.56-5.23,3.1-4.76,6.31.06.43.22.85.35,1.34.54-.12.97-.23,1.41-.3,2.59-.43,5.51,1.09,5.29,4.56-.14,2.19-1.67,4.15-3.92,4.79-1.78.51-3.53.29-5.18-.54-3.07-1.54-4.92-4.07-5.59-7.39-.74-3.67.12-7.08,2.2-10.15,2.53-3.73,6.07-6.01,10.53-6.59,6.17-.8,11.71.66,16.15,5.24,2.74,2.82,4.33,6.25,4.82,10.17.67,5.4-.43,10.5-2.85,15.31-3.08,6.14-7.77,10.77-13.7,14.16-5.37,3.06-11.15,4.95-17.27,5.77-5.43.73-10.84.67-16.18-.71-2.17-.56-4.26-1.31-6.2-2.44-.13-.08-.28-.13-.49-.23-.17.77-.04,1.47.06,2.15.75,4.89,2.46,9.44,5.02,13.66,2.79,4.6,6.16,8.72,10.44,12.02,3.19,2.46,6.72,4.24,10.67,5.1,7.49,1.61,13.55-1.4,17.07-7.64,1.15-2.04,1.61-4.28,1.29-6.64-.42-3.11-2.79-5.49-5.93-5.91-2.12-.29-4.05.16-5.78,1.4-.53.38-.98.83-1.31,1.53.29.13.53.26.79.36,2.97,1.13,3.83,4.56,2.01,7.06-1.32,1.81-3.06,2.9-5.34,2.85-2.79-.06-5.28-1.9-6.17-4.55-.95-2.83-.7-5.64.63-8.29,1.99-3.97,5.17-6.68,9.32-8.18,5.19-1.88,10.22-1.26,14.94,1.43,5.42,3.1,8.72,7.87,9.86,13.97.93,4.97.08,9.77-2.24,14.31-2.49,4.88-6.33,8.24-11.2,10.61-4.26,2.07-8.72,3.43-13.4,4.01-3.67.46-7.36.4-11.03-.06-9.37-1.17-17.67-4.93-25.31-10.33-6.87-4.85-12.94-10.54-18.26-17.03-2.19-2.67-4.06-5.6-6.07-8.41-.16-.23-.31-.47-.5-.75-.21.15-.39.23-.51.37-3.11,3.43-6.1,6.96-8.29,11.08-2.08,3.9-3.21,8.05-3.07,12.48.14,4.52,1.4,8.69,4.47,12.13,3.33,3.73,7.57,5.33,12.52,4.9,5.46-.48,10.12-5.35,9.48-11.4-.33-3.15-2.62-5.81-5.61-6.42-1.05-.21-2.06-.11-2.99.46-.66.4-1.13.97-1.37,1.7-.38,1.15-.27,1.39.83,1.93,2.23,1.09,2.75,3.52,1.15,5.42-1.34,1.6-3.54,2.05-5.56,1.14-2.53-1.14-4.01-3.99-3.65-6.79.44-3.46,3.17-7.45,8.11-8.7,4.29-1.09,8.08-.07,11.26,3.01,3.75,3.63,5.36,8.06,4.79,13.27-.58,5.4-2.88,9.9-7.09,13.35-2.76,2.27-5.99,3.52-9.52,4.05-6.07.91-11.7-.6-17.06-3.26-11.17-5.55-17.97-14.6-20.84-26.65-.51-2.13-.68-4.34-1-6.51-.03-.21-.07-.42-.11-.69ZM42.33,59.66c.45-.21.77-.34,1.08-.5,6.58-3.34,13.14-6.7,19.73-10.02,5.52-2.78,11.05-5.54,16.58-8.29,6.98-3.48,13.97-6.93,20.94-10.42,5.99-3,11.97-6.01,17.93-9.05,2.33-1.19,4.62-2.47,6.9-3.76,1.33-.75,2.52-1.71,3.37-3.02,1.21-1.85,1.04-3.41-.5-4.99-1.54-1.58-3.43-2.63-5.42-3.51-5.63-2.48-11.54-3.81-17.66-4.17-2.35-.14-4.71-.33-7.07-.06-2.21.26-4.46.3-6.65.7-8.95,1.61-17.14,5.07-24.57,10.35-5.27,3.74-9.78,8.24-13.62,13.44-2.71,3.66-4.88,7.63-6.74,11.77-1.35,3.01-2.44,6.13-3.14,9.37-.64,2.95-.95,5.94-1.17,8.94-.07,1.02-.01,2.04-.01,3.23ZM56.96,68.19c0,8.17,6.68,15.06,14.64,15.07,8.74.02,15.16-6.95,15.14-14.75-.03-8.97-7.22-15.12-14.89-15.09-8.71.02-14.93,7.29-14.88,14.77ZM129.74,83.13c8.08.1,14.93-6.57,14.89-14.95-.03-8.56-6.92-14.72-14.86-14.73-7.28-.01-14.63,5.97-14.61,14.8.02,9.07,7.3,15.04,14.59,14.88ZM3.43,86.48c.05.28.11.79.23,1.29.09.36.32.66.72.7.46.05.71-.27.86-.65.1-.24.15-.49.2-.75.2-.95.34-1.91.58-2.85.78-3.06,2.06-5.85,4.4-8.06,1.38-1.3,2.88-2.4,4.66-3.08.5-.19.99-.48,1.4-.83.18-.16.26-.61.18-.86-.06-.2-.45-.41-.68-.4-.54.02-1.1.09-1.61.27-7.52,2.56-10.47,9.19-10.93,15.23ZM119.08,21.89c-1.2.01-2.12.91-2.1,2.07.02,1.31,1.01,2.35,2.22,2.35,1.15,0,2.12-1.01,2.11-2.22,0-1.23-1-2.21-2.23-2.2Z"/><path class="cls-5" d="M42.33,59.66c0-1.18-.06-2.21.01-3.23.22-3,.53-5.99,1.17-8.94.7-3.24,1.78-6.35,3.14-9.37,1.86-4.14,4.03-8.11,6.74-11.77,3.84-5.19,8.35-9.69,13.62-13.44,7.42-5.28,15.61-8.74,24.57-10.35,2.19-.39,4.43-.44,6.65-.7,2.36-.27,4.72-.08,7.07.06,6.12.36,12.03,1.69,17.66,4.17,1.99.88,3.88,1.93,5.42,3.51,1.54,1.58,1.7,3.14.5,4.99-.85,1.3-2.03,2.26-3.37,3.02-2.28,1.29-4.57,2.56-6.9,3.76-5.96,3.05-11.94,6.06-17.93,9.05-6.97,3.49-13.96,6.94-20.94,10.42-5.53,2.76-11.06,5.51-16.58,8.29-6.58,3.32-13.15,6.68-19.73,10.02-.31.16-.62.29-1.08.5ZM89.41,17.21l.03.03c-.23-.17-.43-.41-.68-.51-1.51-.57-3.87-.44-5.34,1.02-1.65,1.64-2.11,4.43-.94,6.35,1.3,2.14,3.49,3.07,6,2.53,1.95-.42,2.89-1.86,3.44-3.59.64-2.03-.02-3.75-1.44-5.22-.27-.28-.71-.41-1.07-.61Z"/><path class="cls-9" d="M56.96,68.19c-.05-7.48,6.17-14.75,14.88-14.77,7.67-.02,14.86,6.13,14.89,15.09.02,7.8-6.4,14.77-15.14,14.75-7.96-.01-14.65-6.9-14.64-15.07ZM63.85,69.42c-.05,5.18,4.25,9.63,9.37,9.7,5.83.07,10.06-4.88,10.16-9.91.1-5.22-4.28-9.78-9.36-9.83-5.38-.05-10.11,4.63-10.17,10.04Z"/><path class="cls-9" d="M129.74,83.13c-7.29.16-14.57-5.81-14.59-14.88-.02-8.83,7.34-14.82,14.61-14.8,7.95.02,14.83,6.17,14.86,14.73.03,8.38-6.81,15.05-14.89,14.95ZM118.49,69.31c.03.37.05.79.1,1.21.55,4.84,4.96,8.73,9.81,8.6,5.87-.16,9.31-5.37,9.37-9.47.06-4.44-3.16-8.75-7.47-9.88-3.85-1-7.12.01-9.65,3.08-1.51,1.83-2.12,4.04-2.16,6.46Z"/><path class="cls-7" d="M3.43,86.48c.46-6.04,3.41-12.67,10.93-15.23.51-.17,1.07-.25,1.61-.27.23,0,.62.21.68.4.08.25,0,.7-.18.86-.41.35-.9.64-1.4.83-1.79.69-3.29,1.78-4.66,3.08-2.34,2.21-3.62,5-4.4,8.06-.24.94-.38,1.9-.58,2.85-.05.25-.11.51-.2.75-.15.38-.4.69-.86.65-.4-.04-.63-.34-.72-.7-.12-.5-.18-1.01-.23-1.29Z"/><path class="cls-7" d="M119.08,21.89c1.24-.01,2.23.97,2.23,2.2,0,1.2-.96,2.22-2.11,2.22-1.22,0-2.2-1.04-2.22-2.35-.02-1.16.9-2.06,2.1-2.07Z"/><path class="cls-3" d="M63.85,69.42c.05-5.41,4.78-10.08,10.17-10.04,5.08.04,9.46,4.6,9.36,9.83-.1,5.03-4.32,9.98-10.16,9.91-5.12-.06-9.42-4.52-9.37-9.7ZM75.74,64.62c-.02-1.65-1.24-2.78-2.97-2.75-1.58.02-2.59,1.06-2.58,2.64.01,1.64,1.25,2.86,2.9,2.85,1.53-.01,2.67-1.19,2.65-2.73Z"/><path class="cls-3" d="M118.49,69.31c.04-2.41.65-4.62,2.16-6.46,2.53-3.07,5.8-4.08,9.65-3.08,4.31,1.12,7.53,5.43,7.47,9.88-.06,4.1-3.5,9.32-9.37,9.47-4.85.13-9.26-3.76-9.81-8.6-.05-.42-.07-.84-.1-1.21ZM128.5,61.81c-1.59.02-2.64,1.12-2.6,2.74.04,1.59,1.23,2.8,2.75,2.78,1.59-.02,2.81-1.27,2.8-2.86-.01-1.57-1.24-2.68-2.95-2.66Z"/><path class="cls-7" d="M89.64,16.81c.43.41.91.79,1.29,1.24,2.43,2.91,1.34,6.54-1.24,8.17-2.7,1.7-7.09.28-7.89-3.65-.66-3.24,1.52-6.1,4.81-6.42,1.09-.1,2.08.29,3.06.68,0,0-.03-.03-.03-.03Z"/><path class="cls-9" d="M75.74,64.62c.02,1.55-1.12,2.72-2.65,2.73-1.65.02-2.89-1.2-2.9-2.85-.01-1.58,1.01-2.62,2.58-2.64,1.73-.03,2.95,1.11,2.97,2.75Z"/><path class="cls-9" d="M128.5,61.81c1.71-.02,2.94,1.09,2.95,2.66.01,1.59-1.21,2.84-2.8,2.86-1.52.02-2.72-1.19-2.75-2.78-.04-1.62,1.01-2.72,2.6-2.74Z"/><path class="cls-6" d="M111.45,85.61c.06-.07.12-.13.19-.2.06-.06.13-.13.19-.19.22-.05.44-.11.66-.16.97-.21,1.74.33,1.85,1.33.1.87-.14,1.66-.59,2.4-1.5,2.48-3.67,4.18-6.34,5.17-4.8,1.79-9.57,1.64-14.17-.71-2.11-1.08-3.81-2.66-4.99-4.74-.32-.57-.58-1.16-.54-1.83.04-.73.49-1.3,1.19-1.47.7-.17,1.23.03,1.64.7.46.74.88,1.5,1.47,2.16,1.84,2.04,4.2,3.1,6.85,3.49,1.99.29,4,.22,5.95-.35,2.22-.66,4.16-1.78,5.53-3.7.42-.59.74-1.25,1.11-1.88Z"/><path class="cls-4" d="M4.17,147.48c.52.85,1.04,1.7,1.56,2.55.64,1.05,1.41,2.02,2.26,2.88.92.93,1.93,1.79,3.01,2.57,3.43,2.47,7.26,4.05,11.31,5.12,1.64.44,3.33.69,5.02.9,2.07.26,4.13.19,6.19.13,1.98-.06,3.96-.39,5.91-.82,3.13-.68,6.14-1.7,9.05-3.03,3.45-1.58,6.63-3.57,9.63-5.88,1.66-1.28,3.25-2.64,4.72-4.14.2-.21.44-.38.57-.66.97-.81,1.79-1.75,2.63-2.69.94-1.06,1.8-2.18,2.7-3.27,1.5-1.82,2.78-3.78,4.1-5.73,2.67-3.94,4.83-8.16,6.89-12.43,1.76-3.66,3.25-7.44,4.56-11.29.88-2.59,1.64-5.21,2.19-7.89.04-.19.03-.39.04-.58.13.06.25.13.38.19,0,1.07.05,2.13-.01,3.2-.06,1.05-.23,2.1-.32,3.15-.1,1.18-.26,2.36-.44,3.53-.23,1.49-.45,2.98-.67,4.47-.23,1.55-.46,3.1-.69,4.66-.19,1.3-.37,2.6-.55,3.9-.1.76-.11,1.54-.18,2.3-.09,1.12-.34,2.23-.26,3.36.06.83.04,1.67-.18,2.49,0,2.68-.07,5.37.03,8.05.04,1.18.17,2.37.31,3.55.18,1.43.37,2.86.6,4.29.42,2.62,1.13,5.16,2.02,7.64.91,2.52,2.09,4.93,3.62,7.14.11.16.21.32.4.4,0,.2.11.36.22.52,1.74,2.6,4,4.69,6.39,6.67.57.47,1.27.76,1.74,1.35-.25.32-.48.06-.67-.05-1.5-.88-3.11-1.56-4.54-2.56-.97-.68-1.97-1.33-2.96-1.98-.15-.1-.28-.31-.5-.08.03.08.04.19.1.25.78.86,1.56,1.71,2.35,2.56.15.17.34.31.46.5.21.33-.07.37-.3.42-1.54-1.08-2.89-2.39-4.15-3.77-5.57-6.1-8.83-13.3-10.12-21.42-.21-1.31-.3-2.63-.46-3.98-.37-.04-.48.28-.65.47-3.78,4.38-8.01,8.26-12.72,11.62-4.61,3.28-9.57,5.89-14.97,7.62-.18.06-.37.09-.56.13-.22,0-.45-.05-.59.18,0,0-.02,0-.02,0-.21,0-.43-.04-.57.18,0,0-.04,0-.04,0-.26.03-.55-.08-.74.2,0,0-.01,0-.01,0-.21,0-.43-.04-.58.17,0,0-.04,0-.04,0-.25.03-.54-.07-.73.19,0,0-.04,0-.04,0-.31.05-.68-.13-.93.21,0,0,0,0,0,0-.42,0-.83,0-1.25.1-1.94.45-3.92.75-5.91.84-2.03.09-4.08.02-6.11.02-.31,0-.66.11-.91-.19.17-.22.61-.46-.05-.63-.22-.05-.44-.1-.65-.16-1.09-.31-2.25-.23-3.32-.54-1.98-.58-3.93-1.24-5.88-1.88-.46-.15-.93-.29-1.36-.49-2.48-1.16-4.89-2.44-7.05-4.17-2.18-1.74-4.14-3.69-5.93-5.82-.45-.54-.76-1.2-1.21-1.75-.64-.77-.9-1.7-1.28-2.59-.02-.05.09-.15.13-.23Z"/><path class="cls-4" d="M174.6,112.67c.95-.08,1.79-.52,2.65-.86,3.31-1.33,6.4-3.09,9.18-5.31,2.55-2.03,4.9-4.31,6.64-7.1,1.7-2.73,2.91-5.66,3.31-8.89.08-.64.16-1.27.16-1.92.34.04.39.27.39.56-.01.87-.07,1.73-.16,2.59-.16,1.54-.5,3.03-.82,4.53-.2.94-.56,1.84-.85,2.76-.1.32-.23.65.14.99.41-.75.88-1.4,1.11-2.19.1-.34.18-.71.67-.68-.8,2.24-1.93,4.3-3.29,6.24-3.96,5.62-9.2,9.65-15.47,12.39-5.41,2.36-11.05,3.75-16.96,4.12-4.69.29-9.3-.09-13.82-1.41-1.86-.55-3.67-1.25-5.31-2.33-.08-.16-.23-.18-.39-.19-.02-2.81.51-5.51,1.79-8.03.15-.3.24-.68.7-.77.06.4-.14.71-.25,1.03-.21.57-.05,1,.4,1.37,1.75,1.4,3.66,2.52,5.77,3.29,2.37.87,4.81,1.41,7.31,1.74,2.21.29,4.45.32,6.67.18,2.5-.16,4.98-.55,7.41-1.19,1.02-.27,2.08-.38,3.02-.91Z"/><path class="cls-4" d="M53.79,118.5c-.42-.04-.83.04-1.23.17-1.96.64-3.97.99-6.03,1.21-2.58.28-5.16.08-7.73.16-.71.02-1.39-.25-2.08-.38-2.88-.54-5.68-1.41-8.44-2.35-2.84-.97-5.54-2.28-8.12-3.83-1.63-.98-3.26-1.94-4.85-2.99-1.39-.92-2.79-1.86-3.95-3.08-1.18-1.24-2.52-2.32-3.52-3.72-.41-.58-.81-1.17-.85-1.91.71.83,1.43,1.65,2.11,2.5.22.28.44.57.71.79,1.7,1.43,3.33,2.94,5.21,4.14,4.27,2.71,8.87,4.57,13.81,5.61,1.8.38,3.6.62,5.43.79,1.13.1,2.25.19,3.38.14,2.93-.14,5.82-.51,8.66-1.27,3.62-.96,6.98-2.47,10.19-4.38,1.09-.65,2.01-1.51,3.07-2.18.15-.1.27-.3.5-.22.16.17.02.29-.08.41-2.28,2.95-4.15,6.14-5.62,9.58-.12.29-.08.75-.57.81Z"/><path class="cls-2" d="M169.7,161.34c1.71.09,3.42,0,5.11-.21,3.23-.39,6.36-1.14,9.38-2.44,2.51-1.08,4.77-2.51,6.87-4.24.18-.15.34-.3.59-.3.2.04.44.09.28.35-.77,1.23-1.59,2.42-2.77,3.33-2.03,1.57-4.24,2.84-6.59,3.85-2.21.95-4.48,1.77-6.88,2.22-.81.15-1.61.08-2.4.22-.98.17-1.96.36-2.96.33-1.96-.06-3.93.07-5.9-.16-1.63-.19-3.23-.51-4.85-.73-1.43-.2-2.8-.7-4.2-1.06-2.88-.73-5.72-1.61-8.35-3-2.1-1.11-4.26-2.11-6.21-3.53-1.53-1.12-3.24-1.98-4.73-3.17-.25-.2-.5-.42-.77-.57-1.77-.97-3.26-2.33-4.69-3.7-2-1.92-4.05-3.79-5.93-5.83-1.63-1.77-3.37-3.45-4.9-5.32-1.13-1.4-2.33-2.74-3.36-4.23-.45-.66-1.03-1.23-1.56-1.84-.1-.12-.23-.24-.47-.1.09.59.32,1.15.68,1.63.86,1.16,1.58,2.42,2.49,3.55,1.01,1.25,1.83,2.64,3.02,3.74.34.32.56.71.53,1.2-1.43-1.36-2.66-2.89-3.86-4.45-1.96-2.56-3.86-5.16-5.52-7.93-.53.16-.7.7-1.12.93-.12-.08-.18-.21-.1-.33.11-.16.23-.33.39-.43,1.6-1.01,2.07-2.76,2.78-4.32.77-1.67,1.05-3.48,1.26-5.32.2-1.76-.04-3.45-.19-5.18-.08-.96-.4-1.88-.47-3.01.33.4.38.73.47,1.04.74,2.58,1.75,5.05,2.86,7.49,2.18,4.8,4.74,9.39,7.76,13.71,1.62,2.32,3.31,4.6,5.2,6.71,1.44,1.61,2.89,3.21,4.4,4.76.32.33.65.63,1.08.8,0,0,0,0,0,0,.19.33.45.59.78.78.49.76,1.3,1.16,1.94,1.74.08.18.2.31.39.39.13.07.26.13.39.2.17.19.31.42.51.58,2.65,2.04,5.36,4.02,8.29,5.64,3.76,2.08,7.72,3.72,11.89,4.79,1.68.43,3.38.77,5.09,1.02,1.43.21,2.88.14,4.31.39Z"/><path class="cls-3" d="M228.67,103.55c-3.02,0-5.64-.64-7.85-1.93s-3.92-3.13-5.12-5.52c-1.2-2.39-1.8-5.26-1.8-8.59v-.02c0-3.34.6-6.2,1.8-8.58s2.91-4.22,5.12-5.5c2.21-1.28,4.83-1.92,7.85-1.92,2.51,0,4.74.49,6.7,1.46,1.96.97,3.54,2.31,4.73,4.02,1.19,1.7,1.88,3.65,2.08,5.84l.02.21h-6.34l-.09-.37c-.24-1.15-.68-2.14-1.31-2.99-.63-.84-1.43-1.5-2.41-1.98-.97-.47-2.11-.71-3.39-.71-1.66,0-3.1.43-4.32,1.28-1.22.85-2.16,2.06-2.83,3.62-.67,1.56-1,3.42-1,5.59v.02c0,2.18.33,4.06,1,5.64.67,1.58,1.61,2.8,2.84,3.65,1.22.85,2.66,1.28,4.31,1.28,1.25,0,2.36-.23,3.33-.69.97-.46,1.79-1.12,2.45-1.99.66-.87,1.12-1.92,1.4-3.15l.04-.21h6.34l-.02.24c-.2,2.19-.9,4.14-2.09,5.84-1.2,1.7-2.78,3.04-4.74,4.01-1.96.97-4.2,1.45-6.7,1.45Z"/><path class="cls-3" d="M246.22,103.01v-31h6.49v31h-6.49Z"/><path class="cls-3" d="M269.18,103.55c-2.45,0-4.59-.36-6.41-1.08-1.83-.72-3.27-1.76-4.32-3.12s-1.64-2.98-1.75-4.89l-.02-.34h6.12l.04.24c.14.8.5,1.49,1.08,2.07s1.33,1.03,2.27,1.35c.93.32,1.98.48,3.16.48s2.24-.16,3.1-.48c.87-.32,1.54-.78,2.01-1.38.47-.59.71-1.29.71-2.07v-.02c0-1.05-.41-1.87-1.24-2.46-.82-.59-2.2-1.08-4.11-1.47l-3.27-.67c-3.05-.6-5.35-1.64-6.91-3.1-1.55-1.47-2.33-3.37-2.33-5.7v-.02c.01-1.89.53-3.54,1.55-4.94,1.02-1.4,2.41-2.5,4.19-3.29,1.78-.79,3.81-1.18,6.1-1.18s4.46.38,6.2,1.13,3.1,1.8,4.07,3.16c.97,1.35,1.51,2.94,1.61,4.76l.02.39h-6.12l-.04-.26c-.1-.82-.41-1.51-.91-2.08-.51-.57-1.17-1.02-1.99-1.33-.82-.31-1.76-.47-2.84-.47s-2.06.16-2.86.47c-.8.32-1.42.76-1.84,1.32-.42.57-.63,1.21-.63,1.94v.02c0,.99.42,1.78,1.25,2.37.83.59,2.13,1.07,3.91,1.43l3.29.67c2.16.43,3.94,1.02,5.33,1.78,1.39.76,2.42,1.72,3.08,2.87.67,1.15,1,2.54,1,4.16v.02c0,1.99-.5,3.71-1.49,5.17-1,1.45-2.43,2.58-4.3,3.37s-4.11,1.19-6.71,1.19Z"/><path class="cls-3" d="M299.63,103.55c-3.07,0-5.72-.65-7.96-1.94-2.24-1.3-3.97-3.14-5.19-5.54-1.22-2.4-1.83-5.25-1.83-8.54v-.04c0-3.29.61-6.14,1.84-8.53,1.22-2.39,2.96-4.24,5.2-5.53,2.24-1.3,4.89-1.94,7.94-1.94s5.71.65,7.95,1.96c2.23,1.3,3.96,3.15,5.18,5.53,1.22,2.38,1.83,5.22,1.83,8.52v.04c0,3.29-.61,6.14-1.83,8.53-1.22,2.39-2.94,4.24-5.17,5.54-2.23,1.3-4.88,1.96-7.96,1.96ZM299.63,98.05c1.72,0,3.2-.43,4.44-1.3,1.24-.87,2.19-2.09,2.87-3.66.67-1.58,1.01-3.43,1.01-5.56v-.04c0-2.15-.34-4.01-1.02-5.59-.68-1.58-1.64-2.79-2.89-3.64-1.25-.85-2.71-1.28-4.4-1.28s-3.16.43-4.42,1.28c-1.25.85-2.22,2.06-2.9,3.63-.68,1.57-1.02,3.43-1.02,5.6v.04c0,2.15.34,4.01,1.02,5.59.68,1.58,1.64,2.79,2.89,3.65s2.72,1.29,4.43,1.29Z"/><path class="cls-3" d="M212.9,155.81l10.81-31h5.74v6.02h-1.98l-7.76,24.99h-6.81ZM218.72,148.29l1.59-4.86h14.46l1.59,4.86h-17.64ZM235.33,155.81l-7.73-24.99v-6.02h3.76l10.81,31h-6.83Z"/><path class="cls-3" d="M254.06,156.29c-2.12,0-3.93-.31-5.42-.92-1.5-.62-2.66-1.47-3.49-2.57-.83-1.1-1.33-2.37-1.5-3.81l-.02-.19h6.12l.04.19c.2.9.65,1.6,1.35,2.11.7.5,1.68.75,2.92.75.8,0,1.48-.1,2.04-.29s.99-.47,1.3-.83c.31-.36.46-.79.46-1.29v-.02c0-.62-.22-1.11-.67-1.48-.44-.37-1.23-.68-2.36-.92l-3.91-.84c-1.49-.31-2.74-.77-3.74-1.36-1-.59-1.75-1.33-2.26-2.21-.5-.88-.75-1.89-.75-3.04v-.02c0-1.47.4-2.75,1.19-3.82s1.92-1.91,3.37-2.5c1.45-.59,3.15-.89,5.1-.89s3.76.33,5.19.98c1.42.65,2.52,1.53,3.29,2.63.77,1.1,1.17,2.33,1.21,3.67v.21h-5.78l-.02-.17c-.1-.82-.48-1.5-1.15-2.05-.67-.55-1.58-.83-2.74-.83-.72,0-1.34.1-1.87.3-.53.2-.94.48-1.22.84-.29.36-.43.79-.43,1.29v.02c0,.39.1.73.29,1.04.19.31.52.58.98.81.46.23,1.07.43,1.85.6l3.91.84c2.42.5,4.16,1.25,5.21,2.26,1.05,1,1.58,2.35,1.58,4.04v.02c0,1.5-.43,2.81-1.29,3.93s-2.04,1.99-3.56,2.61c-1.51.62-3.25.93-5.23.93Z"/><path class="cls-3" d="M276.7,156.29c-2.12,0-3.93-.31-5.42-.92-1.5-.62-2.66-1.47-3.49-2.57-.83-1.1-1.33-2.37-1.5-3.81l-.02-.19h6.12l.04.19c.2.9.65,1.6,1.35,2.11.7.5,1.68.75,2.92.75.8,0,1.48-.1,2.04-.29s.99-.47,1.3-.83c.31-.36.46-.79.46-1.29v-.02c0-.62-.22-1.11-.67-1.48-.44-.37-1.23-.68-2.36-.92l-3.91-.84c-1.49-.31-2.74-.77-3.74-1.36-1-.59-1.75-1.33-2.26-2.21-.5-.88-.75-1.89-.75-3.04v-.02c0-1.47.4-2.75,1.19-3.82s1.92-1.91,3.37-2.5c1.45-.59,3.15-.89,5.1-.89s3.76.33,5.19.98c1.42.65,2.52,1.53,3.29,2.63.77,1.1,1.17,2.33,1.21,3.67v.21h-5.78l-.02-.17c-.1-.82-.48-1.5-1.15-2.05-.67-.55-1.58-.83-2.74-.83-.72,0-1.34.1-1.87.3-.53.2-.94.48-1.22.84-.29.36-.43.79-.43,1.29v.02c0,.39.1.73.29,1.04.19.31.52.58.98.81.46.23,1.07.43,1.85.6l3.91.84c2.42.5,4.16,1.25,5.21,2.26,1.05,1,1.58,2.35,1.58,4.04v.02c0,1.5-.43,2.81-1.29,3.93s-2.04,1.99-3.56,2.61c-1.51.62-3.25.93-5.23.93Z"/><path class="cls-3" d="M293.14,129.84c-.95,0-1.74-.33-2.4-.98-.65-.65-.98-1.42-.98-2.31s.33-1.67.98-2.31c.65-.64,1.45-.96,2.4-.96s1.74.32,2.38.96.97,1.41.97,2.31-.32,1.66-.97,2.31c-.64.65-1.44.98-2.38.98ZM289.98,155.81v-23.03h6.29v23.03h-6.29Z"/><path class="cls-3" d="M309.94,156.29c-2.12,0-3.93-.31-5.42-.92-1.5-.62-2.66-1.47-3.49-2.57-.83-1.1-1.33-2.37-1.5-3.81l-.02-.19h6.12l.04.19c.2.9.65,1.6,1.35,2.11.7.5,1.68.75,2.92.75.8,0,1.48-.1,2.04-.29s.99-.47,1.3-.83c.31-.36.46-.79.46-1.29v-.02c0-.62-.22-1.11-.67-1.48-.44-.37-1.23-.68-2.36-.92l-3.91-.84c-1.49-.31-2.74-.77-3.74-1.36-1-.59-1.75-1.33-2.26-2.21-.5-.88-.75-1.89-.75-3.04v-.02c0-1.47.4-2.75,1.19-3.82s1.92-1.91,3.37-2.5c1.45-.59,3.15-.89,5.1-.89s3.76.33,5.19.98c1.42.65,2.52,1.53,3.29,2.63.77,1.1,1.17,2.33,1.21,3.67v.21h-5.78l-.02-.17c-.1-.82-.48-1.5-1.15-2.05-.67-.55-1.58-.83-2.74-.83-.72,0-1.34.1-1.87.3-.53.2-.94.48-1.22.84-.29.36-.43.79-.43,1.29v.02c0,.39.1.73.29,1.04.19.31.52.58.98.81.46.23,1.07.43,1.85.6l3.91.84c2.42.5,4.16,1.25,5.21,2.26,1.05,1,1.58,2.35,1.58,4.04v.02c0,1.5-.43,2.81-1.29,3.93s-2.04,1.99-3.56,2.61c-1.51.62-3.25.93-5.23.93Z"/><path class="cls-3" d="M332.26,156.29c-2.55,0-4.44-.54-5.67-1.61-1.23-1.07-1.85-2.84-1.85-5.31v-11.86h-3.2v-4.73h3.2v-5.63h6.34v5.63h4.21v4.73h-4.21v11.17c0,1.07.24,1.82.72,2.25.48.42,1.19.63,2.14.63.29,0,.54-.01.75-.03s.42-.05.6-.08v4.6c-.34.06-.77.11-1.28.16-.51.05-1.09.08-1.75.08Z"/><path class="cls-3" d="M345.39,156.18c-1.53,0-2.88-.3-4.05-.89-1.17-.59-2.08-1.42-2.73-2.47-.65-1.05-.98-2.25-.98-3.6v-.04c0-1.4.35-2.6,1.05-3.6.7-1,1.72-1.78,3.06-2.35,1.34-.57,2.96-.92,4.87-1.05l8.98-.56v3.91l-8.04.54c-1.2.07-2.12.35-2.75.84-.63.49-.95,1.14-.95,1.96v.04c0,.85.32,1.51.97,1.99.64.48,1.51.72,2.6.72.93,0,1.76-.18,2.5-.55.74-.37,1.32-.87,1.74-1.5.42-.64.63-1.35.63-2.14v-7c0-1.02-.32-1.82-.97-2.41-.64-.59-1.58-.88-2.81-.88s-2.11.24-2.79.72c-.69.48-1.11,1.09-1.27,1.84l-.04.19h-5.76l.02-.26c.13-1.42.6-2.68,1.43-3.78.82-1.1,1.97-1.97,3.44-2.59,1.47-.62,3.21-.93,5.23-.93s3.72.32,5.18.96c1.46.64,2.6,1.54,3.41,2.7.81,1.16,1.21,2.51,1.21,4.06v15.79h-6.27v-3.42h-.13c-.44.77-1,1.45-1.68,2.02-.67.57-1.44,1.01-2.31,1.31-.87.3-1.8.45-2.8.45Z"/><path class="cls-3" d="M362.62,155.81v-23.03h6.27v3.78h.13c.6-1.32,1.49-2.36,2.66-3.12,1.17-.76,2.63-1.14,4.36-1.14,2.54,0,4.49.76,5.88,2.29,1.38,1.53,2.07,3.64,2.07,6.35v14.87h-6.27v-13.56c0-1.5-.35-2.67-1.06-3.5-.71-.83-1.77-1.25-3.17-1.25-.93,0-1.74.21-2.43.64s-1.22,1.02-1.6,1.78c-.38.76-.57,1.64-.57,2.64v13.23h-6.27Z"/><path class="cls-3" d="M397.12,156.29c-2.55,0-4.44-.54-5.67-1.61-1.23-1.07-1.85-2.84-1.85-5.31v-11.86h-3.2v-4.73h3.2v-5.63h6.34v5.63h4.21v4.73h-4.21v11.17c0,1.07.24,1.82.72,2.25.48.42,1.19.63,2.14.63.29,0,.54-.01.75-.03s.42-.05.6-.08v4.6c-.34.06-.77.11-1.28.16-.51.05-1.09.08-1.75.08Z"/></svg>
