<?xml version="1.0" encoding="UTF-8"?>
<svg width="400px" height="200px" viewBox="0 0 400 200" version="1.1" xmlns="http://www.w3.org/2000/svg" xmlns:xlink="http://www.w3.org/1999/xlink">
    <title>ciso</title>
    <defs>
        <path d="M0,0 L400,0 L400,200 L0,200 L0,0 Z" id="path-1"></path>
    </defs>
    <g id="ciso" stroke="none" fill="none" xlink:href="#path-1">
        <g id="logo-ciso-assistant" fill-rule="evenodd" stroke-width="1">
            <g id="Calque_1" transform="translate(-0.0009, 0.0104)">
                <ellipse id="Oval" fill="#E0E0EF" cx="100.651322" cy="188.082701" rx="77.1888328" ry="11.9069487"></ellipse>
                <g id="Group">
                    <path d="M78.0452297,144.699839 C77.4891359,144.870945 77.2677049,145.29116 76.9833674,145.615758 C72.5522312,150.663378 67.5549362,155.061803 61.8983807,158.690252 C55.6580526,162.69614 48.8716957,165.318084 41.5644728,166.553569 C38.6078657,167.054305 35.616031,167.278252 32.6141312,167.159988 C25.9535875,166.893264 19.6251902,165.368409 13.7371387,162.160176 C11.7367109,161.070635 9.69853921,160.054065 7.95225384,158.549341 C4.06211381,155.195165 1.64398667,150.962813 0.554445508,145.985648 C-0.935181204,139.174129 0.569543076,133.057098 5.1566875,127.783014 C8.44795733,124.001073 12.6601788,122.091231 17.6725714,121.897479 C21.2230161,121.759084 24.619969,122.284983 27.740133,124.069012 C31.4440697,126.187704 34.0156888,129.222315 34.9618031,133.449634 C35.4650553,135.694139 35.326661,137.926063 34.1792458,139.99443 C33.1727412,141.808655 31.7208585,143.094464 29.6625567,143.602749 C25.9913314,144.508603 22.4006265,141.760846 22.2345532,137.98897 C22.1313865,135.661428 23.0976308,134.048505 25.1836115,133.072195 C25.3270384,133.004256 25.4604002,132.911154 25.6189247,132.815536 C25.6944125,132.201569 25.2792294,131.846776 24.9269528,131.486951 C24.1443956,130.689296 23.1328585,130.296759 22.06848,130.103007 C19.7635846,129.685307 17.5945673,130.092942 15.6545298,131.441658 C13.3395694,133.054581 12.5721097,135.394704 12.7256016,138.087104 C12.9042562,141.237463 14.2655535,143.914765 16.2760464,146.269986 C18.6438483,149.042906 21.6029716,150.794224 25.2666481,151.297476 C27.9967917,151.672399 30.6640287,151.388061 33.2557779,150.535049 C39.9138054,148.343385 45.2860233,144.415501 49.105708,138.489706 C50.9325138,135.656396 51.9767622,132.521134 52.3542014,129.17199 C52.706478,126.034212 53.0738522,122.901467 54.0451291,119.876921 C54.082873,119.763689 54.0702917,119.632843 54.0879055,119.40638 C53.7532427,119.474319 53.476454,119.504514 53.2147628,119.590067 C50.4116477,120.493405 47.5405935,120.994141 44.599084,121.119954 C32.5562572,121.633271 21.8017563,118.090375 12.3884226,110.632177 C7.10175751,106.442601 3.59157294,100.992379 2.06420231,94.3695795 C1.08537665,90.1221304 0.874010698,85.8419698 2.32337723,81.6498784 C4.5251059,75.2887698 8.82791279,71.1922963 15.5085866,69.7706086 C17.3278436,69.3831044 19.1596818,69.1264457 21.0242315,69.1969011 C28.3893284,69.4686573 34.0106563,74.1463871 35.731779,80.1678005 C36.5797591,83.1319564 36.5873079,86.1061773 35.3014983,88.9545851 C34.0207213,91.7954441 31.9246756,93.816002 28.8196091,94.5532666 C27.1035189,94.9609009 25.3899449,94.8501854 23.8223141,93.8914898 C21.7614961,92.6308429 20.7122151,90.0340612 21.3211503,87.711552 C21.8168538,85.8193235 23.4247448,84.5309977 25.4629165,84.4404123 C26.0416566,84.4152496 26.6254292,84.5133838 27.2092019,84.553644 C27.4633443,84.5712578 27.7200029,84.5888717 28.0118892,84.6090018 C28.4144911,83.9572901 28.3616496,83.2804158 28.2383528,82.608574 C27.6998728,79.6746133 25.0326358,77.4326244 21.9351181,77.3017788 C19.1244542,77.1835145 16.8573027,78.2604744 15.1638588,80.4923982 C13.0728457,83.2451881 12.3129347,86.3804497 12.6928902,89.7874676 C13.4653824,96.7197676 18.3746083,102.78899 26.5600064,104.530243 C31.5019437,105.579524 36.2677427,104.852324 40.8196595,102.710986 C45.4697104,100.521838 49.1409357,97.1752109 52.089994,93.0057658 C52.6687341,92.1904972 52.6460877,92.1779159 52.089994,91.4003911 C47.7016342,85.2305183 44.9186492,78.3737062 43.3812135,70.9909954 C42.2262495,65.4350904 41.9494608,59.818795 42.4300667,54.1798534 C43.5321892,41.3091766 48.3684435,30.008647 56.8960531,20.3059432 C64.7845324,11.3329553 74.5350451,5.30399314 86.0142294,2.05801601 C88.9557389,1.22513351 91.9551224,0.686653585 94.9997986,0.362055872 C97.4959299,0.0953321705 99.9945774,-0.0329971578 102.500774,0.0072630236 C111.863782,0.158238704 120.708441,2.31215841 128.971843,6.78607107 C139.477234,12.4728217 147.645018,20.5122767 153.389643,30.9874726 C156.706075,37.0340486 158.900255,43.4807102 159.914309,50.3022947 C160.581118,54.7913049 160.724545,59.307994 160.387366,63.8422969 C159.763333,72.2617074 157.350238,80.1225078 153.09524,87.4020518 C152.078671,89.1407884 150.878414,90.773842 149.738548,92.4370908 C149.45421,92.8497576 149.315816,93.1617741 149.655511,93.6448962 C152.710252,97.9628007 156.482128,101.400014 161.439163,103.42812 C164.43603,104.656056 167.548646,105.270024 170.777009,105.101434 C176.519117,104.799483 181.488733,102.771376 185.255577,98.2748171 C188.058692,94.9281895 189.359599,91.0606958 188.944416,86.6849174 C188.665111,83.7459241 187.449756,81.2246303 185.215316,79.2795602 C183.325604,77.6339253 181.123875,76.9092421 178.605098,77.4879822 C176.139162,78.054141 173.343595,80.6031137 173.81162,83.8339933 C173.874527,84.2693065 174.030535,84.6920384 174.163897,85.1852256 C174.707409,85.0669613 175.142722,84.9537296 175.583068,84.880758 C178.187398,84.4454448 181.13394,85.9778479 180.909993,89.4754512 C180.769083,91.6822124 179.229131,93.6499288 176.964495,94.2915754 C175.170401,94.7998602 173.409018,94.5809454 171.748286,93.7455467 C168.658317,92.1930134 166.796283,89.646557 166.124442,86.3074782 C165.382145,82.6136065 166.24019,79.1839423 168.341268,76.0889409 C170.890241,72.3346789 174.448234,70.0448811 178.939761,69.4611085 C185.149894,68.6533886 190.728445,70.1279178 195.192293,74.7351923 C197.945083,77.5760513 199.550457,81.0283619 200.041128,84.9688271 C200.718002,90.4089841 199.605815,95.5320922 197.170074,100.380928 C194.067524,106.560866 189.35205,111.220982 183.378446,114.628 C177.973516,117.71042 172.150888,119.610197 165.998629,120.440563 C160.538341,121.177828 155.093152,121.112405 149.715901,119.723429 C147.534303,119.159786 145.428192,118.407424 143.473057,117.265041 C143.339695,117.187037 143.191236,117.134196 142.97987,117.036062 C142.806248,117.81107 142.937093,118.510591 143.042776,119.195014 C143.797655,124.116821 145.52381,128.6939 148.097945,132.938833 C150.906093,137.568754 154.298013,141.71052 158.610885,145.04205 C161.821635,147.520568 165.372079,149.314662 169.352805,150.170191 C176.889008,151.790663 182.990941,148.766117 186.533837,142.475464 C187.691318,140.419678 188.149277,138.172657 187.829712,135.787241 C187.409496,132.65198 185.024081,130.264047 181.86114,129.836283 C179.729867,129.549429 177.789829,129.994808 176.038511,131.242873 C175.505064,131.622829 175.047104,132.075756 174.714958,132.780309 C175.004328,132.913671 175.248405,133.044516 175.505064,133.14265 C178.496899,134.280001 179.362493,137.727279 177.523105,140.24354 C176.192003,142.062797 174.445718,143.162403 172.150888,143.112078 C169.345256,143.051688 166.834027,141.202236 165.938238,138.529966 C164.982059,135.676526 165.236201,132.85328 166.572336,130.183527 C168.57528,126.187704 171.773448,123.462593 175.952958,121.95032 C181.174201,120.058092 186.241951,120.679608 190.992652,123.392138 C196.45294,126.507269 199.769372,131.315845 200.914271,137.455522 C201.847804,142.460366 200.997308,147.286555 198.664733,151.858602 C196.161053,156.765312 192.296076,160.157232 187.394399,162.532583 C183.106689,164.611015 178.622712,165.982377 173.907238,166.56615 C170.21085,167.024109 166.504397,166.966235 162.80046,166.50576 C153.369513,165.333182 145.020558,161.541176 137.323314,156.106051 C130.413661,151.227021 124.294113,145.492461 118.947058,138.965279 C116.745329,136.277912 114.863166,133.328854 112.835059,130.495544 C112.671502,130.264047 112.51801,130.025003 112.326774,129.738149 C112.112892,129.889125 111.936754,129.972161 111.815973,130.105523 C108.685744,133.562866 105.676295,137.110795 103.469534,141.257593 C101.378521,145.185477 100.233622,149.357439 100.374533,153.816254 C100.51796,158.365654 101.786155,162.557746 104.876124,166.020121 C108.227784,169.774383 112.492847,171.38479 117.475045,170.949477 C122.973076,170.466355 127.658355,165.567194 127.014192,159.477842 C126.677013,156.30232 124.374633,153.625018 121.370217,153.016083 C120.313388,152.8022 119.294302,152.907883 118.355736,153.479075 C117.691443,153.881676 117.223419,154.455384 116.976825,155.192649 C116.591837,156.347613 116.705069,156.59169 117.809708,157.132686 C120.054213,158.229776 120.572563,160.673066 118.969704,162.592973 C117.623504,164.205897 115.409194,164.66134 113.376055,163.740388 C110.832115,162.590457 109.339972,159.721919 109.699797,156.911255 C110.145176,153.428749 112.8879,149.412796 117.860033,148.154666 C122.18297,147.060092 125.99259,148.081694 129.190758,151.184244 C132.960117,154.840372 134.580589,159.296671 134.016947,164.540559 C133.430658,169.975684 131.123246,174.502438 126.883346,177.972362 C124.100361,180.252095 120.849351,181.520291 117.303939,182.048706 C111.196973,182.959592 105.52532,181.447319 100.132972,178.767501 C88.8903161,173.178885 82.0460852,164.072535 79.1523847,151.944155 C78.6415836,149.802817 78.4729941,147.578442 78.1433639,145.391811 C78.1131688,145.182961 78.0754248,144.974111 78.0301321,144.702355 L78.0452297,144.699839 Z M42.6036887,60.0351935 C43.0616483,59.8263438 43.3812135,59.692982 43.6881974,59.5369738 C50.308481,56.1752486 56.9186995,52.7959097 63.5440156,49.4517983 C69.0948881,46.6486832 74.6608582,43.8782795 80.2268283,41.1053595 C87.2497137,37.6052399 94.2851804,34.1277668 101.303033,30.6175822 C107.329479,27.6005849 113.350893,24.5710062 119.352176,21.5061999 C121.699848,20.3084595 124.002227,19.0201337 126.299573,17.7267754 C127.643257,16.9693807 128.833449,16.0056526 129.688977,14.6921642 C130.901815,12.8326471 130.740775,11.2625 129.190758,9.67222283 C127.640741,8.0794294 125.740963,7.0251159 123.732987,6.14190817 C118.068883,3.64577692 112.122957,2.30209336 105.963149,1.94226799 C103.597864,1.80387362 101.222513,1.60760524 98.8446459,1.88187772 C96.6177546,2.13853638 94.3556357,2.1888616 92.1564233,2.58391463 C83.1456914,4.20187068 74.9024193,7.68940889 67.4316394,12.9987203 C62.1298767,16.7680798 57.5930575,21.294834 53.7255639,26.5211088 C50.9979366,30.2074316 48.816338,34.2007384 46.9467558,38.3676671 C45.5854584,41.4022783 44.4959173,44.5350237 43.7913641,47.7960984 C43.1497175,50.7627705 42.8326685,53.7722191 42.6137538,56.7917327 C42.5407822,57.815851 42.6011725,58.8500344 42.6011725,60.0427423 L42.6036887,60.0351935 Z M57.3310944,68.6257097 C57.3213013,76.8488518 64.0497841,83.7811518 72.0615602,83.7937574 C80.8558936,83.8088307 87.3226853,76.8035591 87.2975958,68.9477912 C87.2698438,59.924478 80.0330762,53.7344751 72.3106701,53.7570596 C63.5440156,53.7822841 57.2835574,61.0945395 57.3310944,68.6257097 Z M130.58225,83.6603712 C138.719839,83.763538 145.60433,77.052669 145.571735,68.6131284 C145.538908,59.9999659 138.61164,53.8024142 130.609929,53.7847721 C123.285092,53.7697028 115.882251,59.7961487 115.899834,68.6835837 C115.919995,77.8075474 123.244832,83.8239282 130.579734,83.657855 L130.58225,83.6603712 Z M3.45569483,87.0296452 C3.5035038,87.3064339 3.56389407,87.8247838 3.68215835,88.328036 C3.76771124,88.6928939 4.00172354,88.9948453 4.40432536,89.0351055 C4.86731744,89.0803982 5.11642732,88.7658655 5.26991926,88.3833938 C5.36553719,88.1443489 5.42089494,87.8876903 5.47373643,87.6335479 C5.67000481,86.6773686 5.81594797,85.708608 6.05750906,84.76501 C6.84006633,81.6851061 8.12839214,78.8794747 10.486129,76.6500671 C11.872589,75.339095 13.3798296,74.2369725 15.1789564,73.5475169 C15.6847249,73.3537648 16.1779122,73.0618785 16.5855465,72.7096019 C16.7717498,72.5485612 16.8472377,72.0981504 16.7667173,71.8465242 C16.7038108,71.6502559 16.3163065,71.4313411 16.079778,71.4388899 C15.5362655,71.4565037 14.972623,71.5345078 14.4593057,71.7081299 C6.8878753,74.279749 3.92120318,80.9579066 3.45317857,87.0321614 L3.45569483,87.0296452 Z M119.860461,22.0195172 C118.647623,22.0320985 117.726671,22.9379526 117.741769,24.1029816 C117.761899,25.4215025 118.753306,26.4707835 119.981241,26.4682718 C121.141238,26.4682718 122.112515,25.4466652 122.107501,24.2363435 C122.102449,22.9933104 121.103494,22.0094522 119.860461,22.0220335 L119.860461,22.0195172 Z" id="Shape" fill="#5D4495" fill-rule="nonzero"></path>
                    <path d="M42.6036887,60.0351935 C42.6036887,58.8424856 42.5407822,57.8083022 42.61627,56.7841839 C42.8326685,53.7646703 43.1522337,50.757738 43.7938804,47.7885496 C44.4984335,44.5274749 45.5879747,41.3922133 46.9492721,38.3601184 C48.8188542,34.1931896 51.0004528,30.2023991 53.7280801,26.51356 C57.5955738,21.2872852 62.132393,16.760531 67.4341556,12.9911715 C74.9049356,7.68186011 83.1482077,4.19432189 92.1589396,2.57636585 C94.3606682,2.18131282 96.6202709,2.13098759 98.8471622,1.87432894 C101.225029,1.60005645 103.60038,1.79380857 105.965666,1.93471921 C112.125473,2.29706084 118.071399,3.63822814 123.735503,6.13435938 C125.74348,7.02008338 127.643257,8.07188061 129.193274,9.66467404 C130.743291,11.2574675 130.906848,12.8250983 129.691494,14.6846154 C128.835965,15.9981038 127.645773,16.9618319 126.30209,17.7192266 C124.004743,19.0125849 121.699848,20.3009107 119.354692,21.4986511 C113.353409,24.5634574 107.331995,27.5955523 101.30555,30.6100334 C94.2876966,34.1227343 87.2522299,37.5976912 80.2293445,41.0978107 C74.6633745,43.8707307 69.0974044,46.6436507 63.5465319,49.4442495 C56.9186995,52.7908771 50.308481,56.1676998 43.6907136,59.529425 C43.3837298,59.6854332 43.0641646,59.818795 42.606205,60.0276447 L42.6036887,60.0351935 Z M89.9974711,17.309076 L90.0276662,17.3367549 C89.8012027,17.1631328 89.5999018,16.9215717 89.3432431,16.8259538 C87.8234213,16.2472137 85.4505868,16.3830918 83.9710252,17.8525884 C82.3077764,19.5057721 81.8498168,22.3114035 83.0299434,24.2489248 C84.3409156,26.4028445 86.5426442,27.3388937 89.0664544,26.7953812 C91.0266219,26.3751656 91.97022,24.9257991 92.5263137,23.1795137 C93.1755091,21.1388257 92.5036674,19.4026054 91.0769472,17.92556 C90.8001584,17.6387062 90.3598127,17.5128932 89.9949548,17.3115923 L89.9974711,17.309076 Z" id="Shape" fill="#7258A2" fill-rule="nonzero"></path>
                    <path d="M57.3310944,68.6257097 C57.2835574,61.0945395 63.5440156,53.7822841 72.3106701,53.7570596 C80.0330762,53.7344751 87.2698438,59.924478 87.2975958,68.9477912 C87.3226853,76.8035591 80.8558936,83.8088307 72.0615602,83.7937574 C64.0497841,83.7786355 57.3213013,76.8488518 57.3310944,68.6257097 Z M64.2636663,69.8611941 C64.2158574,75.0723713 68.5387944,79.5588653 73.6946138,79.6217718 C79.5675678,79.6922271 83.8200495,74.7049971 83.9156674,69.6473118 C84.0138016,64.3933582 79.607828,59.8011812 74.494785,59.7584048 C69.0772743,59.7131121 64.3139916,64.4160045 64.2636663,69.8611941 L64.2636663,69.8611941 Z" id="Shape" fill="#FFFFFF" fill-rule="nonzero"></path>
                    <path d="M130.58225,83.6603712 C123.247348,83.8264445 115.922512,77.8100636 115.902341,68.6861 C115.882251,59.798665 123.287609,53.7722191 130.612445,53.7872883 C138.61164,53.8049304 145.538908,60.0024821 145.574251,68.6156447 C145.606847,77.0551852 138.722356,83.7660542 130.584766,83.6628875 L130.58225,83.6603712 Z M119.26159,69.7529948 C119.291786,70.1279178 119.311916,70.5531659 119.359725,70.9733816 C119.913302,75.839831 124.351987,79.7576499 129.23605,79.6268043 C135.144232,79.4682798 138.61164,74.2193587 138.666998,70.0926901 C138.727388,65.6187774 135.486444,61.2832591 131.145893,60.1534578 C127.273367,59.144437 123.977064,60.1635229 121.433124,63.256008 C119.913302,65.1004276 119.301851,67.3273189 119.26159,69.7555111 L119.26159,69.7529948 Z" id="Shape" fill="#FFFFFF" fill-rule="nonzero"></path>
                    <path d="M3.45569483,87.0296452 C3.92371944,80.9553903 6.8878753,74.2772327 14.4618219,71.7056136 C14.9751392,71.5319916 15.5387818,71.4539875 16.0822942,71.4363737 C16.3188228,71.4288249 16.7038108,71.6452233 16.7692336,71.844008 C16.8497539,72.0956341 16.7742661,72.5460449 16.5880628,72.7070856 C16.1804284,73.0593622 15.6872412,73.3512485 15.1814727,73.5450007 C13.3823458,74.2344563 11.8751053,75.3365787 10.4886453,76.6475509 C8.1309084,78.8769584 6.84258259,81.6851061 6.06002532,84.7624937 C5.82098049,85.7060917 5.67252107,86.6748523 5.47625269,87.6310316 C5.4234112,87.885174 5.36805345,88.1418327 5.27243552,88.3808775 C5.11894358,88.7633492 4.8698337,89.0778819 4.40684162,89.0325892 C4.0042398,88.992329 3.7702275,88.6928939 3.68467461,88.3255198 C3.56641033,87.8222675 3.5035038,87.3039177 3.45821109,87.0271289 L3.45569483,87.0296452 Z" id="Path" fill="#D0BFDF"></path>
                    <path d="M119.860461,22.0195172 C121.103494,22.0069359 122.104966,22.9933104 122.107501,24.2338272 C122.112515,25.4466652 121.141238,26.4632347 119.981241,26.465751 C118.755822,26.465751 117.761899,25.4189863 117.741769,24.1004653 C117.724155,22.9379526 118.647623,22.0295823 119.860461,22.017001 L119.860461,22.0195172 Z" id="Path" fill="#D0BFDF"></path>
                    <path d="M64.2636663,69.8611941 C64.3139916,64.4160045 69.0772743,59.7105958 74.494785,59.7584048 C79.607828,59.8011812 84.0163179,64.3933582 83.9156674,69.6473118 C83.8200495,74.7049971 79.5675678,79.6922271 73.6946138,79.6217718 C68.5362781,79.5588653 64.2133411,75.0748875 64.2636663,69.8611941 L64.2636663,69.8611941 Z M76.2360378,65.0299723 C76.2159077,63.3717561 74.9879722,62.2318897 73.2492356,62.2595685 C71.6614747,62.2847312 70.6373563,63.3314959 70.6499376,64.9167405 C70.6625189,66.5724405 71.9131008,67.7978598 73.571317,67.7827622 C75.111269,67.7676646 76.2536516,66.5875381 76.2360378,65.0299723 Z" id="Shape" fill="#271D44" fill-rule="nonzero"></path>
                    <path d="M119.26159,69.7529948 C119.301851,67.3222864 119.913302,65.0979113 121.433124,63.2534918 C123.977064,60.1610066 127.273367,59.144437 131.145893,60.1509415 C135.48896,61.2807429 138.729904,65.6187774 138.666998,70.0901738 C138.61164,74.2168424 135.141716,79.4657636 129.23605,79.624288 C124.351987,79.7551336 119.913302,75.8373147 119.359725,70.9708653 C119.311916,70.5506497 119.291786,70.1279178 119.26159,69.7504786 L119.26159,69.7529948 Z M129.331668,62.2042108 C127.726294,62.2218246 126.677013,63.3264634 126.71224,64.959517 C126.747468,66.5598592 127.950241,67.7726971 129.48516,67.7575996 C131.082986,67.7399857 132.310922,66.4818551 132.29834,64.8789966 C132.285759,63.2962682 131.052791,62.1840807 129.329152,62.2042108 L129.331668,62.2042108 Z" id="Shape" fill="#271D44" fill-rule="nonzero"></path>
                    <path d="M90.2214183,16.9089904 C90.6567315,17.3241736 91.1398537,17.7016128 91.5223254,18.1620886 C93.973164,21.093533 92.8685252,24.7471445 90.2692273,26.3801981 C87.5466325,28.0912558 83.1356264,26.6645356 82.3304228,22.7064566 C81.668646,19.4453819 83.8577934,16.5642626 87.1742258,16.24973 C88.273832,16.144047 89.265239,16.5416163 90.2541297,16.9391856 C90.2541297,16.9391856 90.2189021,16.9089904 90.2189021,16.9089904 L90.2214183,16.9089904 Z" id="Path" fill="#D0BFDF"></path>
                    <path d="M76.2360378,65.0299723 C76.2536516,66.5875381 75.111269,67.7676646 73.571317,67.7827622 C71.9131008,67.7978598 70.6625189,66.5724405 70.6499376,64.9167405 C70.6373563,63.3314959 71.6614747,62.2847312 73.2492356,62.2595685 C74.9879722,62.2318897 76.2159077,63.3717561 76.2360378,65.0299723 Z" id="Path" fill="#FFFFFF"></path>
                    <path d="M129.331668,62.2042108 C131.055307,62.186597 132.288275,63.2962682 132.300857,64.8789966 C132.313438,66.4818551 131.082986,67.7399857 129.487677,67.7575996 C127.955273,67.7752134 126.749984,66.5598592 126.714757,64.959517 C126.679529,63.3264634 127.72881,62.2218246 129.334185,62.2042108 L129.331668,62.2042108 Z" id="Path" fill="#FFFFFF"></path>
                    <path d="M112.175799,86.1565025 C112.238705,86.0910797 112.299095,86.0231406 112.362002,85.9577178 C112.427425,85.892295 112.490331,85.8293885 112.555754,85.7639657 C112.774669,85.7111242 112.993583,85.6557665 113.215014,85.6079575 C114.19384,85.3965916 114.963816,85.9451365 115.077048,86.9466085 C115.175182,87.8222675 114.933621,88.6123736 114.478178,89.3597032 C112.965905,91.8508019 110.784306,93.5643759 108.096939,94.5683641 C103.260685,96.3725235 98.4672067,96.2240641 93.8372859,93.8512297 C91.7135613,92.7642048 90.0050198,91.1764439 88.8173445,89.0753656 C88.4927468,88.5041743 88.2360881,87.9103366 88.2713158,87.2309461 C88.311576,86.4911652 88.7670193,85.9224902 89.4640237,85.7488681 C90.1710931,85.5727299 90.7020242,85.7790633 91.1197236,86.4509051 C91.5827157,87.1957184 92.0029313,87.9631781 92.5992853,88.6224386 C94.4562862,90.6731916 96.8215718,91.7426027 99.4988739,92.1326232 C101.504334,92.4245095 103.522376,92.3565704 105.487576,91.7753141 C107.727048,91.1135373 109.669602,89.9787035 111.058578,88.0512473 C111.486343,87.4574096 111.808424,86.7906003 112.178315,86.1565025 L112.175799,86.1565025 Z" id="Path" fill="#101022"></path>
                    <path d="M4.20050819,148.431454 C4.72389055,149.286983 5.25230543,150.13748 5.77317153,150.995525 C6.41481817,152.054871 7.19485918,153.028664 8.05038804,153.894258 C8.97888847,154.830307 9.99545805,155.695901 11.0774504,156.478458 C14.5272447,158.964524 18.3846734,160.552285 22.4559842,161.636794 C24.1066516,162.07714 25.8026118,162.328766 27.508637,162.540132 C29.5895851,162.799307 31.668017,162.731368 33.7389,162.670977 C35.7368115,162.613103 37.7271743,162.275924 39.6848256,161.850676 C42.8326685,161.163737 45.8622472,160.142135 48.7987242,158.795935 C52.2686485,157.203141 55.4718492,155.197681 58.4888466,152.875172 C60.1596441,151.586846 61.7625026,150.218 63.2420642,148.710759 C63.4458814,148.50191 63.6874425,148.325771 63.8107393,148.048983 C64.7870487,147.23623 65.6148987,146.2876 66.4578462,145.341485 C67.4064768,144.274591 68.2720707,143.144789 69.1779247,142.047699 C70.6851653,140.218377 71.9760074,138.23808 73.3020771,136.282945 C75.9894442,132.319833 78.1685265,128.0749 80.2394096,123.769577 C82.0133738,120.083254 83.5105493,116.278667 84.826554,112.408657 C85.712278,109.806843 86.482254,107.164768 87.0307989,104.46482 C87.0685429,104.2761 87.0584778,104.077316 87.0710591,103.881047 C87.1993885,103.94647 87.3277178,104.011893 87.4560471,104.074799 C87.4560471,105.146727 87.5013398,106.223687 87.4459821,107.293098 C87.3906243,108.35496 87.2094535,109.406757 87.1213844,110.46862 C87.0207339,111.658811 86.8622094,112.841454 86.6810386,114.021581 C86.4520588,115.518756 86.2255953,117.018448 86.0016481,118.515623 C85.7676358,120.078222 85.5361397,121.64082 85.3121924,123.203418 C85.1234728,124.511874 84.9372695,125.817814 84.7611312,127.128786 C84.6579645,127.896246 84.6453832,128.676287 84.5849929,129.446263 C84.4944075,130.571031 84.2478139,131.688251 84.325818,132.83315 C84.383692,133.671065 84.3711107,134.519045 84.1471634,135.341863 C84.1471634,138.044328 84.0741919,140.746792 84.1723261,143.444224 C84.2151025,144.626867 84.3383993,145.824608 84.4868587,147.012283 C84.6655133,148.454101 84.8592654,149.890886 85.0882452,151.327671 C85.5084608,153.964713 86.2281116,156.518718 87.1239006,159.017366 C88.0347872,161.55879 89.2274951,163.976917 90.7724796,166.208841 C90.8857113,166.372398 90.988878,166.530922 91.1750814,166.616475 C91.1801139,166.820292 91.2883131,166.9763 91.3990286,167.142374 C93.1528628,169.754253 95.4250468,171.867912 97.8305926,173.855759 C98.4017839,174.328816 99.1113696,174.61567 99.5819105,175.212024 C99.3328006,175.534105 99.0937558,175.269898 98.9050362,175.159182 C97.3952794,174.275975 95.7748071,173.586519 94.3329893,172.580014 C93.3516474,171.895591 92.3451429,171.246396 91.3487034,170.582103 C91.2027602,170.483969 91.0719147,170.270087 90.8479674,170.506615 C90.8781625,170.587135 90.8907438,170.692818 90.9486178,170.758241 C91.7311751,171.621319 92.5212812,172.479364 93.3113872,173.339925 C93.4648792,173.508515 93.6535988,173.651942 93.7718631,173.840661 C93.9807128,174.172808 93.7014078,174.210552 93.472428,174.260877 C91.922411,173.16882 90.5686624,171.852815 89.2979504,170.461322 C83.6866876,164.326677 80.4105154,157.072296 79.107092,148.899479 C78.8982423,147.585991 78.8001081,146.254888 78.6491324,144.898623 C78.2767257,144.853331 78.1660102,145.180445 77.9974207,145.374197 C74.1953499,149.785203 69.9353194,153.690441 65.1921668,157.067263 C60.5496646,160.371114 55.5624346,162.998091 50.1247939,164.74186 C49.9411068,164.799734 49.7473547,164.827413 49.5586351,164.87019 C49.3397203,164.862641 49.1107406,164.817348 48.9673137,165.051361 C48.9673137,165.051361 48.9471836,165.056393 48.9471836,165.056393 C48.7383339,165.056393 48.5194192,165.018649 48.3785085,165.235048 C48.3785085,165.235048 48.3407646,165.242596 48.3407646,165.242596 C48.0841059,165.272792 47.7846708,165.157043 47.6009838,165.44893 C47.6009838,165.44893 47.5909187,165.451446 47.5909187,165.451446 C47.3795528,165.443897 47.1581218,165.40867 47.0096623,165.622552 C47.0096623,165.622552 46.9694022,165.630101 46.9694022,165.630101 C46.7152598,165.660296 46.4233735,165.554613 46.2296213,165.821336 C46.2296213,165.821336 46.1918774,165.828885 46.1918774,165.828885 C45.8773447,165.881727 45.5074543,165.700556 45.2583445,166.040251 C45.2583445,166.040251 45.2507957,166.040251 45.2507957,166.040251 C44.83058,166.035219 44.4204294,166.045284 43.9951813,166.143418 C42.0400462,166.591312 40.0496835,166.898296 38.0492557,166.986365 C36.001019,167.076951 33.9477497,167.011528 31.8944805,167.001463 C31.5824641,167.001463 31.23522,167.109662 30.9785614,166.810227 C31.1496671,166.583764 31.5950454,166.344719 30.9232036,166.178646 C30.7042889,166.123288 30.4803416,166.077995 30.2664594,166.017605 C29.1693695,165.710621 28.0068567,165.788625 26.9248643,165.471576 C24.9370179,164.89032 22.974334,164.220994 21.0041014,163.581864 C20.5411093,163.430888 20.0705685,163.292494 19.6302227,163.08616 C17.1315752,161.921131 14.7109318,160.630289 12.5393983,158.891553 C10.3477346,157.137719 8.37246949,155.180067 6.57334263,153.036213 C6.11789933,152.4927 5.80839918,151.823375 5.35547214,151.277346 C4.7138255,150.502337 4.44961806,149.563772 4.07217886,148.670499 C4.05204877,148.620174 4.15773175,148.517007 4.20554071,148.439003 L4.20050819,148.431454 Z" id="Path" fill="#51378D"></path>
                    <path d="M175.741592,113.387483 C176.697772,113.30193 177.545752,112.869133 178.411346,112.519373 C181.742876,111.180721 184.850458,109.409274 187.648541,107.17735 C190.212611,105.134146 192.577897,102.844348 194.329215,100.028651 C196.040273,97.2783776 197.263176,94.3368681 197.663261,91.0808259 C197.743782,90.436663 197.819269,89.8000489 197.829334,89.1508535 C198.174062,89.1885974 198.221871,89.4276422 198.219355,89.7119798 C198.204257,90.5851224 198.151416,91.4482001 198.063347,92.3213428 C197.907339,93.8713597 197.562611,95.376084 197.235497,96.8858408 C197.03168,97.8319551 196.669338,98.7428417 196.377452,99.6688259 C196.274285,99.9959398 196.145956,100.323054 196.515846,100.662749 C196.931029,99.9028382 197.404086,99.2486102 197.628034,98.4610204 C197.726168,98.1188089 197.809204,97.7413697 198.299875,97.7791136 C197.499704,100.031168 196.357322,102.107083 194.985959,104.057186 C191.000201,109.718774 185.723601,113.772471 179.410301,116.525261 C173.962596,118.900611 168.288426,120.302169 162.345017,120.669543 C157.619478,120.961429 152.984525,120.58399 148.440157,119.247855 C146.563026,118.696794 144.748802,117.984692 143.10065,116.9027 C143.017614,116.741659 142.869154,116.716496 142.710313,116.71398 C142.695532,113.88067 143.218915,111.16814 144.509757,108.629233 C144.663249,108.329797 144.748802,107.949842 145.211794,107.849191 C145.269668,108.249277 145.073399,108.566326 144.955135,108.885891 C144.746285,109.462115 144.902293,109.897428 145.362769,110.262286 C147.129185,111.668876 149.049092,112.796161 151.172817,113.576202 C153.555716,114.449345 156.019136,114.99789 158.527849,115.32752 C160.757256,115.619407 163.00931,115.652118 165.241234,115.506175 C167.754979,115.345134 170.253626,114.950081 172.699432,114.305918 C173.723551,114.036678 174.797994,113.923446 175.741592,113.389999 L175.741592,113.387483 Z" id="Path" fill="#51378D"></path>
                    <path d="M54.1357145,119.262953 C53.70795,119.225209 53.3053482,119.300697 52.8951976,119.434059 C50.9224487,120.075705 48.8993746,120.427982 46.8310078,120.654445 C44.2317098,120.938783 41.6399607,120.73245 39.0482115,120.810454 C38.331077,120.8331 37.6516864,120.561344 36.954682,120.430498 C34.0534327,119.884469 31.2402525,119.013843 28.4547512,118.067729 C25.5937621,117.093936 22.8787161,115.770382 20.2819344,114.215333 C18.641332,113.233991 16.9956971,112.260198 15.4003874,111.205884 C13.9963136,110.2799 12.5922398,109.338818 11.4246945,108.108366 C10.2395354,106.862817 8.88830306,105.773276 7.87928227,104.36417 C7.46409915,103.785429 7.06401359,103.189075 7.02626967,102.43923 C7.73585537,103.274628 8.46557116,104.097446 9.14496172,104.958007 C9.36890898,105.239828 9.58530745,105.529199 9.85454742,105.755662 C11.5605726,107.194964 13.201175,108.712269 15.1009523,109.920075 C19.3962104,112.650218 24.023615,114.514768 29.0007799,115.569081 C30.8124881,115.954069 32.6241963,116.198147 34.4686158,116.36422 C35.605966,116.467387 36.7382836,116.557972 37.8680849,116.502614 C40.8146269,116.361704 43.7259413,115.984264 46.5894467,115.22687 C50.2329931,114.263142 53.6148484,112.745836 56.8432117,110.815864 C57.9377853,110.161636 58.8637695,109.296042 59.9331806,108.621684 C60.0891888,108.52355 60.1999043,108.322249 60.4414654,108.39522 C60.5999898,108.56381 60.4565629,108.687107 60.3634613,108.807887 C58.0661147,111.777075 56.1839512,114.992857 54.7119383,118.447684 C54.5861252,118.742087 54.6289017,119.207595 54.1357145,119.260437 L54.1357145,119.262953 Z" id="Path" fill="#51378D"></path>
                    <path d="M170.802171,162.379091 C172.523294,162.472193 174.241901,162.371542 175.942893,162.167725 C179.193903,161.780221 182.349295,161.02031 185.38139,159.71437 C187.910232,158.627345 190.184933,157.183011 192.296076,155.446791 C192.47473,155.298332 192.640804,155.149872 192.887397,155.149872 C193.086182,155.187616 193.332775,155.242974 193.166702,155.507181 C192.391694,156.750214 191.563844,157.942922 190.381201,158.856325 C188.337997,160.434021 186.111105,161.714798 183.750852,162.731368 C181.521445,163.690063 179.236679,164.510364 176.828617,164.963291 C176.018381,165.116783 175.213178,165.043812 174.413006,165.17969 C173.426632,165.345763 172.437741,165.539515 171.431237,165.50932 C169.453455,165.44893 167.47819,165.582292 165.495376,165.350796 C163.854774,165.15956 162.24185,164.837478 160.613829,164.611015 C159.169495,164.409714 157.795617,163.903945 156.38651,163.546636 C153.482745,162.814404 150.634337,161.921131 147.984714,160.527123 C145.868538,159.412419 143.691972,158.405914 141.739353,156.974162 C140.201917,155.846877 138.478278,154.981283 136.981103,153.781026 C136.729477,153.577209 136.482883,153.358294 136.201062,153.204802 C134.419549,152.228493 132.917341,150.864679 131.483072,149.483252 C129.475095,147.550763 127.411761,145.671116 125.517016,143.612814 C123.873897,141.826268 122.120063,140.14289 120.590176,138.255694 C119.45031,136.849103 118.242505,135.495355 117.210837,133.995663 C116.755394,133.33137 116.169105,132.757662 115.635658,132.146211 C115.532491,132.030463 115.409194,131.90465 115.162601,132.050593 C115.258219,132.641914 115.484682,133.205557 115.84954,133.696228 C116.720166,134.866289 117.442333,136.134485 118.360769,137.271835 C119.374822,138.52745 120.205188,139.929007 121.402929,141.036162 C121.750173,141.355727 121.966571,141.750781 121.936376,142.243968 C120.502107,140.875122 119.259074,139.33517 118.056301,137.767539 C116.081036,135.19592 114.17371,132.573975 112.505429,129.788474 C111.974498,129.952031 111.803392,130.490511 111.38066,130.724523 C111.262396,130.641487 111.196973,130.51819 111.282526,130.394893 C111.390725,130.236369 111.514022,130.062747 111.672546,129.962096 C113.28547,128.950559 113.753494,127.181627 114.473145,125.613997 C115.245637,123.930618 115.532491,122.113877 115.743857,120.256876 C115.945158,118.482912 115.706113,116.781919 115.555137,115.045699 C115.472101,114.076938 115.152536,113.15347 115.087113,112.011088 C115.416743,112.416206 115.467068,112.750869 115.557654,113.060369 C116.3075,115.654634 117.31652,118.143217 118.431224,120.601604 C120.625404,125.435342 123.199539,130.050165 126.239183,134.400781 C127.872237,136.735872 129.568197,139.025669 131.475523,141.156943 C132.927406,142.777415 134.386837,144.385306 135.89911,145.947904 C136.218676,146.277535 136.555855,146.57697 136.991168,146.750592 C136.991168,146.750592 136.991168,146.750592 136.991168,146.750592 C137.179887,147.085255 137.444095,147.344429 137.773725,147.535665 C138.26188,148.303125 139.082181,148.700694 139.72886,149.289499 C139.804348,149.473187 139.935194,149.601516 140.118881,149.677004 C140.249726,149.744943 140.378056,149.810366 140.508901,149.878305 C140.677491,150.074573 140.818401,150.306069 141.017186,150.459561 C143.686939,152.515347 146.41205,154.505709 149.366141,156.136247 C153.155631,158.22726 157.136356,159.875411 161.335996,160.957403 C163.026924,161.392717 164.737982,161.732412 166.464137,161.984038 C167.900922,162.195404 169.367902,162.127465 170.802171,162.379091 L170.802171,162.379091 Z" id="Path" fill="#4D378D"></path>
                </g>
            </g>
        </g>
        <text id="CISO-Assistant" font-family="GothamBold, Gotham Bold" font-size="38" font-weight="bold" fill="#8A74BC">
            <tspan x="213" y="99">CISO</tspan>
            <tspan x="213" y="133">Assistant</tspan>
        </text>
    </g>
</svg>
