<?xml version="1.0" encoding="utf-8"?>
<!-- Generator: Adobe Illustrator 27.5.0, SVG Export Plug-In . SVG Version: 6.00 Build 0)  -->
<svg version="1.1" xmlns="http://www.w3.org/2000/svg" xmlns:xlink="http://www.w3.org/1999/xlink" x="0px" y="0px"
	 viewBox="0 0 500 500" style="enable-background:new 0 0 500 500;" xml:space="preserve">
<g id="Background_Simple">
	<g>
		<path style="fill:#C6FF00;" d="M342,387.016c0,0,48-3,81-62s27-149-14-199s-105-67-166-51
			c-29.722,7.796-49.541,28.016-66.669,52.388c-14.92,21.231-31.697,41.699-54.281,55.136
			c-22.362,13.304-45.348,23.916-56.64,49.202C37.929,293.278,58.012,364.878,123,389.016C193,415.016,310,401.016,342,387.016z"/>
		<path style="opacity:0.7;fill:#FFFFFF;" d="M342,387.016c0,0,48-3,81-62s27-149-14-199s-105-67-166-51
			c-29.722,7.796-49.541,28.016-66.669,52.388c-14.92,21.231-31.697,41.699-54.281,55.136
			c-22.362,13.304-45.348,23.916-56.64,49.202C37.929,293.278,58.012,364.878,123,389.016C193,415.016,310,401.016,342,387.016z"/>
	</g>
</g>
<g id="Ground">
	<g>
		<ellipse style="fill:#C6FF00;" cx="255.167" cy="416.016" rx="170.833" ry="15"/>
		<ellipse style="opacity:0.5;fill:#FFFFFF;" cx="255.167" cy="416.016" rx="170.833" ry="15"/>
	</g>
</g>
<g id="Graphics">
	<g>
		<g>
			
				<line style="fill:none;stroke:#263238;stroke-linecap:round;stroke-linejoin:round;stroke-miterlimit:10;" x1="80.97" y1="226.303" x2="80.97" y2="235.174"/>
			
				<line style="fill:none;stroke:#263238;stroke-linecap:round;stroke-linejoin:round;stroke-miterlimit:10;" x1="85.406" y1="230.738" x2="76.535" y2="230.738"/>
		</g>
		<g>
			
				<line style="fill:none;stroke:#263238;stroke-linecap:round;stroke-linejoin:round;stroke-miterlimit:10;" x1="383.637" y1="150.303" x2="383.637" y2="159.174"/>
			
				<line style="fill:none;stroke:#263238;stroke-linecap:round;stroke-linejoin:round;stroke-miterlimit:10;" x1="388.072" y1="154.738" x2="379.202" y2="154.738"/>
		</g>
		<g>
			
				<line style="fill:none;stroke:#263238;stroke-linecap:round;stroke-linejoin:round;stroke-miterlimit:10;" x1="257.637" y1="81.637" x2="257.637" y2="90.507"/>
			
				<line style="fill:none;stroke:#263238;stroke-linecap:round;stroke-linejoin:round;stroke-miterlimit:10;" x1="262.072" y1="86.072" x2="253.202" y2="86.072"/>
		</g>
		<g>
			
				<line style="fill:none;stroke:#263238;stroke-linecap:round;stroke-linejoin:round;stroke-miterlimit:10;" x1="111.637" y1="325.637" x2="111.637" y2="334.507"/>
			
				<line style="fill:none;stroke:#263238;stroke-linecap:round;stroke-linejoin:round;stroke-miterlimit:10;" x1="116.072" y1="330.072" x2="107.202" y2="330.072"/>
		</g>
		<path style="fill:none;stroke:#263238;stroke-linecap:round;stroke-linejoin:round;stroke-miterlimit:10;" d="M379.667,118.333
			c0,4.05-3.283,7.333-7.333,7.333c-4.05,0-7.333-3.283-7.333-7.333c0-4.05,3.283-7.333,7.333-7.333
			C376.383,111,379.667,114.283,379.667,118.333z"/>
		
			<ellipse transform="matrix(0.9239 -0.3827 0.3827 0.9239 -105.2899 46.0065)" style="fill:none;stroke:#263238;stroke-linecap:round;stroke-linejoin:round;stroke-miterlimit:10;" cx="63" cy="287.667" rx="7.333" ry="7.333"/>
		<path style="fill:none;stroke:#263238;stroke-linecap:round;stroke-linejoin:round;stroke-miterlimit:10;" d="M413,193.333
			c0,0.921-0.746,1.667-1.667,1.667c-0.92,0-1.667-0.746-1.667-1.667c0-0.92,0.746-1.667,1.667-1.667
			C412.254,191.667,413,192.413,413,193.333z"/>
		<path style="fill:none;stroke:#263238;stroke-linecap:round;stroke-linejoin:round;stroke-miterlimit:10;" d="M158.667,169.333
			c0,0.921-0.746,1.667-1.667,1.667s-1.667-0.746-1.667-1.667c0-0.92,0.746-1.667,1.667-1.667S158.667,168.413,158.667,169.333z"/>
	</g>
</g>
<g id="Plants">
	<path style="fill:#263238;" d="M438.925,267.671l0.034-0.046c0,0-0.022-0.002-0.057-0.006c-0.014-0.033-0.023-0.052-0.023-0.052
		l-0.034,0.047c-1.392-0.14-15.782-1.374-28.915,5.449c5.091-6.566,8.512-15.066,7.435-25.836
		c-3.169-31.693-33.08-49.841-35.383-51.194v-0.085c0,0-0.028,0.016-0.073,0.042c-0.045-0.026-0.073-0.042-0.073-0.042v0.085
		c-2.303,1.353-32.214,19.501-35.383,51.194c-0.691,6.915,0.474,12.893,2.742,18.026c-16.841-10.068-36.489-8.374-38.298-8.192
		l-0.042-0.057c0,0-0.011,0.025-0.029,0.065c-0.043,0.005-0.07,0.008-0.07,0.008l0.042,0.057
		c-0.888,2.051-12.13,29.074,1.376,52.044c12.077,20.539,37.407,15.11,44.283,13.181c5.784,6.073,16.319,19.888,20.977,43.474
		h-6.569l3.164,44.663h14.763l3.164-44.663h-7.725c4.548-19.855,12.13-34.745,18.856-44.918c6.889,1.713,25.533,4.613,34.721-11.014
		C448.767,291.262,439.645,269.336,438.925,267.671z M381.459,267.496l-15.601-21.668c-0.137-0.19-0.094-0.455,0.097-0.592
		c0.19-0.136,0.456-0.093,0.592,0.096l14.938,20.747v-21.949l-0.026,0.033l-15.601-21.668c-0.137-0.19-0.094-0.455,0.097-0.592
		c0.19-0.136,0.456-0.094,0.592,0.097l14.938,20.747v-31.953c0-0.234,0.19-0.424,0.424-0.424s0.424,0.19,0.424,0.424v30.889
		l16.201-20.547c0.146-0.184,0.412-0.215,0.596-0.07c0.184,0.145,0.216,0.412,0.071,0.596l-16.867,21.392v21.961l16.201-20.547
		c0.146-0.184,0.412-0.215,0.596-0.07c0.184,0.145,0.216,0.412,0.071,0.596l-16.867,21.392v18.568l16.201-20.547
		c0.146-0.184,0.412-0.215,0.596-0.07c0.184,0.145,0.216,0.412,0.071,0.596l-16.867,21.392v0.404h-1.382l-15.093-20.963
		c-0.137-0.19-0.094-0.455,0.097-0.592c0.19-0.136,0.456-0.093,0.592,0.097l14.938,20.747v-18.555L381.459,267.496z
		 M356.674,320.392l-1.538-2.104l-21.952-6.121c-0.189-0.053-0.299-0.248-0.247-0.437c0.053-0.188,0.248-0.298,0.437-0.247
		l21.085,5.879l-9.166-12.54l-21.952-6.121c-0.189-0.053-0.299-0.248-0.247-0.437c0.052-0.188,0.248-0.298,0.437-0.246l21.085,5.879
		l-10.842-14.832l-21.952-6.121c-0.189-0.053-0.299-0.248-0.246-0.437c0.052-0.188,0.248-0.299,0.437-0.247l21.085,5.879
		l-15.25-20.862c-0.116-0.158-0.081-0.38,0.077-0.496c0.158-0.116,0.38-0.081,0.496,0.077l15.775,21.581l-0.154-21.387
		c-0.002-0.196,0.156-0.356,0.352-0.357c0.196-0.002,0.356,0.156,0.357,0.352l0.161,22.336l-0.034-0.009l10.836,14.824
		l-0.154-21.387c-0.002-0.195,0.157-0.355,0.352-0.357c0.196-0.002,0.356,0.156,0.357,0.352l0.161,22.336l-0.034-0.009l9.16,12.532
		l-0.154-21.387c-0.001-0.195,0.157-0.355,0.352-0.358c0.196-0.001,0.356,0.156,0.357,0.352l0.161,22.336l-0.034-0.009l1.313,1.796
		H356.674z M359.169,320.392c3.206-4.868,12.441-20.865,6.925-36.252c5.544,3.679,10.827,5.928,13.683,7.003v69.434
		c-5.064-21.274-14.612-34.037-20.43-40.185H359.169z M383.171,356.302v-64.84c2.338-0.834,7.476-2.869,13.086-6.377
		c-8.807,14.119,1.058,30.426,3.659,34.273C394.113,328.194,387.769,340.418,383.171,356.302z M438.093,288.614l-17.812,4.967
		l-8.797,12.035l17.108-4.77c0.154-0.042,0.312,0.047,0.355,0.2c0.043,0.153-0.047,0.312-0.2,0.355l-17.812,4.967l-7.438,10.175
		l17.109-4.77c0.153-0.042,0.312,0.047,0.355,0.2c0.043,0.153-0.047,0.312-0.2,0.355l-17.812,4.967l-0.935,1.28
		c-0.169-0.098-0.338-0.196-0.496-0.298l0.535-0.732l-0.027,0.008l0.13-18.123c0.001-0.159,0.131-0.287,0.29-0.286
		c0.159,0.002,0.287,0.131,0.286,0.29l-0.125,17.354l7.433-10.168l-0.028,0.008l0.13-18.123c0.001-0.159,0.131-0.287,0.29-0.286
		c0.158,0.002,0.287,0.132,0.286,0.29l-0.125,17.354l8.792-12.028l-0.028,0.008l0.13-18.123c0.001-0.159,0.131-0.287,0.29-0.286
		c0.159,0.001,0.287,0.131,0.286,0.29l-0.125,17.353l12.8-17.511c0.094-0.128,0.274-0.156,0.402-0.063
		c0.128,0.094,0.156,0.274,0.063,0.402L420.83,292.83l17.108-4.77c0.154-0.042,0.312,0.047,0.355,0.2
		C438.336,288.413,438.247,288.572,438.093,288.614z"/>
</g>
<g id="Device_1_">
	<g>
		<path id="XMLID_6_" style="fill:#263238;stroke:#263238;stroke-linecap:round;stroke-linejoin:round;stroke-miterlimit:10;" d="
			M340.889,414.677H186.482c-3.726,0-6.747-3.021-6.747-6.747v-289.1c0-3.726,3.021-6.747,6.747-6.747h154.406
			c3.726,0,6.747,3.021,6.747,6.747v289.1C347.636,411.657,344.615,414.677,340.889,414.677z"/>
		<g>
			<defs>
				<path id="XMLID_5_" d="M335.566,414.677H181.16c-3.726,0-6.747-3.021-6.747-6.747v-289.1c0-3.726,3.021-6.747,6.747-6.747
					h154.406c3.726,0,6.747,3.021,6.747,6.747v289.1C342.313,411.657,339.292,414.677,335.566,414.677z"/>
			</defs>
			<use xlink:href="#XMLID_5_"  style="overflow:visible;fill:#FFFFFF;"/>
			<clipPath id="XMLID_00000124160480383587761960000013650218797931669660_">
				<use xlink:href="#XMLID_5_"  style="overflow:visible;"/>
			</clipPath>
			<path style="clip-path:url(#XMLID_00000124160480383587761960000013650218797931669660_);fill:#C6FF00;" d="M342.313,226.261
				L194.669,414.677h140.897c3.726,0,6.747-3.021,6.747-6.747V226.261z"/>
			<path style="opacity:0.5;clip-path:url(#XMLID_00000124160480383587761960000013650218797931669660_);fill:#FFFFFF;" d="
				M342.313,226.261L194.669,414.677h140.897c3.726,0,6.747-3.021,6.747-6.747V226.261z"/>
			
				<use xlink:href="#XMLID_5_"  style="overflow:visible;fill:none;stroke:#263238;stroke-linecap:round;stroke-linejoin:round;stroke-miterlimit:10;"/>
		</g>
		<path style="fill:#263238;stroke:#263238;stroke-linecap:round;stroke-linejoin:round;stroke-miterlimit:10;" d="M269.97,130.158
			h-20.902c-1.184,0-2.144-0.96-2.144-2.144l0,0c0-1.184,0.96-2.144,2.144-2.144h20.902c1.184,0,2.144,0.96,2.144,2.144l0,0
			C272.114,129.199,271.154,130.158,269.97,130.158z"/>
		<path id="XMLID_1_" style="fill:#263238;stroke:#263238;stroke-linecap:round;stroke-linejoin:round;stroke-miterlimit:10;" d="
			M331.703,387.63h-146.68V130.406h34.767l3.911,3.245c1.367,1.134,3.087,1.755,4.863,1.755h61.341c1.85,0,3.636-0.673,5.026-1.894
			l3.535-3.106h33.236V387.63z"/>
		<g>
			
				<line style="fill:none;stroke:#FFFFFF;stroke-linecap:round;stroke-linejoin:round;stroke-miterlimit:10;" x1="212.541" y1="332.171" x2="304.185" y2="332.171"/>
			
				<line style="fill:none;stroke:#FFFFFF;stroke-linecap:round;stroke-linejoin:round;stroke-miterlimit:10;" x1="212.541" y1="344.229" x2="304.185" y2="344.229"/>
			
				<line style="fill:none;stroke:#FFFFFF;stroke-linecap:round;stroke-linejoin:round;stroke-miterlimit:10;" x1="212.541" y1="356.288" x2="304.185" y2="356.288"/>
		</g>
		<g>
			<path style="fill:none;stroke:#FFFFFF;stroke-linecap:round;stroke-linejoin:round;stroke-miterlimit:10;" d="M221.033,220.204
				c-5.055,7.314-8.016,16.186-8.016,25.75c0,25.044,20.302,45.346,45.346,45.346c25.044,0,45.346-20.302,45.346-45.346
				c0-25.044-20.302-45.346-45.346-45.346c-2.832,0-5.602,0.26-8.29,0.756"/>
			<path style="fill:none;stroke:#FFFFFF;stroke-linecap:round;stroke-linejoin:round;stroke-miterlimit:10;" d="M228.733,211.626
				c-1.527,1.319-2.965,2.738-4.303,4.247"/>
			
				<ellipse transform="matrix(0.3918 -0.92 0.92 0.3918 -69.1569 387.2885)" style="fill:#C6FF00;" cx="258.363" cy="245.954" rx="38.476" ry="38.476"/>
			
				<polyline style="fill:none;stroke:#263238;stroke-width:6;stroke-linecap:round;stroke-linejoin:round;stroke-miterlimit:10;" points="
				240.591,241.974 255.186,258.558 279.068,224.726 			"/>
		</g>
		<path style="fill:#C6FF00;stroke:#263238;stroke-linecap:round;stroke-linejoin:round;stroke-miterlimit:10;" d="M294.931,133.512
			c-1.39,1.221-3.176,1.894-5.026,1.894h-61.341c-1.776,0-3.496-0.621-4.863-1.755l-3.911-3.245h-34.767v26.316h146.679v-26.316
			h-33.236L294.931,133.512z"/>
		<path style="fill:#263238;stroke:#263238;stroke-linecap:round;stroke-linejoin:round;stroke-miterlimit:10;" d="M263.048,395.557
			c0-1.841-1.492-3.333-3.333-3.333c-1.841,0-3.333,1.492-3.333,3.333c0,1.841,1.492,3.333,3.333,3.333
			C261.556,398.89,263.048,397.398,263.048,395.557z"/>
	</g>
</g>
<g id="Character_1_1_">
	<g>
		<path style="fill:#263238;stroke:#263238;stroke-linecap:round;stroke-linejoin:round;stroke-miterlimit:10;" d="M132.579,293.259
			l-13.08,116.992c0,0-9.589,8.341-8.75,11.713c0.839,3.372,11.915-1.971,13.441-4.78c1.526-2.809,2.3-7.287,2.3-7.287l27.544-87.97
			l21.177,94.372c0,0,9.054,7.393,14.047,7.14c4.993-0.254,3.225-2.212,0.372-5.823c-2.854-3.611-9.3-5.674-9.3-5.674
			l-3.176-121.629L132.579,293.259z"/>
		
			<rect x="132.562" y="289.362" transform="matrix(0.9987 -0.0507 0.0507 0.9987 -14.6363 8.2196)" style="fill:#263238;stroke:#263238;stroke-linecap:round;stroke-linejoin:round;stroke-miterlimit:10;" width="44" height="6"/>
		<path style="fill:#FFFFFF;" d="M159.698,292.054c0.076,1.486-1.82,2.79-4.235,2.912c-2.414,0.123-4.433-0.982-4.508-2.468
			c-0.076-1.486,1.82-2.79,4.235-2.912C157.604,289.463,159.623,290.568,159.698,292.054z"/>
		<polygon style="fill:#FFFFFF;stroke:#263238;stroke-linecap:round;stroke-linejoin:round;stroke-miterlimit:10;" points="
			152.173,230.571 135.648,235.415 137.702,290.632 176.453,289.665 171.551,232.59 		"/>
		<polygon style="fill:#C6FF00;stroke:#263238;stroke-linecap:round;stroke-linejoin:round;stroke-miterlimit:10;" points="
			144.945,231.188 142.724,325.422 121.68,315.227 130.932,285.469 124.624,235.225 		"/>
		<polygon style="fill:#C6FF00;stroke:#263238;stroke-linecap:round;stroke-linejoin:round;stroke-miterlimit:10;" points="
			161.674,230.338 173.434,323.862 193.337,311.586 181.117,282.919 182.299,232.294 		"/>
		<polygon style="fill:#263238;stroke:#263238;stroke-linecap:round;stroke-linejoin:round;stroke-miterlimit:10;" points="
			149.153,241.738 152.428,247.079 149.811,284.26 156.026,291.62 159.248,282.779 154.267,247.152 157.343,241.99 152.877,236.209 
					"/>
		<polygon style="fill:#FFFFFF;stroke:#263238;stroke-linecap:round;stroke-linejoin:round;stroke-miterlimit:10;" points="
			153.205,241.032 147.017,245.685 142.063,233.587 144.848,229.274 159.995,228.504 163.578,233.329 160.632,244.326 		"/>
		<polygon style="fill:#FFFFFF;stroke:#263238;stroke-linecap:round;stroke-linejoin:round;stroke-miterlimit:10;" points="
			146.113,224.62 147.505,232.31 153.205,241.032 158.44,230.753 158.111,224.261 		"/>
		<polygon style="fill:#C6FF00;stroke:#263238;stroke-linecap:round;stroke-linejoin:round;stroke-miterlimit:10;" points="
			124.624,235.225 96.561,269.192 115.206,291.275 122.717,286.387 113.501,267.581 127.264,257.619 		"/>
		<polygon style="fill:#FFFFFF;stroke:#263238;stroke-linecap:round;stroke-linejoin:round;stroke-miterlimit:10;" points="
			122.717,286.387 123.843,288.833 117.516,292.409 116.666,290.449 		"/>
		<path style="fill:#FFFFFF;stroke:#263238;stroke-linecap:round;stroke-linejoin:round;stroke-miterlimit:10;" d="M123.843,288.833
			l6.436,8.434l-2.12,2.611l-1.536-0.673l-3.119,2.662c0,0-2.285-0.635-2.573-1.371c-0.288-0.736-3.385-2.582-3.449-3.83
			c-0.063-1.248,0.034-4.257,0.034-4.257L123.843,288.833z"/>
		<path style="fill:#FFFFFF;stroke:#263238;stroke-linecap:round;stroke-linejoin:round;stroke-miterlimit:10;" d="M197.927,238.923
			c0,0,0.71-1.922,0.246-3.111c-0.464-1.189-1.482-5.313-1.282-6.67c0.2-1.357,2.254-3.347,2.434-5.107
			c0.18-1.76-0.036-3.365,0.05-4.313c0.087-0.947,1.262-1.681,2.263-0.519c1.002,1.161,1.601,2.343,1.125,3.58
			c-0.476,1.236-0.46,4.199-0.46,4.199s1.594,2.209,2.475,3.646c0.881,1.437,0.804,5.212,0.207,6.724
			c-0.597,1.512-2.275,2.944-2.275,2.944l0.096,2.608L197.927,238.923z"/>
		<path style="fill:#FFFFFF;stroke:#263238;stroke-linecap:round;stroke-linejoin:round;stroke-miterlimit:10;" d="M200.851,224.9
			c0,0-0.704,2.056,0.533,2.532c1.236,0.476,6.255,1.164,6.308-0.455c0.052-1.619,0.146-2.432-0.66-2.391
			c-0.806,0.041-4.581-0.037-4.581-0.037S200.696,224.504,200.851,224.9z"/>
		<path style="fill:#FFFFFF;stroke:#263238;stroke-linecap:round;stroke-linejoin:round;stroke-miterlimit:10;" d="M201.424,234.977
			c0,0-0.504,1.53,0.387,1.886c0.891,0.356,4.506,0.874,4.542-0.331c0.036-1.205,0.102-1.811-0.479-1.781
			c-0.58,0.029-3.299-0.033-3.299-0.033S201.312,234.682,201.424,234.977z"/>
		<path style="fill:#FFFFFF;stroke:#263238;stroke-linecap:round;stroke-linejoin:round;stroke-miterlimit:10;" d="M200.75,231.735
			c0,0-0.584,1.772,0.448,2.184c1.032,0.412,5.218,1.013,5.26-0.383c0.041-1.396,0.118-2.097-0.554-2.063
			c-0.672,0.034-3.821-0.038-3.821-0.038S200.621,231.393,200.75,231.735z"/>
		<path style="fill:#FFFFFF;stroke:#263238;stroke-linecap:round;stroke-linejoin:round;stroke-miterlimit:10;" d="M200.364,228.562
			c0,0-0.704,2.056,0.533,2.532c1.236,0.476,6.255,1.164,6.307-0.455c0.053-1.619,0.146-2.432-0.66-2.391
			c-0.806,0.041-4.582-0.037-4.582-0.037S200.209,228.166,200.364,228.562z"/>
		<polygon style="fill:#FFFFFF;stroke:#263238;stroke-linecap:round;stroke-linejoin:round;stroke-miterlimit:10;" points="
			197.357,240.972 198.141,237.834 203.558,241.061 202.654,244.475 		"/>
		<path style="fill:#C6FF00;stroke:#263238;stroke-linecap:round;stroke-linejoin:round;stroke-miterlimit:10;" d="M182.299,232.294
			l10.384,22.085l5.094-14.205l4.998,4.753l-5.117,26.349c-0.708,3.646-5.433,4.677-7.596,1.657l-8.289-11.574L182.299,232.294z"/>
		<g>
			<path style="fill:#FFFFFF;stroke:#263238;stroke-linecap:round;stroke-linejoin:round;stroke-miterlimit:10;" d="
				M141.279,215.636c0,0-2.095-2.235-2.372-0.6c-0.277,1.635,0.587,4.473,1.9,5.487c1.312,1.014,2.488-0.667,2.488-0.667
				L141.279,215.636z"/>
			<path style="fill:#FFFFFF;stroke:#263238;stroke-linecap:round;stroke-linejoin:round;stroke-miterlimit:10;" d="
				M161.127,214.628c0,0,1.858-2.436,2.299-0.837c0.441,1.599-0.131,4.51-1.334,5.651c-1.203,1.142-2.542-0.411-2.542-0.411
				L161.127,214.628z"/>
			<path style="fill:#263238;stroke:#263238;stroke-linecap:round;stroke-linejoin:round;stroke-miterlimit:10;" d="
				M142.116,217.935l-2.016-4.22c0,0-2.311-2.945-3.267-7.579c-0.956-4.634,0.649-8.498,2.75-9.686
				c2.101-1.187,3.925-0.74,3.925-0.74s0.402-2.722,6.949-5.036c6.547-2.314,13.781,1.821,13.675,3.268
				c-0.107,1.446-1.876,2.076-1.876,2.076s5.14,1.9,3.282,4.336s-4.327,3.462-4.327,3.462s0.648,2.128,0.91,3.736
				c0.262,1.608-1.188,8.526-1.188,8.526l-3.556-9.726l-11.138,0.566c0,0-0.661,4.716-1.836,6.397
				c-1.175,1.681-1.227,4.205-1.227,4.205S142.728,219.345,142.116,217.935z"/>
			<g>
				<path style="fill:#FFFFFF;stroke:#263238;stroke-linecap:round;stroke-linejoin:round;stroke-miterlimit:10;" d="
					M144.105,200.363c0,0-0.067,5.767-0.64,8.678c-0.573,2.911-2.314,4.08-2.314,4.08s1.416,6.592,3.215,10.103
					c1.799,3.511,5.548,6.382,9.311,6.011c3.763-0.371,6.787-4.668,7.144-8.288c0.356-3.62-1.406-17.039-1.406-17.039
					S147.631,205.947,144.105,200.363z"/>
				<path style="fill:none;stroke:#263238;stroke-linecap:round;stroke-linejoin:round;stroke-miterlimit:10;" d="M145.095,213.893
					c0,0,2.107-1.276,3.999-0.203"/>
				<path style="fill:none;stroke:#263238;stroke-linecap:round;stroke-linejoin:round;stroke-miterlimit:10;" d="M144.943,210.894
					c0,0,0.232-2.016,3.564-2.186"/>
				<path style="fill:none;stroke:#263238;stroke-linecap:round;stroke-linejoin:round;stroke-miterlimit:10;" d="M153.83,208.271
					c0,0,2.615-1.135,4.4,1.113"/>
				<path style="fill:none;stroke:#263238;stroke-linecap:round;stroke-linejoin:round;stroke-miterlimit:10;" d="M152.658,211.505
					c0,0,0.536,3.982,0.562,4.482c0.025,0.5,1.7,0.582,1.251,1.607c-0.449,1.025-1.898,2.101-3.106,1.327"/>
				<path style="fill:none;stroke:#263238;stroke-linecap:round;stroke-linejoin:round;stroke-miterlimit:10;" d="M154.541,222.267
					c0,0-1.274,1.234-3.832,0.195"/>
				<path style="fill:#263238;" d="M157.066,212.784c0.037,0.736-0.305,1.352-0.765,1.375c-0.46,0.023-0.863-0.555-0.901-1.291
					c-0.037-0.736,0.305-1.352,0.765-1.375C156.626,211.47,157.029,212.048,157.066,212.784z"/>
			</g>
		</g>
	</g>
</g>
</svg>
