<?xml version="1.0" encoding="utf-8"?>
<!-- Generator: Adobe Illustrator 27.5.0, SVG Export Plug-In . SVG Version: 6.00 Build 0)  -->
<svg version="1.1" xmlns="http://www.w3.org/2000/svg" xmlns:xlink="http://www.w3.org/1999/xlink" x="0px" y="0px"
	 viewBox="0 0 750 500" style="enable-background:new 0 0 750 500;" xml:space="preserve">
<g id="Background_Complete">
	<g>
		<g>
			<g>
				
					<ellipse transform="matrix(0.2884 -0.9575 0.9575 0.2884 385.8452 695.9027)" style="fill:#EBEBEB;" cx="661.127" cy="88.354" rx="18.404" ry="18.404"/>
			</g>
		</g>
		<g>
			<g>
				<g>
					<path style="fill:#E0E0E0;" d="M658.506,129.506c-0.107,0-0.194-3.399-0.194-7.591c0-4.193,0.087-7.591,0.194-7.591
						s0.194,3.398,0.194,7.591C658.7,126.107,658.613,129.506,658.506,129.506z"/>
				</g>
			</g>
		</g>
		<g>
			<g>
				<g>
					<path style="fill:#E0E0E0;" d="M647.901,110.044c0.093,0.054-1.638,3.225-3.866,7.082c-2.228,3.859-4.109,6.942-4.202,6.889
						c-0.093-0.053,1.638-3.224,3.866-7.082C645.927,113.075,647.808,109.99,647.901,110.044z"/>
				</g>
			</g>
		</g>
		<g>
			<g>
				<g>
					<path style="fill:#E0E0E0;" d="M637.016,103.267c0.067,0.084-1.858,1.724-4.298,3.664c-2.441,1.94-4.473,3.445-4.539,3.361
						c-0.066-0.084,1.858-1.724,4.299-3.664C634.917,104.688,636.95,103.183,637.016,103.267z"/>
				</g>
			</g>
		</g>
		<g>
			<g>
				<g>
					<path style="fill:#E0E0E0;" d="M676.866,122.027c-0.055,0.009-0.22-0.709-0.485-1.868c-0.265-1.159-0.64-2.756-1.11-4.505
						c-0.471-1.75-0.948-3.319-1.3-4.455c-0.352-1.135-0.57-1.839-0.517-1.859c0.048-0.018,0.357,0.653,0.776,1.77
						c0.42,1.117,0.941,2.683,1.415,4.442c0.472,1.759,0.807,3.375,1.004,4.552C676.847,121.283,676.916,122.019,676.866,122.027z"
						/>
				</g>
			</g>
		</g>
		<g>
			<g>
				<g>
					<path style="fill:#E0E0E0;" d="M695.533,108.781c-0.07,0.081-2.506-1.933-5.44-4.498c-2.935-2.565-5.255-4.709-5.185-4.79
						c0.07-0.081,2.505,1.933,5.44,4.498C693.282,106.556,695.603,108.701,695.533,108.781z"/>
				</g>
			</g>
		</g>
		<g>
			<g>
				<g>
					<path style="fill:#E0E0E0;" d="M702.683,90.579c-0.012,0.055-0.856-0.093-2.22-0.319c-1.363-0.227-3.249-0.519-5.341-0.76
						c-2.094-0.239-3.996-0.382-5.376-0.469c-1.379-0.088-2.235-0.135-2.234-0.192c0-0.05,0.857-0.1,2.245-0.082
						c1.387,0.018,3.304,0.118,5.409,0.358c2.104,0.242,3.994,0.579,5.349,0.876C701.87,90.287,702.694,90.53,702.683,90.579z"/>
				</g>
			</g>
		</g>
		<g>
			<g>
				<g>
					<path style="fill:#E0E0E0;" d="M702.706,72.679c0.025,0.104-3.959,1.164-8.898,2.367c-4.941,1.203-8.965,2.094-8.991,1.991
						c-0.025-0.104,3.958-1.163,8.899-2.367C698.655,73.466,702.68,72.575,702.706,72.679z"/>
				</g>
			</g>
		</g>
		<g>
			<g>
				<g>
					<path style="fill:#E0E0E0;" d="M681.909,51.823c0.089,0.059-1.817,3.1-4.257,6.791c-2.441,3.692-4.491,6.637-4.581,6.578
						c-0.089-0.059,1.816-3.099,4.258-6.792C679.769,54.71,681.82,51.764,681.909,51.823z"/>
				</g>
			</g>
		</g>
		<g>
			<g>
				<g>
					<path style="fill:#E0E0E0;" d="M661.271,47.467c0.055,0.003,0.049,0.968,0.027,2.527c-0.023,1.558-0.053,3.71-0.051,6.087
						c0.003,2.377,0.039,4.529,0.065,6.088c0.026,1.558,0.034,2.523-0.021,2.526c-0.052,0.003-0.157-0.958-0.253-2.516
						c-0.096-1.558-0.175-3.715-0.178-6.098c-0.002-2.382,0.072-4.539,0.164-6.097C661.116,48.425,661.219,47.464,661.271,47.467z"
						/>
				</g>
			</g>
		</g>
		<g>
			<g>
				<g>
					<path style="fill:#E0E0E0;" d="M645.642,66.932c-0.091,0.056-2.03-2.95-4.33-6.714c-2.3-3.764-4.091-6.86-3.999-6.916
						c0.091-0.056,2.029,2.95,4.33,6.714C643.943,63.78,645.733,66.876,645.642,66.932z"/>
				</g>
			</g>
		</g>
		<g>
			<g>
				<g>
					<path style="fill:#E0E0E0;" d="M636.305,74.867c-0.011,0.05-0.76-0.059-1.957-0.311c-1.197-0.251-2.839-0.653-4.629-1.18
						c-1.79-0.529-3.388-1.082-4.529-1.521c-1.142-0.438-1.83-0.753-1.812-0.801c0.02-0.052,0.741,0.172,1.903,0.543
						c1.161,0.371,2.765,0.881,4.548,1.408c1.783,0.525,3.406,0.967,4.583,1.285C635.589,74.609,636.317,74.813,636.305,74.867z"/>
				</g>
			</g>
		</g>
		<g>
			<g>
				<g>
					<path style="fill:#E0E0E0;" d="M632.227,89.006c0.01,0.107-2.62,0.447-5.873,0.759c-3.254,0.313-5.9,0.48-5.91,0.374
						c-0.01-0.106,2.619-0.446,5.873-0.759C629.57,89.067,632.216,88.9,632.227,89.006z"/>
				</g>
			</g>
		</g>
	</g>
	<g>
		<g>
			<path style="fill:#EBEBEB;" d="M223.138,83.356c0.688-4.995-6.361-9.103-11.658-9.53c-2.526-0.204-5.15,0.183-7.542-0.651
				c-5.184-1.807-7.255-8.505-12.314-10.639c-3.782-1.595-8.136-0.175-11.803,1.67c-3.666,1.845-7.29,4.168-11.386,4.43
				c-3.563,0.228-7.432-1.093-10.55,0.647c-2.323,1.297-3.54,3.974-5.681,5.553c-2.095,1.545-4.827,1.872-7.426,2.014
				c-2.599,0.141-5.29,0.168-7.656,1.251c-2.367,1.084-4.324,3.586-3.833,6.142L223.138,83.356z"/>
		</g>
	</g>
	<g>
		<g>
			<path style="fill:#F5F5F5;" d="M109.692,129.907c0.476-3.457-4.403-6.301-8.069-6.596c-1.748-0.141-3.564,0.126-5.22-0.451
				c-3.588-1.251-5.022-5.886-8.523-7.363c-2.618-1.104-5.631-0.121-8.169,1.156c-2.538,1.277-5.046,2.884-7.881,3.066
				c-2.466,0.158-5.144-0.757-7.302,0.448c-1.608,0.898-2.45,2.75-3.932,3.843c-1.45,1.069-3.341,1.296-5.14,1.394
				c-1.799,0.098-3.661,0.116-5.299,0.866c-1.638,0.75-2.993,2.482-2.653,4.251L109.692,129.907z"/>
		</g>
	</g>
	<g>
		<g>
			<path style="fill:#F5F5F5;" d="M557.919,83.034c0.476-3.457-4.403-6.301-8.069-6.596c-1.748-0.141-3.564,0.126-5.22-0.451
				c-3.588-1.251-5.022-5.886-8.523-7.363c-2.618-1.104-5.631-0.121-8.169,1.156c-2.538,1.277-5.045,2.884-7.881,3.066
				c-2.466,0.158-5.144-0.757-7.302,0.448c-1.608,0.898-2.45,2.75-3.932,3.843c-1.45,1.069-3.341,1.296-5.14,1.394
				s-3.661,0.116-5.299,0.866c-1.638,0.75-2.993,2.482-2.653,4.251L557.919,83.034z"/>
		</g>
	</g>
	<g>
		<g>
			<path style="fill:#EBEBEB;" d="M697.979,247.479c0.674-4.896-6.236-8.924-11.428-9.342c-2.476-0.2-5.048,0.179-7.394-0.639
				c-5.082-1.771-7.112-8.337-12.071-10.429c-3.707-1.564-7.976-0.172-11.57,1.637c-3.594,1.809-7.146,4.085-11.161,4.342
				c-3.493,0.223-7.286-1.072-10.341,0.635c-2.277,1.271-3.47,3.895-5.569,5.443c-2.053,1.514-4.732,1.835-7.279,1.974
				c-2.548,0.139-5.185,0.164-7.505,1.226c-2.32,1.062-4.239,3.515-3.758,6.021L697.979,247.479z"/>
		</g>
	</g>
	<g>
		<g>
			<rect x="138.217" y="151.071" style="fill:#F5F5F5;" width="440.884" height="53.491"/>
		</g>
		<g>
			<polygon style="fill:#F5F5F5;" points="569.776,177.816 569.776,131.526 595.268,154.671 620.761,177.816 595.268,200.961 
				569.776,224.106 			"/>
		</g>
	</g>
</g>
<g id="Background_Simple" style="display:none;">
	<g style="display:inline;">
		<path style="fill:#F5F5F5;" d="M503.368,72.153l-2.193,1.748c-18.484,14.739-27.743,38.285-23.299,61.285
			c0.571,2.957,1.356,5.873,2.359,8.721c7.221,20.504,25.52,36.801,46.916,41.783c12.583,2.93,26.57,2.403,37.192,9.666
			c13.824,9.451,16.622,28.153,18.225,44.705c1.603,16.552,4.452,35.259,18.317,44.651c8.684,5.882,20.057,6.645,30.431,4.748
			c27.467-5.021,49.72-27.468,58.863-53.554c9.143-26.086,6.539-55.082-2.313-81.21c-12.4-36.602-37.79-69.663-72.676-87.015
			C580.305,50.329,535.837,50.515,503.368,72.153z"/>
	</g>
	<g style="display:inline;">
		<circle style="fill:#F5F5F5;" cx="147.868" cy="162.219" r="90.667"/>
	</g>
</g>
<g id="Floor">
	<g>
		<g>
			<g>
				<polygon style="fill:#E0E0E0;" points="740.376,345.537 515.482,345.537 534.042,387.022 573.924,418.682 606.931,423.048 
					625.234,438.025 740.376,483.093 				"/>
			</g>
			<g>
				<g>
					<path style="fill:#263238;" d="M740.376,345.537c0,0,0.016,0.828,0.023,2.461c0.005,1.643,0.013,4.069,0.024,7.239
						c0.013,6.37,0.031,15.72,0.055,27.676c0.027,23.967,0.065,58.376,0.111,100.181l0,0.313l-0.292-0.114
						c-33.391-13.057-72.662-28.412-115.157-45.028l-0.038-0.015l-0.031-0.026c-5.784-4.732-12.009-9.823-18.305-14.974l0.13,0.056
						c-10.53-1.393-21.699-2.87-33.007-4.365l-0.071-0.009l-0.056-0.045c-0.38-0.302-0.794-0.63-1.207-0.958
						c-13.176-10.461-26.114-20.733-38.673-30.704l-0.049-0.039l-0.026-0.057c-6.394-14.3-12.6-28.179-18.551-41.488l-0.157-0.35
						l0.384,0c65.328,0.048,121.577,0.089,161.504,0.118c19.932,0.029,35.789,0.053,46.67,0.069
						c5.424,0.014,9.607,0.024,12.442,0.031c1.405,0.007,2.475,0.012,3.202,0.015C740.018,345.526,740.376,345.537,740.376,345.537
						s-0.379,0.01-1.106,0.015c-0.733,0.004-1.813,0.009-3.231,0.015c-2.847,0.007-7.047,0.018-12.493,0.031
						c-10.895,0.016-26.771,0.04-46.727,0.069c-39.885,0.029-96.076,0.07-161.336,0.118l0.227-0.35
						c5.956,13.307,12.167,27.183,18.567,41.481l-0.075-0.096c12.56,9.969,25.499,20.24,38.677,30.699
						c0.414,0.328,0.827,0.656,1.207,0.958l-0.128-0.054c11.308,1.497,22.477,2.975,33.007,4.368l0.073,0.01l0.057,0.047
						c6.295,5.152,12.519,10.246,18.301,14.979l-0.069-0.04c42.483,16.645,81.743,32.028,115.126,45.107l-0.291,0.199
						c0.046-41.749,0.085-76.112,0.111-100.047c0.024-11.977,0.042-21.343,0.055-27.724c0.011-3.187,0.019-5.627,0.024-7.279
						C740.36,346.396,740.376,345.537,740.376,345.537z"/>
				</g>
			</g>
		</g>
		<g style="opacity:0.3;">
			<polyline points="517.898,345.537 541.774,382.928 615.106,407.94 627.929,435.227 657.189,450.532 627.929,439.08 
				606.931,423.048 573.924,418.682 534.042,387.022 515.482,345.537 			"/>
			<polygon style="fill:#FFFFFF;" points="657.18,450.556 627.914,439.099 606.922,423.072 573.908,418.702 534.021,387.037 
				534.019,387.032 515.46,345.546 515.505,345.527 534.062,387.006 573.933,418.659 606.947,423.029 627.942,439.057 
				656.771,450.342 627.911,435.245 627.907,435.238 615.087,407.96 541.758,382.949 541.753,382.942 517.877,345.55 
				517.92,345.523 541.791,382.908 615.125,407.919 615.129,407.929 627.949,435.208 657.201,450.51 			"/>
		</g>
	</g>
	<g>
		<g>
			<polygon style="fill:#E0E0E0;" points="248.935,366.236 253.826,352.683 263.727,355.115 263.727,368.321 			"/>
		</g>
		<g>
			<g>
				<path style="fill:#263238;" d="M248.935,366.236c0.022-0.013,0.42,0.027,1.139,0.11c0.781,0.094,1.805,0.218,3.067,0.37
					c2.617,0.323,6.285,0.782,10.619,1.372l-0.267,0.232c-0.008-3.433-0.017-7.324-0.026-11.434c0-0.596,0-1.187,0.001-1.771
					l0.198,0.252c-3.561-0.885-6.916-1.72-9.894-2.46l0.273-0.146c-1.457,3.976-2.721,7.31-3.625,9.683
					c-0.438,1.141-0.794,2.067-1.065,2.775C249.101,365.867,248.956,366.223,248.935,366.236c-0.022,0.013,0.081-0.317,0.29-0.949
					c0.238-0.704,0.549-1.625,0.932-2.759c0.813-2.385,1.995-5.828,3.451-9.923l0.07-0.196l0.204,0.049
					c2.982,0.724,6.342,1.54,9.907,2.405l0.198,0.048v0.204c0,0.584,0,1.175,0.001,1.771c-0.009,4.11-0.018,8.001-0.026,11.434
					l-0.001,0.271l-0.267-0.039c-4.44-0.646-8.168-1.23-10.753-1.64c-1.23-0.199-2.229-0.36-2.99-0.483
					C249.268,366.315,248.913,366.249,248.935,366.236z"/>
			</g>
		</g>
	</g>
	<g>
		<g>
			<polygon style="fill:#E0E0E0;" points="238.972,385.324 244.401,381.288 245.711,388.723 240.152,388.723 			"/>
		</g>
		<g>
			<g>
				<path style="fill:#263238;" d="M238.972,385.324c0.035,0.011,0.182,0.345,0.418,0.924c0.236,0.581,0.562,1.402,0.938,2.414
					l-0.177-0.126c1.584-0.019,3.475-0.042,5.559-0.067l-0.25,0.298c-0.146-0.814-0.298-1.664-0.454-2.538
					c-0.299-1.747-0.582-3.404-0.839-4.9l0.373,0.148c-1.585,1.153-2.949,2.111-3.934,2.789
					C239.622,384.943,239.022,385.339,238.972,385.324c-0.05-0.015,0.457-0.443,1.383-1.186c0.926-0.742,2.276-1.803,3.905-3.039
					l0.304-0.231l0.069,0.379c0.271,1.495,0.571,3.148,0.887,4.892c0.152,0.874,0.3,1.725,0.441,2.54l0.053,0.302l-0.303-0.004
					c-2.084-0.025-3.975-0.048-5.559-0.067l-0.137-0.002l-0.04-0.124c-0.354-1.093-0.619-1.971-0.789-2.564
					C239.015,385.627,238.937,385.313,238.972,385.324z"/>
			</g>
		</g>
	</g>
	<g>
		<g>
			<polygon style="fill:#E0E0E0;" points="256.331,382.742 260.125,378.767 261.482,382.227 259.442,384.549 			"/>
		</g>
		<g>
			<g>
				<path style="fill:#263238;" d="M256.331,382.742c0.086,0.005,1.418,0.643,3.221,1.618l-0.272,0.044
					c0.619-0.723,1.294-1.512,2.01-2.348l-0.046,0.263c-0.15-0.378-0.305-0.772-0.464-1.173c-0.309-0.799-0.605-1.568-0.884-2.29
					l0.409,0.081C258.161,381.113,256.438,382.703,256.331,382.742c-0.107,0.039,1.343-1.695,3.615-4.146l0.264-0.285l0.146,0.365
					c0.286,0.72,0.591,1.485,0.908,2.281c0.156,0.402,0.31,0.796,0.457,1.175l0.058,0.148l-0.104,0.115
					c-0.737,0.817-1.432,1.589-2.069,2.296l-0.123,0.137l-0.15-0.092C257.373,383.528,256.245,382.737,256.331,382.742z"/>
			</g>
		</g>
	</g>
	<g>
		<g>
			<g>
				<polygon style="fill:#E0E0E0;" points="14.079,345.537 238.972,345.537 220.413,387.022 180.531,418.682 147.524,423.048 
					129.22,438.025 14.079,483.093 				"/>
			</g>
			<g>
				<g>
					<path style="fill:#263238;" d="M14.079,345.537c0,0,0.015,0.859,0.023,2.506c0.005,1.652,0.014,4.092,0.024,7.279
						c0.013,6.381,0.031,15.747,0.055,27.724c0.027,23.935,0.065,58.298,0.111,100.047l-0.291-0.199
						c33.382-13.079,72.643-28.462,115.126-45.107l-0.069,0.04c5.783-4.733,12.006-9.826,18.301-14.979l0.057-0.047l0.073-0.01
						c10.53-1.394,21.698-2.872,33.007-4.368l-0.128,0.054c0.38-0.302,0.794-0.63,1.207-0.958
						c13.178-10.459,26.117-20.73,38.677-30.699l-0.075,0.096c6.4-14.298,12.611-28.174,18.567-41.481l0.227,0.35
						c-65.26-0.048-121.451-0.089-161.336-0.118c-19.957-0.029-35.832-0.053-46.727-0.069c-5.447-0.014-9.646-0.024-12.493-0.031
						c-1.418-0.007-2.497-0.012-3.231-0.015C14.458,345.547,14.079,345.537,14.079,345.537s0.358-0.01,1.076-0.015
						c0.727-0.004,1.796-0.009,3.201-0.015c2.835-0.007,7.018-0.018,12.442-0.031c10.882-0.016,26.738-0.039,46.67-0.069
						c39.927-0.029,96.176-0.07,161.504-0.118l0.384,0l-0.157,0.35c-5.951,13.31-12.157,27.188-18.551,41.488l-0.026,0.057
						l-0.049,0.039c-12.559,9.97-25.497,20.243-38.673,30.704c-0.414,0.328-0.827,0.656-1.207,0.958l-0.057,0.045l-0.071,0.009
						c-11.309,1.496-22.477,2.973-33.007,4.365l0.13-0.056c-6.296,5.151-12.521,10.243-18.305,14.974l-0.031,0.026l-0.038,0.015
						c-42.494,16.616-81.765,31.972-115.157,45.028l-0.292,0.114l0-0.313c0.046-41.805,0.085-76.214,0.111-100.181
						c0.024-11.957,0.042-21.307,0.055-27.676c0.011-3.17,0.019-5.596,0.024-7.239C14.064,346.365,14.079,345.537,14.079,345.537z"
						/>
				</g>
			</g>
		</g>
		<g style="opacity:0.3;">
			<polyline points="236.471,345.29 212.595,382.681 139.263,407.694 126.44,434.98 97.18,450.286 129.579,437.604 147.438,422.802 
				180.445,418.435 220.327,386.775 238.887,345.29 			"/>
			<polygon style="fill:#FFFFFF;" points="97.19,450.309 97.169,450.263 126.421,434.961 139.245,407.673 139.255,407.67 
				212.579,382.66 236.45,345.277 236.492,345.304 212.611,382.702 212.604,382.704 139.281,407.714 126.459,434.998 
				126.452,435.002 97.598,450.095 129.566,437.583 147.428,422.779 147.435,422.778 180.435,418.411 220.307,386.76 
				238.863,345.281 238.909,345.3 220.343,386.795 180.455,418.458 180.448,418.459 147.448,422.826 129.589,437.628 			"/>
		</g>
	</g>
</g>
<g id="Lines">
	<g>
		<g>
			<path style="fill:#263238;" d="M373.649,439.884c-0.144,0-0.26-16.336-0.26-36.484c0-20.154,0.117-36.487,0.26-36.487
				s0.26,16.333,0.26,36.487C373.909,423.547,373.793,439.884,373.649,439.884z"/>
		</g>
	</g>
	<g>
		<g>
			<path style="fill:#263238;" d="M383.031,440.926c-0.144,0-0.26-20.07-0.26-44.823c0-24.761,0.117-44.827,0.26-44.827
				c0.144,0,0.26,20.066,0.26,44.827C383.291,420.856,383.174,440.926,383.031,440.926z"/>
		</g>
	</g>
	<g>
		<g>
			<g>
				<path style="fill:#263238;" d="M408.794,281.342c0,0-0.324-0.039-0.952-0.142c-0.64-0.108-1.569-0.264-2.783-0.468
					c-2.456-0.424-6.055-1.046-10.687-1.847c-2.341-0.26-4.943-0.549-7.789-0.865c-1.424-0.158-2.909-0.324-4.453-0.495
					c-0.772-0.086-1.559-0.174-2.361-0.263c-0.806-0.04-1.626-0.081-2.461-0.123c-3.34-0.168-6.911-0.347-10.698-0.537
					c-0.473-0.024-0.95-0.048-1.43-0.072c-0.481,0.004-0.965,0.008-1.452,0.012c-0.975,0.009-1.963,0.019-2.964,0.029
					c-2.002,0.019-4.056,0.038-6.16,0.059c-16.812,0.391-36.864,2.599-58.409,8.219c-1.347,0.347-2.718,0.635-4.067,1.036
					c-1.345,0.415-2.699,0.832-4.06,1.251c-2.723,0.839-5.476,1.687-8.259,2.545c-1.404,0.39-2.751,0.976-4.137,1.467
					c-1.379,0.513-2.764,1.029-4.157,1.547c-1.392,0.518-2.791,1.039-4.197,1.562l-2.113,0.786c-0.702,0.272-1.384,0.598-2.08,0.896
					c-2.771,1.218-5.566,2.446-8.385,3.685l-2.118,0.931c-0.713,0.299-1.414,0.626-2.098,0.993c-1.381,0.706-2.768,1.414-4.16,2.126
					c-2.776,1.436-5.604,2.824-8.394,4.327c-2.733,1.606-5.483,3.223-8.25,4.849c-14.433,8.731-27.469,18.689-38.732,28.932
					l-0.205,0.186l-0.167-0.22c-6.001-7.889-12.858-14.702-20.152-20.274c-7.269-5.612-14.906-10.053-22.45-13.513
					c-15.133-6.916-29.812-9.807-41.989-10.572c-12.227-0.762-21.984,0.594-28.533,1.887c-1.649,0.294-3.085,0.664-4.335,0.955
					c-1.253,0.278-2.296,0.567-3.135,0.808c-0.834,0.229-1.47,0.404-1.913,0.526c-0.431,0.116-0.654,0.164-0.654,0.164
					s0.214-0.077,0.641-0.207c0.44-0.131,1.073-0.32,1.902-0.568c0.836-0.255,1.877-0.558,3.128-0.85
					c1.247-0.305,2.683-0.689,4.332-0.997c6.548-1.348,16.323-2.757,28.586-2.037c12.214,0.724,26.948,3.584,42.15,10.497
					c7.578,3.459,15.252,7.904,22.559,13.531c7.332,5.587,14.228,12.424,20.265,20.348l-0.371-0.033
					c11.279-10.274,24.341-20.259,38.804-29.008c2.773-1.63,5.53-3.25,8.268-4.859c2.796-1.505,5.63-2.896,8.412-4.334
					c1.395-0.712,2.785-1.422,4.169-2.128c0.686-0.368,1.389-0.695,2.103-0.995l2.123-0.932c2.824-1.24,5.626-2.469,8.404-3.688
					c0.697-0.298,1.381-0.624,2.085-0.896l2.118-0.787c1.409-0.523,2.811-1.044,4.206-1.562c1.396-0.518,2.784-1.034,4.166-1.547
					c1.389-0.491,2.738-1.077,4.146-1.467c2.789-0.856,5.549-1.704,8.277-2.542c1.364-0.419,2.721-0.835,4.069-1.249
					c1.352-0.401,2.727-0.688,4.076-1.034c21.592-5.604,41.685-7.778,58.522-8.122c2.107-0.014,4.164-0.027,6.169-0.04
					c1.002-0.006,1.992-0.013,2.968-0.019c0.488-0.002,0.973-0.005,1.454-0.007c0.481,0.026,0.958,0.052,1.432,0.077
					c3.791,0.205,7.366,0.397,10.71,0.578c0.836,0.045,1.657,0.09,2.463,0.134c0.802,0.093,1.59,0.184,2.363,0.274
					c1.545,0.18,3.031,0.352,4.456,0.518c2.847,0.333,5.449,0.637,7.791,0.911c4.628,0.843,8.224,1.497,10.678,1.944
					c1.21,0.226,2.136,0.399,2.774,0.518C408.477,281.268,408.794,281.342,408.794,281.342z"/>
			</g>
		</g>
		<g>
			<g>
				<path style="fill:#263238;" d="M189.236,316.814c-0.113,0.089-2.675-2.96-5.723-6.809c-3.049-3.851-5.428-7.044-5.315-7.133
					c0.113-0.089,2.675,2.959,5.723,6.81C186.969,313.531,189.349,316.724,189.236,316.814z"/>
			</g>
		</g>
		<g>
			<g>
				<path style="fill:#263238;" d="M516.455,319.685c-0.011,0.014-0.17-0.083-0.463-0.282c-0.338-0.237-0.756-0.531-1.266-0.889
					c-1.086-0.789-2.686-1.892-4.692-3.207c-2.001-1.323-4.442-2.807-7.204-4.362c-2.775-1.531-5.879-3.12-9.214-4.622
					c-3.345-1.484-6.599-2.738-9.591-3.785c-3.001-1.021-5.735-1.851-8.055-2.46c-2.317-0.618-4.206-1.075-5.518-1.358
					c-0.607-0.141-1.105-0.257-1.507-0.351c-0.344-0.086-0.523-0.139-0.519-0.157c0.003-0.018,0.189,0.001,0.539,0.054
					c0.407,0.068,0.912,0.152,1.528,0.255c1.327,0.222,3.233,0.626,5.57,1.2c2.34,0.566,5.096,1.361,8.118,2.362
					c3.014,1.026,6.289,2.273,9.649,3.764c3.351,1.509,6.463,3.118,9.237,4.679c2.761,1.585,5.192,3.108,7.173,4.474
					c1.986,1.359,3.558,2.51,4.608,3.351c0.487,0.39,0.887,0.71,1.209,0.968C516.328,319.546,516.466,319.671,516.455,319.685z"/>
			</g>
		</g>
	</g>
	<g>
		<g>
			<path style="fill:#263238;" d="M192.953,315.98c-0.144,0-0.26-4.433-0.26-9.9c0-5.469,0.117-9.901,0.26-9.901
				c0.144,0,0.26,4.432,0.26,9.901C193.213,311.547,193.097,315.98,192.953,315.98z"/>
		</g>
	</g>
</g>
<g id="Plants">
	<g>
		<g>
			<g>
				<path style="fill:#263238;" d="M73.414,326.998c0.063-0.025,0.537,0.968,1.182,2.625c0.646,1.656,1.446,3.981,2.165,6.598
					c0.717,2.618,1.215,5.027,1.505,6.78c0.29,1.754,0.389,2.85,0.322,2.86c-0.075,0.012-0.303-1.062-0.684-2.79
					c-0.38-1.729-0.933-4.11-1.645-6.713c-0.715-2.602-1.455-4.93-2.009-6.611C73.696,328.066,73.343,327.026,73.414,326.998z"/>
			</g>
		</g>
		<g>
			<g>
				<path style="fill:#263238;" d="M85.915,322.85c0.077,0.011-0.047,1.281-0.206,3.333c-0.16,2.052-0.33,4.89-0.36,8.028
					c-0.027,3.139,0.091,5.98,0.214,8.035c0.121,2.055,0.222,3.327,0.145,3.336c-0.036,0.004-0.105-0.309-0.199-0.879
					c-0.097-0.57-0.205-1.399-0.313-2.427c-0.217-2.055-0.394-4.911-0.367-8.069c0.03-3.156,0.26-6.008,0.514-8.06
					c0.126-1.026,0.25-1.853,0.357-2.422C85.805,323.157,85.879,322.845,85.915,322.85z"/>
			</g>
		</g>
		<g>
			<g>
				<path style="fill:#263238;" d="M100.505,324.85c0.066,0.052-0.698,1.081-1.808,2.82c-1.112,1.737-2.528,4.216-3.775,7.102
					c-1.242,2.89-2.07,5.622-2.569,7.623c-0.502,2.001-0.725,3.264-0.808,3.251c-0.036-0.005-0.017-0.327,0.048-0.904
					c0.06-0.579,0.194-1.41,0.401-2.429c0.411-2.038,1.193-4.822,2.45-7.747c1.262-2.921,2.748-5.401,3.947-7.1
					c0.599-0.851,1.111-1.519,1.49-1.96C100.256,325.062,100.477,324.828,100.505,324.85z"/>
			</g>
		</g>
	</g>
	<g>
		<g>
			<path style="fill:#263238;" d="M534.328,325.017c0.026-0.024,0.269,0.195,0.685,0.613c0.419,0.415,0.995,1.046,1.68,1.848
				c1.371,1.603,3.132,3.94,4.785,6.708c1.649,2.772,2.868,5.433,3.626,7.401c0.38,0.984,0.66,1.79,0.827,2.356
				c0.17,0.565,0.247,0.882,0.214,0.894c-0.077,0.027-0.539-1.19-1.38-3.109c-0.84-1.92-2.099-4.529-3.733-7.275
				c-1.638-2.742-3.334-5.09-4.623-6.742C535.119,326.056,534.268,325.072,534.328,325.017z"/>
		</g>
	</g>
	<g>
		<g>
			<path style="fill:#263238;" d="M550.627,323.855c0.078,0.009-0.011,1.239-0.104,3.225c-0.095,1.986-0.167,4.732-0.075,7.761
				c0.096,3.031,0.339,5.766,0.557,7.743c0.217,1.977,0.382,3.199,0.305,3.212c-0.064,0.012-0.358-1.19-0.67-3.164
				c-0.313-1.973-0.616-4.724-0.713-7.775c-0.093-3.05,0.039-5.814,0.228-7.803C550.344,325.065,550.562,323.847,550.627,323.855z"
				/>
		</g>
	</g>
	<g>
		<g>
			<path style="fill:#263238;" d="M562.329,330.584c0.134,0.105-2.332,2.88-4.246,6.974c-1.949,4.078-2.529,7.744-2.695,7.707
				c-0.062-0.009,0.003-0.935,0.321-2.4c0.316-1.463,0.926-3.456,1.904-5.53c0.982-2.071,2.135-3.807,3.065-4.98
				C561.608,331.18,562.283,330.543,562.329,330.584z"/>
		</g>
	</g>
	<g>
		<g>
			<path style="fill:#263238;" d="M692.341,325.017c0.027-0.024,0.269,0.195,0.685,0.613c0.419,0.415,0.995,1.046,1.68,1.848
				c1.371,1.603,3.132,3.94,4.785,6.708c1.649,2.772,2.868,5.433,3.626,7.401c0.38,0.984,0.661,1.79,0.827,2.356
				c0.17,0.565,0.248,0.882,0.214,0.894c-0.077,0.027-0.538-1.19-1.38-3.109c-0.84-1.92-2.099-4.529-3.733-7.275
				c-1.638-2.742-3.334-5.09-4.623-6.742C693.132,326.056,692.281,325.072,692.341,325.017z"/>
		</g>
	</g>
	<g>
		<g>
			<path style="fill:#263238;" d="M708.64,323.855c0.078,0.009-0.011,1.239-0.104,3.225c-0.095,1.986-0.167,4.732-0.075,7.761
				c0.096,3.031,0.339,5.766,0.557,7.743c0.217,1.977,0.382,3.199,0.305,3.212c-0.064,0.012-0.358-1.19-0.67-3.164
				c-0.313-1.973-0.616-4.724-0.713-7.775c-0.093-3.05,0.038-5.814,0.228-7.803C708.357,325.065,708.575,323.847,708.64,323.855z"/>
		</g>
	</g>
	<g>
		<g>
			<path style="fill:#263238;" d="M720.342,330.584c0.134,0.105-2.332,2.88-4.245,6.974c-1.95,4.078-2.529,7.744-2.695,7.707
				c-0.062-0.009,0.003-0.935,0.321-2.4c0.316-1.463,0.926-3.456,1.904-5.53c0.982-2.071,2.135-3.807,3.065-4.98
				C719.621,331.18,720.296,330.543,720.342,330.584z"/>
		</g>
	</g>
	<g>
		<g>
			<g>
				<g>
					<path style="fill:#FF725E;" d="M635.147,302.99c1.985,0.861,3.444,2.696,4.177,4.732c0.732,2.036,0.799,4.26,0.555,6.409
						c-0.471,4.159-2.835,8.358-5.38,11.682c-3.503-3.057-4.308-8.389-4.547-11.12C629.575,310.377,631.514,302.347,635.147,302.99"
						/>
				</g>
			</g>
		</g>
		<g>
			<g>
				<g>
					<path style="fill:#FF725E;" d="M638.571,332.678c-0.561-2.351,0.417-4.93,2.222-6.537c1.804-1.608,4.326-2.288,6.735-2.104
						c1.114,0.085,2.318,0.41,2.956,1.328c0.596,0.858,0.53,2.055,0.046,2.98c-0.484,0.926-1.322,1.618-2.206,2.173
						C645.289,332.422,642.003,333.708,638.571,332.678"/>
				</g>
			</g>
		</g>
		<g>
			<g>
				<g>
					<g>
						<path style="fill:#263238;" d="M634.079,345.431c-0.021-0.005,0.027-0.308,0.125-0.854c0.11-0.601,0.253-1.377,0.424-2.31
							c0.387-1.93,0.884-4.695,2.384-7.379c1.48-2.677,3.551-4.649,5.296-5.627c0.866-0.501,1.624-0.8,2.159-0.955
							c0.264-0.089,0.48-0.123,0.622-0.158c0.143-0.03,0.22-0.041,0.222-0.031c0.025,0.068-1.213,0.291-2.893,1.328
							c-1.684,1.007-3.686,2.959-5.141,5.591c-1.471,2.628-1.999,5.355-2.439,7.275c-0.212,0.968-0.384,1.752-0.518,2.291
							C634.186,345.141,634.099,345.436,634.079,345.431z"/>
					</g>
				</g>
			</g>
		</g>
		<g>
			<g>
				<g>
					<g>
						<path style="fill:#263238;" d="M634.211,309.236c0.01,0,0.025,0.128,0.043,0.373c0.016,0.277,0.037,0.632,0.063,1.072
							c0.05,0.931,0.105,2.279,0.158,3.946c0.108,3.333,0.193,7.939,0.171,13.027c-0.023,5.09-0.147,9.696-0.284,13.028
							c-0.068,1.666-0.134,3.013-0.192,3.944c-0.03,0.439-0.054,0.795-0.073,1.071c-0.02,0.245-0.036,0.373-0.046,0.373
							c-0.01,0-0.015-0.13-0.015-0.375c0.004-0.277,0.009-0.633,0.016-1.074c0.023-0.97,0.056-2.308,0.096-3.946
							c0.082-3.332,0.172-7.936,0.195-13.022c0.021-5.085-0.029-9.688-0.082-13.021c-0.026-1.638-0.047-2.977-0.062-3.947
							c-0.003-0.441-0.005-0.797-0.007-1.074C634.195,309.365,634.201,309.236,634.211,309.236z"/>
					</g>
				</g>
			</g>
		</g>
		<g>
			<g>
				<g>
					<path style="fill:#FF725E;" d="M632.511,335.21c-0.797-5.033-4.189-9.582-8.784-11.784c-1.17-0.561-2.699-0.927-3.661-0.056
						c-0.964,0.872-0.748,2.437-0.276,3.648c1.962,5.039,7.231,8.597,12.638,8.534"/>
				</g>
			</g>
		</g>
		<g>
			<g>
				<g>
					<g>
						<path style="fill:#263238;" d="M624.295,327.371c0.009-0.019,0.272,0.097,0.743,0.324c0.236,0.112,0.525,0.25,0.84,0.448
							c0.315,0.197,0.695,0.388,1.069,0.671c0.382,0.27,0.808,0.557,1.223,0.921c0.436,0.339,0.859,0.749,1.302,1.183
							c0.863,0.889,1.732,1.951,2.474,3.178c0.731,1.234,1.26,2.501,1.63,3.684c0.167,0.598,0.327,1.165,0.412,1.711
							c0.118,0.539,0.162,1.052,0.21,1.517c0.065,0.464,0.043,0.89,0.058,1.261c0.017,0.371-0.007,0.691-0.028,0.951
							c-0.038,0.521-0.069,0.807-0.09,0.806c-0.069-0.003,0.051-1.157-0.153-2.996c-0.061-0.458-0.116-0.962-0.243-1.49
							c-0.094-0.536-0.261-1.091-0.432-1.677c-0.378-1.159-0.905-2.399-1.623-3.611c-0.729-1.205-1.576-2.253-2.413-3.139
							c-0.431-0.432-0.841-0.843-1.264-1.185c-0.402-0.367-0.815-0.66-1.185-0.938C625.319,327.91,624.264,327.43,624.295,327.371z"
							/>
					</g>
				</g>
			</g>
		</g>
	</g>
</g>
<g id="Speech_Bubble">
	<g>
		<g>
			<g>
				<g>
					<g>
						<g>
							<g>
								<path style="fill:#FFFFFF;" d="M366.144,78.655l-2.914-5.935c1.309-3.568,1.68-7.53,0.868-11.528
									c-2.335-11.497-13.548-18.924-25.045-16.59c-11.497,2.335-18.924,13.548-16.589,25.046
									c2.335,11.497,13.548,18.924,25.046,16.589c4.801-0.975,8.888-3.502,11.855-6.947l-0.005,0.011L366.144,78.655z"/>
							</g>
						</g>
						<g>
							<g>
								<g>
									<path style="fill:#263238;" d="M366.144,78.655c0,0-0.136,0.021-0.422,0.052c-0.302,0.033-0.729,0.079-1.285,0.139
										c-1.163,0.121-2.863,0.298-5.071,0.528c-0.04,0.004-0.077-0.025-0.081-0.066c-0.001-0.014,0.002-0.029,0.007-0.041
										l0.005-0.011l0.123,0.081c-1.774,2.075-4.552,4.509-8.539,6.04c-0.991,0.384-2.053,0.701-3.172,0.94
										c-1.128,0.183-2.295,0.418-3.521,0.432c-2.439,0.114-5.061-0.189-7.653-1.051c-2.59-0.856-5.145-2.27-7.382-4.238
										c-2.237-1.962-4.151-4.481-5.449-7.398c-1.317-2.909-1.935-6.229-1.795-9.589c0.146-3.357,1.073-6.782,2.871-9.797
										l0.68-1.131l0.777-1.059l0.387-0.528l0.432-0.489l0.866-0.971c0.299-0.312,0.629-0.592,0.941-0.888
										c0.322-0.285,0.616-0.602,0.97-0.846c0.687-0.511,1.34-1.062,2.082-1.475c2.871-1.797,6.09-2.858,9.281-3.182
										c3.198-0.302,6.349,0.136,9.166,1.136c2.823,0.998,5.311,2.548,7.329,4.397c2.024,1.85,3.575,3.996,4.669,6.186
										c0.576,1.085,0.955,2.215,1.335,3.296c0.276,1.113,0.59,2.177,0.719,3.235c0.602,4.232-0.165,7.841-1.116,10.383
										l-0.003-0.057c0.931,1.939,1.648,3.434,2.139,4.458c0.233,0.49,0.411,0.867,0.538,1.133
										C366.091,78.532,366.144,78.655,366.144,78.655s-0.075-0.136-0.206-0.393c-0.136-0.268-0.327-0.646-0.576-1.137
										c-0.504-1.004-1.241-2.471-2.197-4.373c-0.009-0.018-0.009-0.04-0.003-0.058c0.917-2.535,1.648-6.117,1.028-10.3
										c-0.133-1.046-0.451-2.097-0.728-3.196c-0.381-1.067-0.76-2.181-1.334-3.251c-1.09-2.158-2.629-4.27-4.631-6.088
										c-1.997-1.818-4.455-3.339-7.238-4.316c-2.778-0.979-5.881-1.404-9.029-1.102c-3.142,0.324-6.309,1.371-9.132,3.142
										c-0.73,0.406-1.372,0.949-2.048,1.452c-0.348,0.24-0.637,0.552-0.953,0.833c-0.307,0.292-0.632,0.567-0.926,0.874
										l-0.852,0.956l-0.425,0.481l-0.381,0.519l-0.764,1.042l-0.669,1.113c-1.77,2.966-2.682,6.335-2.829,9.637
										c-0.141,3.304,0.463,6.575,1.756,9.44c1.274,2.874,3.153,5.358,5.353,7.296c2.2,1.944,4.715,3.345,7.266,4.197
										c2.554,0.858,5.14,1.167,7.549,1.065c1.211-0.009,2.365-0.236,3.481-0.411c1.108-0.23,2.16-0.539,3.142-0.912
										c3.953-1.492,6.724-3.882,8.508-5.923c0.026-0.031,0.073-0.035,0.104-0.008c0.026,0.022,0.032,0.06,0.018,0.089
										l-0.005,0.011l-0.073-0.106c2.189-0.188,3.875-0.334,5.028-0.433c0.566-0.047,1.001-0.083,1.309-0.108
										C365.984,78.663,366.144,78.655,366.144,78.655z"/>
								</g>
							</g>
						</g>
					</g>
				</g>
			</g>
		</g>
		<g>
			<g>
				<g>
					<g>
						<g>
							<g>
								<g>
									<polygon style="fill:#FF725E;" points="333.455,66.811 336.204,64.062 341.507,68.775 351.915,58.759 354.468,61.509 
										341.114,74.077 									"/>
								</g>
							</g>
						</g>
					</g>
				</g>
			</g>
		</g>
	</g>
</g>
<g id="Character_1_">
	<g>
		<g>
			<g>
				<path style="fill:#AE7461;" d="M276.368,163.564c-0.233,0.156-7.239,5.293-7.784,7.472c-0.545,2.179-0.233,4.67,0.389,5.059
					c0.623,0.389,1.946,1.479,1.946,1.479l0.701,1.323h2.802c0,0-1.323,2.88,0.623,3.425c1.946,0.545,4.281,0,4.281,0
					s3.814,1.741,4.67,0.987c0.856-0.754,2.491-2.233,2.491-2.233l1.635-3.658l-1.323-4.982l3.07-4.744l-8.449-6.894
					L276.368,163.564z"/>
			</g>
			<g>
				<g>
					<path style="fill:#6F4439;" d="M285.707,177.816c0.094,0.103-1.104,1.336-2.806,2.585c-1.7,1.254-3.233,2.031-3.303,1.91
						c-0.076-0.127,1.318-1.092,2.995-2.329C284.272,178.749,285.609,177.706,285.707,177.816z"/>
				</g>
			</g>
		</g>
		<g>
			<polygon style="fill:#AE7461;" points="470.887,118.483 480.814,115.359 486.014,124.047 471.72,131.674 			"/>
		</g>
		<g>
			<g>
				<path style="fill:#AE7461;" d="M483.242,109.802c0,0,3.958-5.404,4.972-5.902s7.018,0.582,7.466,1.413
					c0.448,0.831,0,2.494,0,2.494s1.446-0.166,1.861,0.831c0.416,0.998,0,2.494,0,2.494s0.831,0.582,0.831,1.413
					s-0.333,1.538-0.333,1.538s0.998,1.039,0.665,2.12c-0.332,1.081-6.318,5.57-8.895,6.568c-2.577,0.998-4.489,2.161-6.152,1.164
					c-1.663-0.998-2.91-8.23-2.91-8.23L483.242,109.802z"/>
			</g>
			<g>
				<g>
					<path style="fill:#6F4439;" d="M498.246,113.452c0.04,0.134-2.343,1.084-5.38,2.104c-0.766,0.26-1.798,0.24-2.341-0.456
						c-0.266-0.338-0.315-0.767-0.25-1.106c0.064-0.346,0.222-0.635,0.413-0.854c0.387-0.428,0.814-0.595,1.092-0.694
						c0.285-0.093,0.45-0.109,0.462-0.076c0.013,0.035-0.13,0.116-0.378,0.261c-0.242,0.147-0.606,0.359-0.89,0.741
						c-0.269,0.354-0.429,1.007-0.074,1.427c0.365,0.435,1.111,0.495,1.821,0.256C495.713,114.051,498.204,113.311,498.246,113.452z
						"/>
				</g>
			</g>
			<g>
				<g>
					<path style="fill:#6F4439;" d="M489.654,108.016c-0.139-0.025-0.16-0.532,0.093-1.082c0.251-0.551,0.65-0.866,0.759-0.776
						c0.115,0.091-0.065,0.506-0.286,0.993C489.995,107.636,489.797,108.044,489.654,108.016z"/>
				</g>
			</g>
			<g>
				<path style="fill:#AE7461;" d="M480.748,115.704c0,0,0.748-5.903,1.164-6.651c0.416-0.748,1.995-1.247,1.995-1.247l10.974,0.582
					c0,0,2.494,2.993-1.33,3.367c-3.824,0.374-5.337,0.707-5.337,0.707s1.18,1.164,0.515,4.406
					c-0.665,3.242-6.235,3.492-6.235,3.492L480.748,115.704z"/>
			</g>
			<g>
				<g>
					<path style="fill:#6F4439;" d="M488.729,116.868c-0.043-0.008,0.037-0.434,0.079-1.211c0.015-0.388,0.017-0.867-0.063-1.409
						c-0.08-0.526-0.252-1.185-0.654-1.661l-0.199-0.235l0.284-0.06c1.304-0.276,2.849-0.486,4.586-0.686
						c0.855-0.102,1.831-0.125,2.421-0.695c0.542-0.586,0.069-1.642-0.5-2.357l0.184,0.092c-0.842-0.044-1.723-0.09-2.621-0.136
						c-3.03-0.172-5.879-0.334-8.351-0.475l0.081-0.01c-0.614,0.208-1.228,0.477-1.649,0.852c-0.224,0.188-0.301,0.391-0.379,0.686
						c-0.076,0.277-0.139,0.555-0.197,0.826c-0.226,1.085-0.387,2.045-0.525,2.835c-0.127,0.723-0.233,1.331-0.322,1.836
						c-0.079,0.424-0.132,0.649-0.156,0.646c-0.025-0.003-0.019-0.235,0.016-0.665c0.035-0.43,0.099-1.059,0.196-1.857
						c0.1-0.798,0.225-1.764,0.422-2.868c0.051-0.276,0.107-0.561,0.181-0.857c0.055-0.28,0.208-0.67,0.477-0.888
						c0.511-0.466,1.128-0.738,1.798-0.981l0.035-0.013l0.046,0.002c2.473,0.122,5.323,0.262,8.354,0.411
						c0.897,0.049,1.779,0.096,2.621,0.142l0.118,0.006l0.066,0.086c0.335,0.437,0.605,0.886,0.757,1.413
						c0.156,0.504,0.129,1.181-0.291,1.608c-0.856,0.781-1.909,0.705-2.735,0.815c-1.728,0.17-3.284,0.345-4.558,0.572l0.085-0.295
						c0.504,0.64,0.608,1.305,0.681,1.875c0.057,0.574,0.026,1.065-0.02,1.46c-0.052,0.394-0.11,0.696-0.166,0.896
						C488.78,116.769,488.746,116.871,488.729,116.868z"/>
				</g>
			</g>
			<g>
				<g>
					<path style="fill:#6F4439;" d="M498.479,116.414c0.069,0.113-1.831,1.375-4.508,2.264c-0.67,0.219-1.479,0.289-2.088-0.07
						c-0.299-0.166-0.546-0.417-0.674-0.711c-0.13-0.294-0.132-0.603-0.073-0.85c0.127-0.5,0.397-0.794,0.572-0.983
						c0.186-0.185,0.311-0.261,0.336-0.238c0.088,0.052-0.387,0.485-0.546,1.287c-0.064,0.393,0.134,0.844,0.611,1.071
						c0.463,0.246,1.077,0.196,1.709-0.005C496.41,117.321,498.408,116.278,498.479,116.414z"/>
				</g>
			</g>
			<g>
				<g>
					<path style="fill:#6F4439;" d="M497.122,110.836c0.02,0.145-0.617,0.347-1.396,0.562c-0.781,0.211-1.432,0.36-1.489,0.225
						c-0.056-0.13,0.533-0.506,1.351-0.728C496.406,110.671,497.105,110.696,497.122,110.836z"/>
				</g>
			</g>
		</g>
		<g>
			<g>
				<path style="fill:#FF725E;" d="M373.646,113.138l-17.631,2.354l-13.714,34.157c0,0-14.785,28.167-18.596,38.227
					c-2.057,5.429-1.467,9.865-1.467,9.865l69.825-22.83l13.434-26.187l7.81-22.935l-9.635-2.675l-2.589-3.91l-21.289-10.228
					L373.646,113.138z"/>
			</g>
			<g>
				<path style="fill:#FF725E;" d="M441.898,126.132l-35.502-0.425l-2.724,23.943c0,0,37.284-4.109,43.294-6.169
					s35.438-14.277,35.438-14.277l-5.033-12.761L441.898,126.132z"/>
			</g>
			<g>
				<g>
					<path style="fill:#263238;" d="M473.62,129.56c-0.129,0.055-1.153-2.081-2.096-4.841c-0.948-2.759-1.449-5.074-1.314-5.109
						c0.143-0.039,0.865,2.2,1.806,4.94C472.953,127.292,473.756,129.503,473.62,129.56z"/>
				</g>
			</g>
			<g>
				<g>
					<path style="fill:#263238;" d="M473.908,119.106c-0.058-0.038,0.336-0.381,0.974-0.103c0.29,0.135,0.632,0.421,0.721,0.905
						c0.099,0.492-0.232,1.029-0.701,1.252c-0.459,0.243-1.088,0.187-1.423-0.187c-0.334-0.361-0.359-0.806-0.294-1.119
						c0.159-0.677,0.67-0.788,0.665-0.719c0.044,0.066-0.278,0.267-0.301,0.771c-0.011,0.238,0.061,0.541,0.266,0.725
						c0.195,0.189,0.541,0.217,0.853,0.063c0.31-0.158,0.494-0.452,0.459-0.721c-0.024-0.275-0.224-0.513-0.422-0.647
						C474.288,119.043,473.934,119.18,473.908,119.106z"/>
				</g>
			</g>
			<g>
				<g>
					<path style="fill:#263238;" d="M373.137,181.455c-0.014-0.012,0.083-0.163,0.279-0.441c0.236-0.322,0.525-0.718,0.877-1.198
						c0.392-0.511,0.859-1.145,1.369-1.905c0.517-0.754,1.13-1.596,1.736-2.575c1.269-1.92,2.66-4.283,4.125-6.949
						c1.44-2.681,2.944-5.671,4.405-8.866c2.914-6.398,5.239-12.332,6.951-16.614c0.842-2.084,1.534-3.797,2.046-5.065
						c0.234-0.548,0.426-1,0.582-1.367c0.139-0.311,0.219-0.47,0.236-0.464c0.017,0.007-0.031,0.179-0.138,0.502
						c-0.132,0.377-0.294,0.84-0.491,1.402c-0.473,1.283-1.113,3.016-1.891,5.125c-1.625,4.317-3.898,10.279-6.821,16.697
						c-1.465,3.205-2.989,6.201-4.458,8.88c-1.495,2.665-2.925,5.02-4.239,6.922c-0.629,0.97-1.265,1.801-1.807,2.542
						c-0.535,0.746-1.027,1.365-1.445,1.859c-0.383,0.457-0.699,0.834-0.955,1.14C373.275,181.337,373.151,181.466,373.137,181.455z
						"/>
				</g>
			</g>
			<g>
				<g>
					<path style="fill:#263238;" d="M396.525,129.571c-0.026,0.013-0.194-0.27-0.48-0.804c-0.32-0.62-0.717-1.389-1.193-2.312
						l0.246,0.047c-1.542,1.424-3.717,3.397-6.256,5.673l-0.172,0.154l-0.166-0.176c-1.197-1.274-2.404-2.747-3.605-4.315
						c-2.941-3.875-5.386-7.524-7.241-10.101c-0.885-1.223-1.626-2.245-2.205-3.046c-0.532-0.71-0.815-1.114-0.788-1.137
						c0.028-0.023,0.363,0.338,0.947,1.011c0.572,0.682,1.386,1.682,2.343,2.954c1.935,2.527,4.431,6.147,7.358,10.003
						c1.195,1.56,2.385,3.027,3.553,4.295l-0.337-0.023c2.552-2.243,4.763-4.162,6.358-5.522l0.163-0.139l0.083,0.187
						c0.424,0.948,0.778,1.738,1.063,2.375C396.435,129.251,396.551,129.558,396.525,129.571z"/>
				</g>
			</g>
			<g>
				<g>
					<path style="fill:#263238;" d="M411.65,133.502c0.017,0.007-0.029,0.161-0.132,0.449c-0.13,0.343-0.286,0.755-0.473,1.25
						c-0.419,1.082-1.055,2.635-1.863,4.545c-1.614,3.821-3.95,9.055-6.672,14.768c-2.725,5.714-5.309,10.829-7.226,14.507
						c-0.958,1.839-1.747,3.32-2.306,4.336c-0.259,0.461-0.475,0.845-0.655,1.164c-0.155,0.264-0.244,0.398-0.26,0.39
						c-0.016-0.008,0.042-0.159,0.167-0.438c0.156-0.332,0.343-0.73,0.567-1.209c0.547-1.117,1.275-2.605,2.158-4.41
						c1.832-3.718,4.362-8.855,7.084-14.564c2.72-5.708,5.106-10.911,6.804-14.692c0.824-1.832,1.504-3.343,2.014-4.477
						c0.223-0.479,0.409-0.879,0.563-1.211C411.555,133.636,411.633,133.495,411.65,133.502z"/>
				</g>
			</g>
			<g style="opacity:0.3;">
				<g>
					<path d="M391.986,173.223c-0.567-0.505-1.425-0.44-2.178-0.342c-17.668,2.318-27.572,6.076-44.326,12.146l45.602-9.742
						C392.063,174.911,392.553,173.729,391.986,173.223z"/>
				</g>
			</g>
			<g>
				<g>
					<path style="fill:#263238;" d="M403.766,124.826c0.056,0.007,0.035,0.826-0.285,2.133c-0.316,1.302-0.984,3.088-2.175,4.85
						l-0.209,0.309l-0.215-0.304c-0.191-0.269-0.39-0.555-0.58-0.853c-1.054-1.629-1.779-3.278-2.22-4.613l0.38,0.024
						c-0.904,1.823-1.525,2.973-1.602,2.939c-0.077-0.035,0.407-1.249,1.233-3.127l0.198-0.45l0.182,0.474
						c0.495,1.289,1.238,2.88,2.267,4.471c0.186,0.291,0.38,0.571,0.564,0.836l-0.424,0.004
						C403.236,128.095,403.607,124.773,403.766,124.826z"/>
				</g>
			</g>
			<g style="opacity:0.3;">
				<g>
					<path d="M404.584,149.542c2.899-1.475,5.281-3.942,6.655-6.889c1.374-2.948,1.731-6.359,0.997-9.527
						c-3,5.173-5.648,10.549-7.922,16.08"/>
				</g>
			</g>
			<g style="opacity:0.3;">
				<g>
					<path d="M375.438,114.353c3.276,7.552,7.61,14.644,12.837,21.003c2.227-1.868,4.242-3.989,5.995-6.308
						c0.751,0.626,1.503,1.252,2.254,1.878c-0.388-1.221-0.776-2.441-1.163-3.662c-0.07-0.219-0.178-0.475-0.405-0.514
						c-0.174-0.031-0.337,0.085-0.476,0.193c-1.993,1.557-3.986,3.115-5.98,4.672c-4.911-5.369-9.361-11.159-13.286-17.287"/>
				</g>
			</g>
			<g>
				<g>
					<path style="fill:#263238;" d="M358.441,171.168c-0.017,0.065-0.893-0.091-2.276-0.479c-1.382-0.387-3.266-1.025-5.275-1.904
						c-2.009-0.881-3.756-1.832-4.978-2.585c-1.223-0.753-1.932-1.29-1.896-1.346c0.084-0.135,3.097,1.72,7.083,3.454
						C355.076,170.059,358.483,171.015,358.441,171.168z"/>
				</g>
			</g>
			<g>
				<g>
					<path style="fill:#263238;" d="M367.234,167.221c-0.004,0.036-0.345,0.032-0.96-0.005c-0.615-0.035-1.502-0.116-2.595-0.241
						c-2.187-0.247-5.197-0.699-8.485-1.39c-3.288-0.695-6.225-1.498-8.325-2.155c-1.05-0.328-1.894-0.612-2.471-0.828
						c-0.577-0.214-0.891-0.348-0.88-0.382c0.024-0.073,1.333,0.293,3.453,0.857c2.12,0.565,5.057,1.307,8.331,1.999
						c3.273,0.689,6.26,1.196,8.427,1.535C365.896,166.95,367.242,167.144,367.234,167.221z"/>
				</g>
			</g>
			<g style="opacity:0.3;">
				<g>
					<path d="M344.344,162.582c7.299,4.998,16.68,6.845,25.328,4.988c-8.406-0.663-17.253-2.664-25.328-5.089"/>
				</g>
			</g>
			<g>
				<g>
					<path style="fill:#FF725E;" d="M359.175,115.707c-4.762-1.47-19.853,5.085-19.853,5.085s-25.626,10.398-30.962,15.217
						c-5.336,4.82-31.178,25.578-31.178,25.578l12.271,9.88l30.215-20.759l37.012-8.605c0,0,4.145-1.428,8.93-9.002
						C370.396,125.527,363.937,117.177,359.175,115.707z"/>
				</g>
				<g>
					<g>
						<path style="fill:#263238;" d="M363.822,137.098c-0.082-0.053,0.899-1.35,1.96-3.705c0.516-1.179,1.035-2.633,1.311-4.306
							c0.285-1.666,0.281-3.558-0.172-5.452c-0.462-1.888-1.349-3.573-2.493-4.8c-1.14-1.236-2.477-2.033-3.665-2.486
							c-2.423-0.904-4.091-0.468-4.083-0.59c-0.003-0.018,0.094-0.047,0.283-0.088c0.189-0.048,0.471-0.084,0.84-0.112
							c0.734-0.049,1.822,0.023,3.084,0.444c1.252,0.427,2.672,1.223,3.891,2.505c1.224,1.274,2.168,3.036,2.648,5.005
							c0.473,1.973,0.459,3.941,0.139,5.656c-0.312,1.721-0.881,3.198-1.449,4.379c-0.579,1.179-1.152,2.074-1.575,2.67
							C364.117,136.814,363.848,137.117,363.822,137.098z"/>
					</g>
				</g>
				<g style="opacity:0.3;">
					<path d="M343.873,145.543c0,0,5.666,1.209,9.753-0.515c4.087-1.724,7.216-4.023,7.216-4.023L343.873,145.543"/>
				</g>
				<g>
					<g>
						<path style="fill:#263238;" d="M289.706,165.638c-0.064-0.024,0.224-0.441,0.893-0.333c0.306,0.058,0.697,0.245,0.898,0.68
							c0.213,0.44,0.033,1.028-0.354,1.354c-0.373,0.342-0.979,0.446-1.388,0.178c-0.405-0.256-0.541-0.668-0.559-0.978
							c-0.022-0.676,0.429-0.91,0.444-0.843c0.059,0.052-0.186,0.324-0.078,0.798c0.051,0.224,0.194,0.487,0.431,0.606
							c0.227,0.126,0.555,0.067,0.807-0.152c0.25-0.223,0.35-0.539,0.254-0.781c-0.087-0.25-0.33-0.426-0.546-0.505
							C290.051,165.495,289.75,165.704,289.706,165.638z"/>
					</g>
				</g>
				<g>
					<g>
						<path style="fill:#263238;" d="M296.625,166.109c-0.095,0.108-2.478-1.818-5.322-4.303c-2.845-2.485-5.074-4.587-4.98-4.696
							c0.094-0.108,2.477,1.818,5.322,4.303C294.49,163.898,296.72,166.001,296.625,166.109z"/>
					</g>
				</g>
				<g>
					<g>
						<path style="fill:#263238;" d="M277.183,161.587c0.006-0.008,0.086,0.044,0.235,0.152c0.174,0.13,0.389,0.292,0.654,0.491
							c0.602,0.468,1.43,1.113,2.478,1.928c2.172,1.722,5.248,4.161,9.026,7.156l-0.232-0.009
							c6.668-4.556,15.521-10.605,25.22-17.232c1.779-1.209,3.53-2.399,5.195-3.53l0.045-0.03l0.053-0.01
							c11.115-2.082,20.787-4.672,27.752-6.391c3.48-0.873,6.279-1.558,8.211-2.01c0.935-0.212,1.675-0.38,2.223-0.505
							c0.508-0.109,0.776-0.159,0.78-0.143c0.004,0.016-0.256,0.097-0.757,0.236c-0.543,0.146-1.276,0.343-2.201,0.592
							c-1.962,0.519-4.736,1.253-8.171,2.162c-6.941,1.808-16.604,4.462-27.743,6.566l0.098-0.04
							c-1.663,1.132-3.413,2.324-5.192,3.534c-9.726,6.585-18.605,12.596-25.293,17.124l-0.121,0.082l-0.111-0.091
							c-3.732-3.051-6.772-5.536-8.917-7.291c-1.02-0.85-1.827-1.522-2.413-2.01c-0.251-0.217-0.455-0.392-0.619-0.534
							C277.245,161.662,277.177,161.595,277.183,161.587z"/>
					</g>
				</g>
			</g>
			<g>
				<g style="opacity:0.3;">
					<path d="M342.65,119.44c0,0,4.754,2.436,10.764,1.561s10.61-4.59,14.32-2.732c3.71,1.858,11.797,12.785,15.621,15.845
						c3.825,3.06,12.841,0,12.841,0h-5.461l-7.729-5.87c0,0-6.535-14.163-11.453-14.692c-4.917-0.529-16.177,0-16.177,0
						L342.65,119.44z"/>
				</g>
				<g>
					<g>
						<g>
							<g>
								<path style="fill:#455A64;" d="M395.182,131.396c-0.482,1.333-3.158,1.73-4.933,0.995c-1.309-0.543-2.898-2.301-3.841-3.612
									c-3.983-5.538-6.911-11.776-12.22-16.059c-3.694-2.98-9.112-3.945-13.853-4.165c-4.741-0.219-9.474,0.554-14.22,0.579
									c-11.346,0.06-12.518-1.945-21.224-5.699l-6.398,4.065l3.668,7.167c0,0,20.096,6.275,28.411,4.62
									c8.473-1.687,14.157-3.852,18.382-2.292c9.03,3.335,13.208,14.974,18.458,17.179c5.013,2.106,9.447,0.109,9.447,0.109
									L395.182,131.396z"/>
							</g>
						</g>
					</g>
					<g>
						<path style="fill:#455A64;" d="M393.852,133.045l0.419-3.997l1.522-0.981l2.004,0.179l1.084,1.825
							c0,0-0.151,4.395-3.615,4.716L393.852,133.045z"/>
					</g>
				</g>
				<g>
					<g>
						<path style="fill:#263238;" d="M396.37,134.424c-0.103,0.1-0.685-0.333-1.3-0.967c-0.299-0.316-0.556-0.563-0.77-0.694
							c-0.209-0.134-0.383-0.165-0.392-0.241c-0.015-0.063,0.188-0.18,0.526-0.102c0.334,0.074,0.704,0.349,1.01,0.674
							C396.059,133.729,396.473,134.324,396.37,134.424z"/>
					</g>
				</g>
				<g>
					<g>
						<path style="fill:#263238;" d="M398.408,132.531c-0.13,0.08-0.811-0.874-1.903-1.774c-1.083-0.913-2.143-1.411-2.088-1.553
							c0.036-0.13,1.257,0.175,2.422,1.153C398.009,131.326,398.529,132.472,398.408,132.531z"/>
					</g>
				</g>
			</g>
		</g>
		<g>
			<g>
				<g>
					<path style="fill:#263238;" d="M421.074,81.313c1.488-0.867,2.317-2.735,1.963-4.42c-0.354-1.685-1.866-3.06-3.577-3.255
						c0.385-1.656-0.159-3.497-1.383-4.677c-1.223-1.181-3.082-1.659-4.723-1.215c-1.38-2.052-4.282-2.918-6.561-1.958
						c-1.51-0.734-3.48-0.367-4.624,0.862c-1.144,1.229-1.369,3.22-0.529,4.673l15.754,16.984c1.805,0.728,4.095-0.112,5.001-1.834
						C423.302,84.75,422.697,82.387,421.074,81.313z"/>
				</g>
				<g>
					<g>
						<g>
							<path style="fill:#AE7461;" d="M405.766,69.571l-0.841-0.234c-9.212-1.989-16.048,4.724-17.782,13.988l-5.511,26.774
								l12.521,14.217l2.678,3.674l4.771-10.321c0,0,9.091,1.066,11.62-7.617c1.221-4.194,3.033-13.033,4.579-21.053
								C419.465,80.376,414.227,71.923,405.766,69.571z"/>
						</g>
						<g>
							<g>
								<g>
									<g>
										<g>
											<g>
												<path style="fill:#6F4439;" d="M401.678,117.677c0,0-5.657-1.211-10.489-6.514c0,0,0.269,7.54,9.181,9.171
													L401.678,117.677z"/>
											</g>
										</g>
									</g>
								</g>
							</g>
						</g>
						<g>
							<g>
								<g>
									<g>
										<g>
											<g>
												<g>
													<g>
														<g>
															<path style="fill:#263238;" d="M412.957,96.132c-0.159,0.664-0.853,1.076-1.549,0.922
																c-0.695-0.154-1.13-0.815-0.971-1.478c0.159-0.664,0.853-1.077,1.547-0.923
																C412.681,94.806,413.116,95.468,412.957,96.132z"/>
														</g>
													</g>
												</g>
											</g>
										</g>
									</g>
								</g>
							</g>
						</g>
						<g>
							<g>
								<g>
									<g>
										<g>
											<g>
												<g>
													<g>
														<g>
															<g>
																<path style="fill:#263238;" d="M414.745,92.74c-0.199,0.119-0.948-0.84-2.288-1.209
																	c-1.333-0.387-2.507,0.029-2.607-0.175c-0.051-0.093,0.187-0.342,0.702-0.535c0.508-0.193,1.31-0.295,2.143-0.06
																	c0.833,0.236,1.449,0.738,1.765,1.165C414.783,92.356,414.841,92.689,414.745,92.74z"/>
															</g>
														</g>
													</g>
												</g>
											</g>
										</g>
									</g>
								</g>
							</g>
						</g>
						<g>
							<g>
								<g>
									<g>
										<g>
											<g>
												<g>
													<g>
														<g>
															<path style="fill:#263238;" d="M401.081,92.919c-0.159,0.663-0.853,1.076-1.548,0.922
																c-0.695-0.153-1.13-0.814-0.971-1.478c0.159-0.663,0.853-1.076,1.548-0.923
																C400.805,91.592,401.24,92.255,401.081,92.919z"/>
														</g>
													</g>
												</g>
											</g>
										</g>
									</g>
								</g>
							</g>
						</g>
						<g>
							<g>
								<g>
									<g>
										<g>
											<g>
												<g>
													<g>
														<g>
															<g>
																<path style="fill:#263238;" d="M401.513,89.333c-0.199,0.119-0.95-0.84-2.289-1.208
																	c-1.333-0.387-2.507,0.029-2.607-0.176c-0.051-0.092,0.186-0.342,0.702-0.534c0.507-0.193,1.309-0.295,2.143-0.06
																	c0.833,0.236,1.449,0.738,1.765,1.165C401.55,88.949,401.609,89.282,401.513,89.333z"/>
															</g>
														</g>
													</g>
												</g>
											</g>
										</g>
									</g>
								</g>
							</g>
						</g>
						<g>
							<g>
								<g>
									<g>
										<g>
											<g>
												<g>
													<g>
														<g>
															<path style="fill:#263238;" d="M403.614,100.614c0.015-0.078,0.887,0.009,2.284,0.212
																c0.352,0.06,0.694,0.082,0.817-0.136c0.149-0.225,0.109-0.633,0.054-1.077c-0.092-0.916-0.187-1.877-0.288-2.885
																c-0.375-4.097-0.544-7.427-0.379-7.441c0.165-0.014,0.603,3.296,0.977,7.393c0.084,1.008,0.165,1.969,0.241,2.888
																c0.021,0.425,0.121,0.927-0.195,1.391c-0.163,0.23-0.466,0.346-0.701,0.344c-0.238,0.006-0.431-0.044-0.603-0.081
																C404.442,100.919,403.598,100.691,403.614,100.614z"/>
														</g>
													</g>
												</g>
											</g>
										</g>
									</g>
								</g>
							</g>
						</g>
						<g>
							<g>
								<g>
									<g>
										<g>
											<path style="fill:#263238;" d="M403.317,84.182c-0.233,0.327-1.522-0.217-3.146-0.464
												c-1.619-0.28-3.013-0.172-3.131-0.556c-0.049-0.182,0.267-0.463,0.877-0.674c0.605-0.211,1.508-0.32,2.481-0.163
												c0.972,0.159,1.794,0.548,2.301,0.94C403.211,83.658,403.422,84.025,403.317,84.182z"/>
										</g>
									</g>
								</g>
							</g>
						</g>
						<g>
							<g>
								<g>
									<g>
										<g>
											<path style="fill:#263238;" d="M415.329,88.728c-0.32,0.239-1.155-0.333-2.26-0.656
												c-1.094-0.362-2.105-0.365-2.233-0.743c-0.052-0.181,0.181-0.445,0.671-0.618c0.484-0.175,1.226-0.221,1.982,0.014
												c0.755,0.236,1.339,0.695,1.639,1.114C415.432,88.26,415.474,88.609,415.329,88.728z"/>
										</g>
									</g>
								</g>
							</g>
						</g>
						<g>
							<g>
								<g>
									<g>
										<path style="fill:#AE7461;" d="M386.187,92.195c0.319-1.36-0.545-2.744-1.92-2.989c-1.668-0.297-3.733,0.123-4.558,3.511
											c-1.465,6.01,4.871,6.241,4.924,6.071C384.667,98.673,385.596,94.715,386.187,92.195z"/>
									</g>
								</g>
							</g>
						</g>
						<g>
							<g>
								<g>
									<g>
										<path style="fill:#6F4439;" d="M383.875,96.209c-0.022-0.026-0.123,0.048-0.319,0.086
											c-0.192,0.037-0.502,0.019-0.786-0.175c-0.578-0.388-0.867-1.526-0.632-2.616c0.118-0.55,0.36-1.043,0.659-1.427
											c0.291-0.395,0.65-0.633,0.983-0.612c0.336,0.004,0.516,0.25,0.548,0.437c0.04,0.188-0.028,0.298,0.002,0.316
											c0.013,0.019,0.154-0.069,0.166-0.329c0.004-0.125-0.032-0.284-0.145-0.434c-0.116-0.153-0.313-0.264-0.542-0.294
											c-0.471-0.081-0.992,0.244-1.32,0.665c-0.355,0.417-0.639,0.968-0.771,1.587c-0.257,1.221,0.087,2.505,0.895,2.968
											c0.396,0.213,0.78,0.172,0.996,0.074C383.829,96.352,383.893,96.225,383.875,96.209z"/>
									</g>
								</g>
							</g>
						</g>
					</g>
					<g>
						<path style="fill:#263238;" d="M416.294,75.234c-0.012-0.165-0.043-0.33-0.091-0.487c-0.36-1.185-1.352-2.115-2.516-2.52
							c-0.606-0.555-1.221-1.04-1.822-1.441c-0.44-1.647-1.652-3.093-3.244-3.721c-1.803-0.712-3.969-0.332-5.463,0.894
							c-0.254-0.033-0.51-0.06-0.766-0.084c-0.978-1.229-2.493-2.025-4.065-2.099c-1.763-0.082-3.543,0.743-4.62,2.14
							c-1.343-0.784-3.151-0.682-4.398,0.247c-1.247,0.929-1.861,2.632-1.494,4.144c-1.241,0.314-2.453,1.123-2.818,2.351
							c-0.344,1.157,0.407,2.595,1.566,2.763c-1.005,2.797-1.778,6.21-2.312,9.247c-0.617,3.51,1.449,4.777,1.314,5.61
							c-1.185,7.29,2.526,4.227,7.417-9.616c0.542-0.099,1.03-0.383,1.262-0.878c0.186-0.395,0.218-0.904,0.58-1.149
							c0.432-0.292,0.999-0.005,1.483,0.186c1.681,0.665,3.795-0.067,4.704-1.63c0.258,0.784,1.297,1.042,2.085,0.797
							c0.788-0.245,1.415-0.831,2.104-1.285c0.69-0.454,1.573-0.786,2.329-0.455c0.423,0.185,0.762,0.562,1.216,0.645
							c0.802,0.148,1.438-0.662,1.772-1.406c0.29-0.644,0.604-1.366,1.186-1.709c0.51-0.08,1.022-0.105,1.542-0.008
							c0.297,0.118,0.591,0.261,0.876,0.388c0.122,0.054,0.259,0.09,0.394,0.128c0.165,0.109,0.331,0.234,0.498,0.382
							c2.277,2.005,3.06,8.1,3.06,8.1C419.218,81.364,418.139,77.963,416.294,75.234z"/>
					</g>
					<g>
						<g>
							<g>
								<g>
									<path style="fill:#455A64;" d="M412.01,73.897c0.005,0.002-0.006,0.038-0.032,0.109c-0.028,0.069-0.062,0.176-0.126,0.308
										c-0.131,0.26-0.355,0.636-0.751,1.028c-0.396,0.384-0.96,0.797-1.712,1.041c-0.74,0.253-1.684,0.339-2.634,0.018
										l0.138-0.104c0.043,0.561-0.177,1.158-0.577,1.612c-0.388,0.466-0.898,0.833-1.426,1.182
										c-0.267,0.164-0.517,0.374-0.857,0.498c-0.33,0.118-0.691,0.139-1.042,0.088c-0.695-0.101-1.396-0.519-1.727-1.22
										l0.24-0.002c-0.481,1.142-1.483,2.14-2.754,2.565c-0.68,0.252-1.45,0.307-2.134,0.098c-0.688-0.198-1.272-0.579-1.81-0.959
										l0.179-0.026c-0.526,0.652-1.193,1.147-1.921,1.447c-0.716,0.303-1.573,0.359-2.232-0.011
										c-1.323-0.688-1.931-2.117-1.813-3.27l0.117,0.1c-0.803,0.186-1.562,0.015-2.13-0.268
										c-0.578-0.281-0.983-0.678-1.251-1.033c-0.268-0.361-0.394-0.69-0.464-0.913c-0.057-0.227-0.073-0.349-0.065-0.35
										c0.037-0.016,0.072,0.508,0.611,1.199c0.272,0.334,0.673,0.706,1.233,0.962c0.551,0.259,1.274,0.405,2.02,0.22l0.129-0.032
										l-0.012,0.133c-0.096,1.08,0.499,2.42,1.73,3.044c0.599,0.328,1.354,0.275,2.032-0.011
										c0.681-0.285,1.319-0.763,1.809-1.377l0.078-0.097l0.101,0.071c0.53,0.372,1.096,0.734,1.732,0.915
										c0.634,0.191,1.324,0.143,1.972-0.095c1.201-0.403,2.141-1.336,2.601-2.415l0.116-0.271l0.125,0.27
										c0.277,0.598,0.9,0.985,1.525,1.077c0.313,0.048,0.634,0.03,0.921-0.071c0.279-0.096,0.537-0.301,0.807-0.466
										c0.526-0.341,1.02-0.693,1.386-1.125c0.378-0.423,0.573-0.947,0.543-1.452l-0.009-0.156l0.147,0.051
										c0.891,0.314,1.795,0.249,2.514,0.019c0.73-0.221,1.286-0.607,1.683-0.968C411.814,74.507,411.972,73.871,412.01,73.897z"
										/>
								</g>
							</g>
						</g>
					</g>
				</g>
			</g>
			<g>
				<path style="fill:#6F4439;" d="M400.656,101.797c-0.152-0.091-0.316-0.185-0.494-0.177c-0.296,0.013-0.5,0.297-0.63,0.563
					c-0.434,0.891-0.548,1.968-0.156,2.878c0.147,0.341,0.403,0.608,0.748,0.809c1.125,0.652,2.581,0.187,3.325-0.881l0.826-1.186
					C403.496,103.338,401.435,102.262,400.656,101.797z"/>
			</g>
			<g>
				<g>
					<path style="fill:#263238;" d="M404.332,103.786c-0.018,0.063-0.574-0.07-1.37-0.503c-0.802-0.391-1.848-1.16-3.121-1.503
						l0.283-0.125c-0.104,0.188-0.212,0.386-0.31,0.589c-0.337,0.676-0.523,1.364-0.43,1.977c0.074,0.618,0.428,1.067,0.834,1.315
						c0.837,0.478,1.52,0.532,1.492,0.628c-0.003,0.038-0.667,0.143-1.676-0.309c-0.496-0.232-1.014-0.81-1.125-1.559
						c-0.142-0.74,0.076-1.564,0.436-2.281c0.106-0.217,0.219-0.422,0.328-0.614l0.101-0.178l0.182,0.052
						c1.458,0.419,2.426,1.246,3.183,1.708C403.874,103.489,404.353,103.72,404.332,103.786z"/>
				</g>
			</g>
		</g>
		<g>
			<g>
				<g>
					<g>
						<g>
							<g>
								<g>
									<g>
										<g>
											<g>
												<g>
													<g>
														<g>
															<g>
																<g>
																	<path style="fill:#263238;" d="M460.482,240.314l16.71,19.952l28.794-26.817c-2.73-2.594-22.77,5.758-22.77,5.758
																		l-9.233-10.656L460.482,240.314z"/>
																</g>
															</g>
														</g>
													</g>
												</g>
											</g>
										</g>
									</g>
								</g>
							</g>
						</g>
					</g>
					<g>
						<g>
							<g>
								<g>
									<g>
										<g>
											<g>
												<g>
													<g>
														<g>
															<g>
																<g>
																	<g>
																		<path style="fill:#E0E0E0;" d="M473.151,246.251c-0.415,0.672-0.217,1.657,0.437,2.099
																			c0.654,0.443,1.657,0.25,2.084-0.415c0.427-0.664,0.225-1.854-0.474-2.22c-0.699-0.367-1.865-0.075-2.12,0.672"/>
																	</g>
																</g>
															</g>
														</g>
													</g>
												</g>
											</g>
										</g>
									</g>
								</g>
							</g>
						</g>
					</g>
					<g>
						<g>
							<g>
								<g>
									<g>
										<g>
											<g>
												<g>
													<g>
														<g>
															<g>
																<g>
																	<path style="fill:#E0E0E0;" d="M477.192,260.266l-2.289-2.405l28.672-24.731c0,0,1.806-0.624,2.495,0.418
																		L477.192,260.266z"/>
																</g>
															</g>
														</g>
													</g>
												</g>
											</g>
										</g>
									</g>
								</g>
							</g>
						</g>
					</g>
					<g>
						<g>
							<g>
								<g>
									<g>
										<g>
											<g>
												<g>
													<g>
														<g>
															<g>
																<g>
																	<g>
																		<path style="fill:#E0E0E0;" d="M483.546,238.626c0.126,0.145-0.517,0.863-0.788,1.96
																			c-0.299,1.09-0.089,2.031-0.27,2.095c-0.155,0.093-0.728-0.942-0.377-2.264
																			C482.45,239.092,483.457,238.468,483.546,238.626z"/>
																	</g>
																</g>
															</g>
														</g>
													</g>
												</g>
											</g>
										</g>
									</g>
								</g>
							</g>
						</g>
					</g>
					<g>
						<g>
							<g>
								<g>
									<g>
										<g>
											<g>
												<g>
													<g>
														<g>
															<g>
																<g>
																	<g>
																		<path style="fill:#E0E0E0;" d="M487.73,237.062c0.159,0.106-0.227,0.913-0.151,1.952
																			c0.046,1.042,0.524,1.797,0.378,1.921c-0.112,0.145-0.976-0.588-1.046-1.882
																			C486.83,237.76,487.602,236.931,487.73,237.062z"/>
																	</g>
																</g>
															</g>
														</g>
													</g>
												</g>
											</g>
										</g>
									</g>
								</g>
							</g>
						</g>
					</g>
					<g>
						<g>
							<g>
								<g>
									<g>
										<g>
											<g>
												<g>
													<g>
														<g>
															<g>
																<g>
																	<g>
																		<path style="fill:#E0E0E0;" d="M492.811,239.079c-0.1,0.149-0.95-0.372-1.306-1.478
																			c-0.364-1.104,0.016-2.025,0.185-1.964c0.187,0.042,0.145,0.853,0.451,1.756
																			C492.426,238.305,492.938,238.935,492.811,239.079z"/>
																	</g>
																</g>
															</g>
														</g>
													</g>
												</g>
											</g>
										</g>
									</g>
								</g>
							</g>
						</g>
					</g>
					<g>
						<g>
							<g>
								<g>
									<g>
										<g>
											<g>
												<g>
													<g>
														<g>
															<g>
																<g>
																	<g>
																		<path style="fill:#E0E0E0;" d="M480.132,235.468c0.06,0.183-0.765,0.59-1.51,1.384
																			c-0.761,0.779-1.131,1.622-1.316,1.57c-0.176-0.026-0.057-1.109,0.833-2.032
																			C479.022,235.46,480.098,235.294,480.132,235.468z"/>
																	</g>
																</g>
															</g>
														</g>
													</g>
												</g>
											</g>
										</g>
									</g>
								</g>
							</g>
						</g>
					</g>
					<g>
						<g>
							<g>
								<g>
									<g>
										<g>
											<g>
												<g>
													<g>
														<g>
															<g>
																<g>
																	<g>
																		<path style="fill:#E0E0E0;" d="M476.265,232.691c0.056,0.057-0.419,0.661-1.449,1.336
																			c-0.513,0.335-1.169,0.675-1.94,0.942c-0.386,0.133-0.8,0.247-1.237,0.332c-0.212,0.038-0.449,0.099-0.751,0.066
																			c-0.292-0.001-0.728-0.292-0.761-0.688c-0.059-0.359,0.113-0.697,0.316-0.895c0.206-0.205,0.418-0.322,0.61-0.429
																			c0.393-0.221,0.793-0.395,1.183-0.527c0.783-0.262,1.525-0.362,2.143-0.366c1.244-0.004,1.961,0.309,1.939,0.381
																			c-0.021,0.106-0.756-0.032-1.911,0.091c-0.576,0.062-1.253,0.202-1.961,0.473
																			c-0.353,0.137-0.713,0.307-1.066,0.516c-0.38,0.204-0.641,0.444-0.593,0.652c0.02,0.078,0.035,0.102,0.182,0.132
																			c0.143,0.021,0.341-0.013,0.551-0.05c0.409-0.071,0.8-0.166,1.167-0.274c0.734-0.218,1.373-0.496,1.892-0.764
																			C475.617,233.079,476.196,232.612,476.265,232.691z"/>
																	</g>
																</g>
															</g>
														</g>
													</g>
												</g>
											</g>
										</g>
									</g>
								</g>
							</g>
						</g>
					</g>
					<g>
						<g>
							<g>
								<g>
									<g>
										<g>
											<g>
												<g>
													<g>
														<g>
															<g>
																<g>
																	<g>
																		<path style="fill:#E0E0E0;" d="M476.269,233.063c-0.03,0.068-0.778-0.176-1.677-1.039
																			c-0.445-0.429-0.908-1.02-1.274-1.762c-0.181-0.372-0.336-0.78-0.448-1.218c-0.096-0.442-0.245-1.014,0.242-1.585
																			c0.275-0.276,0.719-0.274,0.977-0.159c0.277,0.106,0.451,0.256,0.64,0.391c0.366,0.287,0.667,0.623,0.905,0.97
																			c0.48,0.697,0.704,1.441,0.772,2.063c0.132,1.27-0.298,1.985-0.354,1.948c-0.113-0.027,0.125-0.755-0.113-1.873
																			c-0.117-0.551-0.362-1.193-0.806-1.78c-0.22-0.293-0.488-0.572-0.803-0.809c-0.33-0.264-0.675-0.404-0.76-0.266
																			c-0.145,0.131-0.174,0.588-0.064,0.942c0.093,0.396,0.221,0.769,0.371,1.114c0.304,0.688,0.69,1.26,1.061,1.699
																			C475.685,232.584,476.326,232.97,476.269,233.063z"/>
																	</g>
																</g>
															</g>
														</g>
													</g>
												</g>
											</g>
										</g>
									</g>
								</g>
							</g>
						</g>
					</g>
				</g>
			</g>
			<g>
				<g>
					<g>
						<g>
							<g>
								<g>
									<g>
										<g>
											<g>
												<g>
													<g>
														<g>
															<g>
																<g>
																	<path style="fill:#263238;" d="M291.788,285.654l-24.995,7.251l12.939,37.16
																		c3.474-1.453,3.907-23.159,3.907-23.159l13.474-4.156L291.788,285.654z"/>
																</g>
															</g>
														</g>
													</g>
												</g>
											</g>
										</g>
									</g>
								</g>
							</g>
						</g>
					</g>
					<g>
						<g>
							<g>
								<g>
									<g>
										<g>
											<g>
												<g>
													<g>
														<g>
															<g>
																<g>
																	<g>
																		<path style="fill:#E0E0E0;" d="M281.248,294.855c-0.447-0.651-1.429-0.866-2.097-0.446
																			c-0.668,0.42-0.896,1.416-0.461,2.075c0.435,0.658,1.606,0.953,2.223,0.461c0.617-0.492,0.821-1.677,0.24-2.211"
																			/>
																	</g>
																</g>
															</g>
														</g>
													</g>
												</g>
											</g>
										</g>
									</g>
								</g>
							</g>
						</g>
					</g>
					<g>
						<g>
							<g>
								<g>
									<g>
										<g>
											<g>
												<g>
													<g>
														<g>
															<g>
																<g>
																	<path style="fill:#E0E0E0;" d="M266.793,292.905l3.124-1.125l11.079,36.208c0,0-0.156,1.904-1.388,2.115
																		L266.793,292.905z"/>
																</g>
															</g>
														</g>
													</g>
												</g>
											</g>
										</g>
									</g>
								</g>
							</g>
						</g>
					</g>
					<g>
						<g>
							<g>
								<g>
									<g>
										<g>
											<g>
												<g>
													<g>
														<g>
															<g>
																<g>
																	<g>
																		<path style="fill:#E0E0E0;" d="M284.038,307.442c-0.184,0.057-0.582-0.821-1.476-1.511
																			c-0.876-0.713-1.823-0.9-1.809-1.092c-0.023-0.179,1.156-0.287,2.224,0.567
																			C284.052,306.251,284.217,307.423,284.038,307.442z"/>
																	</g>
																</g>
															</g>
														</g>
													</g>
												</g>
											</g>
										</g>
									</g>
								</g>
							</g>
						</g>
					</g>
					<g>
						<g>
							<g>
								<g>
									<g>
										<g>
											<g>
												<g>
													<g>
														<g>
															<g>
																<g>
																	<g>
																		<path style="fill:#E0E0E0;" d="M283.783,311.901c-0.161,0.103-0.744-0.576-1.726-0.924
																			c-0.972-0.378-1.856-0.245-1.911-0.428c-0.088-0.161,0.931-0.656,2.144-0.199
																			C283.506,310.796,283.954,311.837,283.783,311.901z"/>
																	</g>
																</g>
															</g>
														</g>
													</g>
												</g>
											</g>
										</g>
									</g>
								</g>
							</g>
						</g>
					</g>
					<g>
						<g>
							<g>
								<g>
									<g>
										<g>
											<g>
												<g>
													<g>
														<g>
															<g>
																<g>
																	<g>
																		<path style="fill:#E0E0E0;" d="M279.888,315.739c-0.096-0.151,0.723-0.719,1.879-0.6
																			c1.157,0.112,1.847,0.831,1.723,0.96c-0.114,0.154-0.839-0.211-1.789-0.295
																			C280.753,315.698,279.969,315.913,279.888,315.739z"/>
																	</g>
																</g>
															</g>
														</g>
													</g>
												</g>
											</g>
										</g>
									</g>
								</g>
							</g>
						</g>
					</g>
					<g>
						<g>
							<g>
								<g>
									<g>
										<g>
											<g>
												<g>
													<g>
														<g>
															<g>
																<g>
																	<g>
																		<path style="fill:#E0E0E0;" d="M288.303,305.59c-0.192-0.018-0.232-0.938-0.658-1.94
																			c-0.406-1.01-1.029-1.688-0.906-1.837c0.095-0.151,1.038,0.395,1.524,1.581
																			C288.758,304.577,288.476,305.629,288.303,305.59z"/>
																	</g>
																</g>
															</g>
														</g>
													</g>
												</g>
											</g>
										</g>
									</g>
								</g>
							</g>
						</g>
					</g>
					<g>
						<g>
							<g>
								<g>
									<g>
										<g>
											<g>
												<g>
													<g>
														<g>
															<g>
																<g>
																	<g>
																		<path style="fill:#E0E0E0;" d="M292.404,303.17c-0.074,0.028-0.436-0.65-0.638-1.864
																			c-0.1-0.605-0.147-1.341-0.08-2.155c0.034-0.407,0.097-0.832,0.195-1.266c0.05-0.21,0.091-0.451,0.242-0.714
																			c0.119-0.267,0.561-0.549,0.936-0.419c0.352,0.091,0.592,0.384,0.692,0.65c0.104,0.271,0.126,0.512,0.147,0.732
																			c0.044,0.449,0.042,0.884,0.006,1.295c-0.076,0.822-0.283,1.541-0.529,2.108c-0.498,1.14-1.073,1.671-1.13,1.621
																			c-0.089-0.061,0.334-0.679,0.687-1.785c0.175-0.552,0.32-1.229,0.357-1.986c0.016-0.378,0.006-0.776-0.043-1.183
																			c-0.033-0.43-0.147-0.766-0.357-0.806c-0.08-0.013-0.108-0.009-0.194,0.114c-0.077,0.122-0.125,0.317-0.176,0.524
																			c-0.1,0.403-0.171,0.799-0.219,1.179c-0.096,0.76-0.1,1.456-0.063,2.039
																			C292.309,302.421,292.503,303.139,292.404,303.17z"/>
																	</g>
																</g>
															</g>
														</g>
													</g>
												</g>
											</g>
										</g>
									</g>
								</g>
							</g>
						</g>
					</g>
					<g>
						<g>
							<g>
								<g>
									<g>
										<g>
											<g>
												<g>
													<g>
														<g>
															<g>
																<g>
																	<g>
																		<path style="fill:#E0E0E0;" d="M292.061,303.024c-0.05-0.055,0.475-0.641,1.627-1.117
																			c0.572-0.234,1.3-0.419,2.126-0.456c0.413-0.016,0.849,0.007,1.295,0.081c0.443,0.09,1.027,0.184,1.353,0.86
																			c0.142,0.363-0.039,0.768-0.248,0.958c-0.209,0.21-0.416,0.31-0.616,0.429c-0.41,0.22-0.839,0.359-1.253,0.438
																			c-0.832,0.159-1.602,0.064-2.199-0.125c-1.216-0.391-1.696-1.073-1.64-1.109c0.07-0.092,0.64,0.418,1.76,0.652
																			c0.551,0.115,1.238,0.149,1.953-0.02c0.357-0.083,0.72-0.216,1.064-0.409c0.375-0.196,0.642-0.455,0.55-0.589
																			c-0.061-0.186-0.468-0.396-0.836-0.439c-0.399-0.075-0.793-0.108-1.169-0.11
																			c-0.753,0.001-1.431,0.123-1.983,0.286C292.735,302.683,292.123,303.113,292.061,303.024z"/>
																	</g>
																</g>
															</g>
														</g>
													</g>
												</g>
											</g>
										</g>
									</g>
								</g>
							</g>
						</g>
					</g>
				</g>
			</g>
			<g>
				<path style="fill:#263238;" d="M320.289,199.705c0,0-2.404,11.851,1.012,21.168c3.416,9.317,6.537,11.698,6.537,11.698
					l2.929,33.887l-2.929,0.895l-46.809,17.569l6.303,24.291c0,0,61.666-21.128,66.325-25.786
					c4.658-4.658,5.071-10.324,6.313-21.193c1.242-10.869,0.88-47.85,0.88-47.85l-24.471-26.153l-15.414,6.565"/>
			</g>
			<g>
				<path style="fill:#263238;" d="M323.107,209.333c0.555,7.696,8.828,21.643,29.047,15.947
					c20.219-5.695,59.566-23.776,59.566-23.776l2.587,0.644l50.973,48.98l19.398-20.044l-53.771-54.482
					c-4.438-4.551-10.713-6.923-17.031-6.219c-0.497,0.055-0.953,0.127-1.349,0.219c-3.702,0.854-65.499,14.239-65.499,14.239
					l-6.532,1.647l-18.632,7.882L323.107,209.333z"/>
			</g>
			<g>
				<g>
					<path style="fill:#455A64;" d="M419.824,188.21c0.062,0.015-0.073,0.87-0.482,2.204c-0.407,1.333-1.123,3.137-2.174,4.994
						c-1.055,1.856-2.236,3.396-3.171,4.43c-0.935,1.036-1.599,1.59-1.644,1.545c-0.124-0.112,2.302-2.565,4.362-6.232
						C418.805,191.502,419.665,188.161,419.824,188.21z"/>
				</g>
			</g>
			<g>
				<g>
					<path style="fill:#455A64;" d="M342.301,199.957c0.054,0.038-0.427,0.864-1.334,2.115c-0.905,1.25-2.256,2.91-3.907,4.596
						c-1.653,1.684-3.286,3.068-4.518,3.998c-1.232,0.932-2.049,1.429-2.087,1.376c-0.046-0.063,0.692-0.664,1.856-1.662
						c1.164-0.997,2.741-2.409,4.377-4.076c1.633-1.669,3.014-3.273,3.988-4.457C341.651,200.662,342.237,199.912,342.301,199.957z"
						/>
				</g>
			</g>
			<g>
				<g>
					<path style="fill:#263238;" d="M328.842,230.151c7.394,2.878,15.812,3.038,23.309,0.441"/>
				</g>
				<g>
					<g>
						<path style="fill:#455A64;" d="M352.151,230.592c0.012,0.034-0.294,0.168-0.86,0.383c-0.563,0.221-1.4,0.483-2.448,0.753
							c-2.093,0.545-5.077,1.015-8.391,0.957c-3.315-0.067-6.279-0.65-8.35-1.274c-1.037-0.31-1.863-0.603-2.417-0.845
							c-0.557-0.236-0.858-0.381-0.845-0.415c0.032-0.083,1.282,0.381,3.358,0.905c2.074,0.526,4.999,1.042,8.263,1.109
							c3.263,0.057,6.205-0.348,8.298-0.795C350.856,230.924,352.123,230.507,352.151,230.592z"/>
					</g>
				</g>
			</g>
			<g>
				<g>
					<path style="fill:#455A64;" d="M340.497,186.49c0,0,0.279-0.088,0.831-0.236c0.565-0.148,1.384-0.363,2.454-0.644
						c1.083-0.269,2.413-0.652,4.008-1.008c1.598-0.354,3.439-0.762,5.514-1.222c8.32-1.828,20.366-4.475,35.328-7.762
						c7.495-1.624,15.683-3.471,24.566-5.334c4.528-0.708,9.449,0.262,13.627,2.801c2.123,1.219,3.929,2.994,5.642,4.774
						c1.75,1.77,3.524,3.566,5.322,5.385c14.381,14.56,30.269,30.645,47.074,47.659l0.178,0.18l-0.176,0.182
						c-3.672,3.794-7.579,7.833-11.529,11.914c-2.643,2.731-5.267,5.442-7.869,8.13l-0.18,0.186l-0.187-0.18
						c-18.307-17.605-35.598-34.231-50.954-48.999l0.105,0.058c-0.889-0.222-1.74-0.435-2.587-0.646l0.153-0.014
						c-13.883,6.295-26.79,11.779-38.393,16.318c-5.805,2.26-11.283,4.29-16.434,5.939c-2.578,0.818-5.059,1.583-7.504,2.081
						c-2.435,0.518-4.818,0.703-7.076,0.663c-4.537-0.074-8.47-1.635-11.317-3.667c-2.873-2.048-4.699-4.526-5.84-6.651
						c-1.132-2.146-1.668-3.951-1.9-5.181c-0.151-0.609-0.151-1.092-0.203-1.406c-0.035-0.317-0.043-0.478-0.043-0.478
						s0.033,0.16,0.08,0.474c0.064,0.311,0.076,0.79,0.238,1.394c0.255,1.22,0.811,3.007,1.956,5.127
						c1.153,2.099,2.983,4.54,5.836,6.547c2.828,1.99,6.714,3.512,11.202,3.565c2.234,0.03,4.592-0.163,7.005-0.686
						c2.417-0.501,4.894-1.274,7.463-2.099c5.136-1.663,10.603-3.707,16.397-5.98c11.582-4.564,24.476-10.072,38.339-16.382
						l0.074-0.034l0.079,0.02c0.847,0.21,1.698,0.422,2.587,0.643l0.06,0.015l0.045,0.043c15.368,14.756,32.67,31.37,50.991,48.961
						l-0.367,0.007c2.601-2.688,5.225-5.4,7.868-8.131c3.949-4.081,7.858-8.119,11.53-11.913l0.002,0.362
						c-16.792-17.027-32.667-33.126-47.037-47.697c-1.795-1.822-3.567-3.62-5.315-5.393c-1.729-1.8-3.46-3.507-5.547-4.714
						c-4.083-2.495-8.912-3.451-13.329-2.77c-8.838,1.834-17.067,3.668-24.556,5.267c-14.977,3.221-27.035,5.815-35.363,7.606
						c-2.078,0.443-3.924,0.836-5.524,1.178c-1.598,0.341-2.931,0.708-4.018,0.962c-1.076,0.26-1.898,0.459-2.466,0.596
						C340.784,186.434,340.497,186.49,340.497,186.49z"/>
				</g>
			</g>
			<g style="opacity:0.3;">
				<path d="M333.508,224.413c0,0,6.434,5.589,14.602,4.936c8.168-0.653,12.789-2.441,12.789-2.441l-0.005-4.413
					C360.894,222.494,345.043,229.605,333.508,224.413z"/>
			</g>
		</g>
	</g>
</g>
</svg>
