<?xml version="1.0" encoding="UTF-8"?>
<svg xmlns="http://www.w3.org/2000/svg" version="1.1" viewBox="0 0 400.1 198.7">
  <defs>
    <style>
      .cls-1 {
        fill: #7258a2;
      }

      .cls-2 {
        fill: #271d44;
      }

      .cls-3 {
        fill: #fff;
      }

      .cls-4 {
        fill: #101022;
      }

      .cls-5 {
        fill: #4d378d;
      }

      .cls-6 {
        fill: #d0bfdf;
      }

      .cls-7 {
        fill: #e0e0ef;
      }

      .cls-8 {
        fill: #5d4495;
      }

      .cls-9 {
        fill: #51378d;
      }
    </style>
  </defs>
  <!-- Generator: Adobe Illustrator 28.7.1, SVG Export Plug-In . SVG Version: 1.2.0 Build 142)  -->
  <g>
    <g id="Calque_1">
      <g>
        <ellipse class="cls-7" cx="100" cy="186.9" rx="76.7" ry="11.8"/>
        <path class="cls-8" d="M77.5,143.8c-.6.2-.8.6-1.1.9-4.4,5-9.4,9.4-15,13-6.2,4-12.9,6.6-20.2,7.8-2.9.5-5.9.7-8.9.6-6.6-.3-12.9-1.8-18.8-5-2-1.1-4-2.1-5.8-3.6-3.9-3.3-6.3-7.5-7.3-12.5-1.5-6.8,0-12.8,4.6-18.1,3.3-3.8,7.4-5.7,12.4-5.8,3.5,0,6.9.4,10,2.2,3.7,2.1,6.2,5.1,7.2,9.3.5,2.2.4,4.4-.8,6.5-1,1.8-2.4,3.1-4.5,3.6-3.6.9-7.2-1.8-7.4-5.6-.1-2.3.9-3.9,2.9-4.9.1,0,.3-.2.4-.3,0-.6-.3-1-.7-1.3-.8-.8-1.8-1.2-2.8-1.4-2.3-.4-4.4,0-6.4,1.3-2.3,1.6-3.1,3.9-2.9,6.6.2,3.1,1.5,5.8,3.5,8.1,2.4,2.8,5.3,4.5,8.9,5,2.7.4,5.4,0,7.9-.8,6.6-2.2,12-6.1,15.8-12,1.8-2.8,2.8-5.9,3.2-9.3.3-3.1.7-6.2,1.7-9.2v-.5c-.3,0-.6,0-.9.2-2.8.9-5.6,1.4-8.6,1.5-12,.5-22.6-3-32-10.4-5.2-4.2-8.7-9.6-10.3-16.2-1-4.2-1.2-8.5.3-12.6,2.2-6.3,6.5-10.4,13.1-11.8,1.8-.4,3.6-.6,5.5-.6,7.3.3,12.9,4.9,14.6,10.9.8,2.9.8,5.9-.4,8.7-1.3,2.8-3.4,4.8-6.4,5.6-1.7.4-3.4.3-5-.7-2-1.2-3.1-3.8-2.5-6.1.5-1.9,2.1-3.2,4.1-3.2s1.2,0,1.7,0h.8c.4-.7.4-1.3.2-2-.5-2.9-3.2-5.1-6.3-5.3-2.8,0-5,.9-6.7,3.2-2.1,2.7-2.8,5.8-2.5,9.2.8,6.9,5.7,12.9,13.8,14.7,4.9,1,9.6.3,14.2-1.8,4.6-2.2,8.3-5.5,11.2-9.6.6-.8.5-.8,0-1.6-4.4-6.1-7.1-12.9-8.6-20.3-1.2-5.5-1.4-11.1-.9-16.7,1.1-12.8,5.9-24,14.4-33.7,7.8-8.9,17.5-14.9,28.9-18.1C88,.9,91,.3,94,0c2.5-.3,5-.4,7.4-.3,9.3.3,18.1,2.4,26.3,6.8,10.4,5.7,18.6,13.6,24.3,24,3.3,6,5.5,12.4,6.5,19.2.7,4.5.8,9,.5,13.5-.6,8.4-3,16.2-7.2,23.4-1,1.7-2.2,3.3-3.3,5-.3.4-.4.7,0,1.2,3,4.3,6.8,7.7,11.7,9.7,3,1.2,6.1,1.8,9.3,1.7,5.7-.3,10.6-2.3,14.4-6.8,2.8-3.3,4.1-7.2,3.7-11.5-.3-2.9-1.5-5.4-3.7-7.4-1.9-1.6-4.1-2.3-6.6-1.8-2.4.6-5.2,3.1-4.8,6.3,0,.4.2.8.4,1.3.5,0,1-.2,1.4-.3,2.6-.4,5.5,1.1,5.3,4.6-.1,2.2-1.7,4.2-3.9,4.8-1.8.5-3.5.3-5.2-.5-3.1-1.5-4.9-4.1-5.6-7.4-.7-3.7.1-7.1,2.2-10.2,2.5-3.7,6.1-6,10.5-6.6,6.2-.8,11.7.7,16.1,5.2,2.7,2.8,4.3,6.2,4.8,10.2.7,5.4-.4,10.5-2.9,15.3-3.1,6.1-7.8,10.8-13.7,14.2-5.4,3.1-11.1,4.9-17.3,5.8-5.4.7-10.8.7-16.2-.7-2.2-.6-4.3-1.3-6.2-2.4-.1,0-.3,0-.5-.2-.2.8,0,1.5,0,2.2.8,4.9,2.5,9.4,5,13.7,2.8,4.6,6.2,8.7,10.4,12,3.2,2.5,6.7,4.2,10.7,5.1,7.5,1.6,13.6-1.4,17.1-7.6,1.1-2,1.6-4.3,1.3-6.6-.4-3.1-2.8-5.5-5.9-5.9-2.1-.3-4.1.2-5.8,1.4-.5.4-1,.8-1.3,1.5.3.1.5.3.8.4,3,1.1,3.8,4.6,2,7.1-1.3,1.8-3.1,2.9-5.3,2.9s-5.3-1.9-6.2-4.6c-.9-2.8-.7-5.6.6-8.3,2-4,5.2-6.7,9.3-8.2,5.2-1.9,10.2-1.3,14.9,1.4,5.4,3.1,8.7,7.9,9.9,14,.9,5,0,9.8-2.2,14.3-2.5,4.9-6.3,8.2-11.2,10.6-4.3,2.1-8.7,3.4-13.4,4-3.7.5-7.4.4-11,0-9.4-1.2-17.7-4.9-25.3-10.3-6.9-4.9-12.9-10.5-18.3-17-2.2-2.7-4.1-5.6-6.1-8.4-.2-.2-.3-.5-.5-.8-.2.1-.4.2-.5.4-3.1,3.4-6.1,7-8.3,11.1-2.1,3.9-3.2,8.1-3.1,12.5,0,4.5,1.4,8.7,4.5,12.1,3.3,3.7,7.6,5.3,12.5,4.9,5.5-.5,10.1-5.4,9.5-11.4-.3-3.1-2.6-5.8-5.6-6.4-1.1-.2-2.1-.1-3,.5-.7.4-1.1,1-1.4,1.7-.4,1.1-.3,1.4.8,1.9,2.2,1.1,2.8,3.5,1.2,5.4-1.3,1.6-3.5,2.1-5.6,1.1-2.5-1.1-4-4-3.7-6.8.4-3.5,3.2-7.4,8.1-8.7,4.3-1.1,8.1,0,11.3,3,3.8,3.6,5.4,8.1,4.8,13.3-.6,5.4-2.9,9.9-7.1,13.4-2.8,2.3-6,3.5-9.5,4.1-6.1.9-11.7-.6-17.1-3.3-11.2-5.6-18-14.6-20.8-26.6-.5-2.1-.7-4.3-1-6.5v-.7h0l.4-.2h-.1ZM42.3,59.7c.5-.2.8-.3,1.1-.5,6.6-3.3,13.1-6.7,19.7-10,5.5-2.8,11-5.5,16.6-8.3s14-6.9,20.9-10.4c6-3,12-6,17.9-9.1,2.3-1.2,4.6-2.5,6.9-3.8,1.3-.8,2.5-1.7,3.4-3,1.2-1.9,1-3.4-.5-5s-3.4-2.6-5.4-3.5c-5.6-2.5-11.5-3.8-17.7-4.2-2.3-.1-4.7-.3-7.1,0-2.2.3-4.5.3-6.7.7-8.9,1.6-17.1,5.1-24.6,10.4-5.3,3.7-9.8,8.2-13.6,13.4-2.7,3.7-4.9,7.6-6.7,11.8-1.3,3-2.4,6.1-3.1,9.4-.6,3-1,5.9-1.2,8.9v3.2h0ZM57,68.2c0,8.2,6.7,15.1,14.6,15.1s15.2-6.9,15.1-14.8c0-9-7.2-15.1-14.9-15.1s-14.9,7.3-14.9,14.8h.1ZM129.7,83.1c8.1,0,14.9-6.6,14.9-14.9s-6.9-14.7-14.9-14.7-14.6,6-14.6,14.8,7.3,15,14.6,14.9h0ZM3.4,86.5c0,.3,0,.8.2,1.3,0,.4.3.7.7.7s.7-.3.9-.7c0-.2.2-.5.2-.8.2-.9.3-1.9.6-2.8.8-3.1,2.1-5.8,4.4-8.1,1.4-1.3,2.9-2.4,4.7-3.1.5-.2,1-.5,1.4-.8.2-.2.3-.6.2-.9,0-.2-.5-.4-.7-.4-.5,0-1.1,0-1.6.3-7.5,2.6-10.5,9.2-10.9,15.2h0ZM119.1,21.9c-1.2,0-2.1.9-2.1,2.1s1,2.4,2.2,2.4,2.1-1,2.1-2.2-1-2.2-2.2-2.2h0Z"/>
        <path class="cls-1" d="M42.3,59.7v-3.2c.2-3,.5-6,1.2-8.9.7-3.2,1.8-6.3,3.1-9.4,1.9-4.1,4-8.1,6.7-11.8,3.8-5.2,8.3-9.7,13.6-13.4,7.4-5.3,15.6-8.7,24.6-10.4,2.2-.4,4.4-.4,6.7-.7,2.4-.3,4.7,0,7.1,0,6.1.4,12,1.7,17.7,4.2,2,.9,3.9,1.9,5.4,3.5,1.5,1.6,1.7,3.1.5,5-.9,1.3-2,2.3-3.4,3-2.3,1.3-4.6,2.6-6.9,3.8-6,3-11.9,6.1-17.9,9-7,3.5-14,6.9-20.9,10.4-5.5,2.8-11.1,5.5-16.6,8.3-6.6,3.3-13.2,6.7-19.7,10-.3.2-.6.3-1.1.5h0ZM89.4,17.2h0c-.2-.1-.4-.4-.7-.5-1.5-.6-3.9-.4-5.3,1-1.7,1.6-2.1,4.4-.9,6.4,1.3,2.1,3.5,3.1,6,2.5,1.9-.4,2.9-1.9,3.4-3.6.6-2,0-3.8-1.4-5.2-.3-.3-.7-.4-1.1-.6Z"/>
        <path class="cls-3" d="M57,68.2c0-7.5,6.2-14.8,14.9-14.8s14.9,6.1,14.9,15.1-6.4,14.8-15.1,14.8-14.7-6.9-14.6-15.1c0,0,0,0-.1,0ZM63.8,69.4c0,5.2,4.2,9.6,9.4,9.7,5.8,0,10.1-4.9,10.2-9.9,0-5.2-4.3-9.8-9.4-9.8s-10.1,4.6-10.2,10Z"/>
        <path class="cls-3" d="M129.7,83.1c-7.3.2-14.6-5.8-14.6-14.9s7.3-14.8,14.6-14.8,14.8,6.2,14.9,14.7c0,8.4-6.8,15.1-14.9,14.9h0ZM118.5,69.3v1.2c.6,4.8,5,8.7,9.8,8.6,5.9-.2,9.3-5.4,9.4-9.5,0-4.4-3.2-8.8-7.5-9.9-3.8-1-7.1,0-9.7,3.1-1.5,1.8-2.1,4-2.2,6.5,0,0,.2,0,.2,0Z"/>
        <path class="cls-6" d="M3.4,86.5c.5-6,3.4-12.7,10.9-15.2.5-.2,1.1-.2,1.6-.3.2,0,.6.2.7.4,0,.2,0,.7-.2.9-.4.3-.9.6-1.4.8-1.8.7-3.3,1.8-4.7,3.1-2.3,2.2-3.6,5-4.4,8.1-.2.9-.4,1.9-.6,2.8,0,.2,0,.5-.2.8-.2.4-.4.7-.9.7s-.6-.3-.7-.7c0-.5-.2-1-.2-1.3h0Z"/>
        <path class="cls-6" d="M119.1,21.9c1.2,0,2.2,1,2.2,2.2s-1,2.2-2.1,2.2-2.2-1-2.2-2.4.9-2.1,2.1-2.1h0Z"/>
        <path class="cls-2" d="M63.8,69.4c0-5.4,4.8-10.1,10.2-10,5.1,0,9.5,4.6,9.4,9.8,0,5-4.3,10-10.2,9.9-5.1,0-9.4-4.5-9.4-9.7ZM75.7,64.6c0-1.7-1.2-2.8-3-2.8s-2.6,1.1-2.6,2.6,1.2,2.9,2.9,2.8c1.5,0,2.7-1.2,2.7-2.7h0Z"/>
        <path class="cls-2" d="M118.5,69.3c0-2.4.7-4.6,2.2-6.5,2.5-3.1,5.8-4.1,9.7-3.1,4.3,1.1,7.5,5.4,7.5,9.9s-3.5,9.3-9.4,9.5c-4.8,0-9.3-3.8-9.8-8.6v-1.2s-.2,0-.2,0ZM128.5,61.8c-1.6,0-2.6,1.1-2.6,2.7s1.2,2.8,2.7,2.8,2.8-1.3,2.8-2.9-1.2-2.7-2.9-2.7h0Z"/>
        <path class="cls-6" d="M89.6,16.8c.4.4.9.8,1.3,1.2,2.4,2.9,1.3,6.5-1.2,8.2-2.7,1.7-7.1.3-7.9-3.6-.7-3.2,1.5-6.1,4.8-6.4,1.1-.1,2.1.3,3.1.7h-.1Z"/>
        <path class="cls-3" d="M75.7,64.6c0,1.6-1.1,2.7-2.7,2.7s-2.9-1.2-2.9-2.8,1-2.6,2.6-2.6,2.9,1.1,3,2.8h0Z"/>
        <path class="cls-3" d="M128.5,61.8c1.7,0,2.9,1.1,2.9,2.7s-1.2,2.8-2.8,2.9c-1.5,0-2.7-1.2-2.8-2.8,0-1.6,1-2.7,2.6-2.7h.1Z"/>
        <path class="cls-4" d="M111.4,85.6l.2-.2.2-.2c.2,0,.4,0,.7-.2,1-.2,1.7.3,1.8,1.3,0,.9,0,1.7-.6,2.4-1.5,2.5-3.7,4.2-6.3,5.2-4.8,1.8-9.6,1.6-14.2-.7-2.1-1.1-3.8-2.7-5-4.7-.3-.6-.6-1.2-.5-1.8,0-.7.5-1.3,1.2-1.5s1.2,0,1.6.7c.5.7.9,1.5,1.5,2.2,1.8,2,4.2,3.1,6.8,3.5,2,.3,4,.2,5.9-.3,2.2-.7,4.2-1.8,5.5-3.7.4-.6.7-1.2,1.1-1.9h.1Z"/>
        <path class="cls-9" d="M4.2,147.5c.5.9,1,1.7,1.6,2.6.6,1.1,1.4,2,2.3,2.9s1.9,1.8,3,2.6c3.4,2.5,7.3,4.1,11.3,5.1,1.6.4,3.3.7,5,.9,2.1.3,4.1.2,6.2.1,2,0,4-.4,5.9-.8,3.1-.7,6.1-1.7,9-3,3.5-1.6,6.6-3.6,9.6-5.9,1.7-1.3,3.2-2.6,4.7-4.1.2-.2.4-.4.6-.7,1-.8,1.8-1.8,2.6-2.7.9-1.1,1.8-2.2,2.7-3.3,1.5-1.8,2.8-3.8,4.1-5.7,2.7-3.9,4.8-8.2,6.9-12.4,1.8-3.7,3.2-7.4,4.6-11.3.9-2.6,1.6-5.2,2.2-7.9v-.6s.2,0,.4.2v3.2c0,1.1-.2,2.1-.3,3.2,0,1.2-.3,2.4-.4,3.5-.2,1.5-.4,3-.7,4.5-.2,1.6-.5,3.1-.7,4.7-.2,1.3-.4,2.6-.6,3.9,0,.8,0,1.5-.2,2.3,0,1.1-.3,2.2-.3,3.4s0,1.7-.2,2.5v8.1c0,1.2.2,2.4.3,3.6.2,1.4.4,2.9.6,4.3.4,2.6,1.1,5.2,2,7.6.9,2.5,2.1,4.9,3.6,7.1,0,.2.2.3.4.4,0,.2,0,.4.2.5,1.7,2.6,4,4.7,6.4,6.7.6.5,1.3.8,1.7,1.4-.2.3-.5,0-.7,0-1.5-.9-3.1-1.6-4.5-2.6-1-.7-2-1.3-3-2-.2-.1-.3-.3-.5,0v.2c.8.9,1.6,1.7,2.3,2.6l.5.5c.2.3,0,.4-.3.4-1.5-1.1-2.9-2.4-4.2-3.8-5.6-6.1-8.8-13.3-10.1-21.4-.2-1.3-.3-2.6-.5-4-.4,0-.5.3-.7.5-3.8,4.4-8,8.3-12.7,11.6-4.6,3.3-9.6,5.9-15,7.6-.2,0-.4,0-.6.1-.2,0-.5,0-.6.2h0c-.2,0-.4,0-.6.2h0c-.3,0-.5,0-.7.2h0c-.2,0-.4,0-.6.2h0c-.2,0-.5,0-.7.2h0c-.3,0-.7-.1-.9.2h0c-.4,0-.8,0-1.2.1-1.9.4-3.9.8-5.9.8h-6.1c-2,0-.7.1-.9-.2.2-.2.6-.5,0-.6-.2,0-.4-.1-.6-.2-1.1-.3-2.2-.2-3.3-.5-2-.6-3.9-1.2-5.9-1.9-.5-.1-.9-.3-1.4-.5-2.5-1.2-4.9-2.4-7.1-4.2-2.2-1.7-4.1-3.7-5.9-5.8-.4-.5-.8-1.2-1.2-1.8-.6-.8-.9-1.7-1.3-2.6v-.2h0l.3-.2h0Z"/>
        <path class="cls-9" d="M174.6,112.7c.9,0,1.8-.5,2.6-.9,3.3-1.3,6.4-3.1,9.2-5.3,2.6-2,4.9-4.3,6.6-7.1,1.7-2.7,2.9-5.7,3.3-8.9,0-.6.2-1.3.2-1.9.3,0,.4.3.4.6,0,.9,0,1.7-.2,2.6-.2,1.5-.5,3-.8,4.5-.2.9-.6,1.8-.9,2.8-.1.3-.2.7.1,1,.4-.8.9-1.4,1.1-2.2.1-.3.2-.7.7-.7-.8,2.2-1.9,4.3-3.3,6.2-4,5.6-9.2,9.7-15.5,12.4-5.4,2.4-11.1,3.8-17,4.1-4.7.3-9.3,0-13.8-1.4-1.9-.6-3.7-1.2-5.3-2.3,0-.2-.2-.2-.4-.2,0-2.8.5-5.5,1.8-8,.1-.3.2-.7.7-.8,0,.4-.1.7-.2,1-.2.6,0,1,.4,1.4,1.8,1.4,3.7,2.5,5.8,3.3,2.4.9,4.8,1.4,7.3,1.7,2.2.3,4.4.3,6.7.2,2.5-.2,5-.6,7.4-1.2,1-.3,2.1-.4,3-.9h0Z"/>
        <path class="cls-9" d="M53.8,118.5c-.4,0-.8,0-1.2.2-2,.6-4,1-6,1.2-2.6.3-5.2,0-7.7.2-.7,0-1.4-.2-2.1-.4-2.9-.5-5.7-1.4-8.4-2.3-2.8-1-5.5-2.3-8.1-3.8-1.6-1-3.3-1.9-4.9-3-1.4-.9-2.8-1.9-3.9-3.1-1.2-1.2-2.5-2.3-3.5-3.7-.4-.6-.8-1.2-.8-1.9.7.8,1.4,1.7,2.1,2.5.2.3.4.6.7.8,1.7,1.4,3.3,2.9,5.2,4.1,4.3,2.7,8.9,4.6,13.8,5.6,1.8.4,3.6.6,5.4.8,1.1,0,2.2.2,3.4,0,2.9,0,5.8-.5,8.7-1.3,3.6-1,7-2.5,10.2-4.4,1.1-.7,2-1.5,3.1-2.2.2,0,.3-.3.5-.2.2.2,0,.3,0,.4-2.3,2.9-4.2,6.1-5.6,9.6,0,.3,0,.8-.6.8h-.3Z"/>
        <path class="cls-5" d="M169.7,161.3c1.7,0,3.4,0,5.1-.2,3.2-.4,6.4-1.1,9.4-2.4,2.5-1.1,4.8-2.5,6.9-4.2.2-.1.3-.3.6-.3s.4,0,.3.4c-.8,1.2-1.6,2.4-2.8,3.3-2,1.6-4.2,2.8-6.6,3.9-2.2.9-4.5,1.8-6.9,2.2-.8.1-1.6,0-2.4.2-1,.2-2,.4-3,.3-2,0-3.9,0-5.9-.2-1.6-.2-3.2-.5-4.9-.7-1.4-.2-2.8-.7-4.2-1.1-2.9-.7-5.7-1.6-8.4-3-2.1-1.1-4.3-2.1-6.2-3.5-1.5-1.1-3.2-2-4.7-3.2-.2-.2-.5-.4-.8-.6-1.8-1-3.3-2.3-4.7-3.7-2-1.9-4.1-3.8-5.9-5.8-1.6-1.8-3.4-3.4-4.9-5.3-1.1-1.4-2.3-2.7-3.4-4.2-.4-.7-1-1.2-1.6-1.8,0-.1-.2-.2-.5-.1,0,.6.3,1.1.7,1.6.9,1.2,1.6,2.4,2.5,3.6,1,1.2,1.8,2.6,3,3.7.3.3.6.7.5,1.2-1.4-1.4-2.7-2.9-3.9-4.4-2-2.6-3.9-5.2-5.5-7.9-.5.2-.7.7-1.1.9,0,0-.2-.2,0-.3,0-.2.2-.3.4-.4,1.6-1,2.1-2.8,2.8-4.3.8-1.7,1.1-3.5,1.3-5.3.2-1.8,0-3.4-.2-5.2,0-1-.4-1.9-.5-3,.3.4.4.7.5,1,.7,2.6,1.8,5.1,2.9,7.5,2.2,4.8,4.7,9.4,7.8,13.7,1.6,2.3,3.3,4.6,5.2,6.7,1.4,1.6,2.9,3.2,4.4,4.8.3.3.6.6,1.1.8h0c.2.3.4.6.8.8.5.8,1.3,1.2,1.9,1.7,0,.2.2.3.4.4.1,0,.3.1.4.2.2.2.3.4.5.6,2.6,2,5.4,4,8.3,5.6,3.8,2.1,7.7,3.7,11.9,4.8,1.7.4,3.4.8,5.1,1,1.4.2,2.9.1,4.3.4h0v-.2h0Z"/>
        <g>
          <path class="cls-2" d="M221.5,105c-3,0-5.5-.6-7.7-1.8-2.2-1.2-3.8-3-5-5.3-1.2-2.3-1.8-5-1.8-8.3h0c0-3.2.6-6,1.8-8.3s2.8-4,5-5.2c2.2-1.2,4.7-1.8,7.6-1.8s4.9.5,6.8,1.5,3.5,2.4,4.7,4.1,1.8,3.7,1.8,5.9v.2s-7.2,0-7.2,0v-.3c-.2-1-.5-2-1.1-2.7-.5-.8-1.2-1.4-2-1.9s-1.9-.7-3-.7-2.6.4-3.6,1.1c-1,.7-1.8,1.8-2.3,3.1s-.8,3-.8,4.9h0c0,1.9.3,3.6.8,4.9s1.3,2.4,2.3,3.1,2.2,1.1,3.6,1.1,2.1-.2,2.9-.6,1.5-1,2.1-1.8.9-1.8,1.1-2.9v-.2h7.3v.2c0,2.2-.7,4.2-1.9,5.9s-2.7,3.1-4.7,4.1c-2,1-4.2,1.5-6.8,1.5Z"/>
          <path class="cls-2" d="M238.4,104.4v-29.6h7.5v29.6h-7.5Z"/>
          <path class="cls-2" d="M261.8,105c-2.5,0-4.6-.4-6.4-1.1-1.8-.7-3.2-1.7-4.2-3-1-1.3-1.6-2.9-1.7-4.8v-.4s7,0,7,0v.2c.2.6.5,1.2,1,1.7.5.5,1.1.8,1.9,1.1s1.6.4,2.6.4,1.9-.1,2.6-.4c.7-.3,1.3-.6,1.7-1.1s.6-1,.6-1.6h0c0-.9-.4-1.5-1.1-2s-2-.9-3.7-1.2l-3-.6c-2.9-.5-5.2-1.5-6.7-3-1.5-1.4-2.3-3.3-2.3-5.5h0c0-1.9.5-3.6,1.5-5s2.4-2.5,4.2-3.3c1.8-.8,3.8-1.2,6-1.2s4.6.4,6.3,1.1,3.1,1.8,4,3.1,1.5,2.9,1.5,4.7v.4s-7,0-7,0v-.2c-.1-.7-.4-1.2-.8-1.7s-1-.8-1.7-1.1-1.5-.4-2.4-.4-1.7.1-2.3.4-1.1.6-1.5,1.1c-.3.4-.5.9-.5,1.5h0c0,.8.4,1.4,1.1,1.9s1.9.8,3.5,1.1l3,.6c2.1.4,3.8,1,5.2,1.7s2.4,1.6,3,2.8,1,2.5,1,4.1h0c0,2-.5,3.7-1.5,5.1-1,1.4-2.4,2.6-4.3,3.4s-4.1,1.2-6.7,1.2Z"/>
          <path class="cls-2" d="M291.5,105c-3,0-5.6-.6-7.8-1.9s-3.9-3-5.1-5.3-1.8-5-1.8-8.2h0c0-3.2.6-5.9,1.8-8.2s2.9-4,5.1-5.3,4.8-1.9,7.7-1.9,5.6.6,7.8,1.9,3.9,3,5.1,5.3c1.2,2.3,1.8,5,1.8,8.1h0c0,3.2-.6,5.9-1.8,8.2-1.2,2.3-2.9,4.1-5,5.3-2.2,1.2-4.8,1.9-7.8,1.9ZM291.5,98.7c1.4,0,2.7-.4,3.7-1.1s1.8-1.8,2.4-3.2.8-3,.8-4.8h0c0-1.9-.3-3.5-.9-4.9s-1.4-2.4-2.4-3.1-2.3-1.1-3.7-1.1-2.6.4-3.6,1.1c-1,.7-1.9,1.8-2.4,3.1-.6,1.4-.9,3-.9,4.8h0c0,1.9.3,3.5.9,4.9.6,1.4,1.4,2.4,2.4,3.1s2.3,1.1,3.7,1.1Z"/>
          <path class="cls-2" d="M206.2,154.8l10-29.6h6.9v6.4h-2.4l-6.6,23.2h-7.9ZM212.1,148.3l1.7-5.4h14.2l1.7,5.4h-17.5ZM227.5,154.8l-6.6-23.2v-6.4h4.6l10,29.6h-7.9Z"/>
          <path class="cls-2" d="M247.3,155.3c-2.2,0-4.1-.3-5.6-.9-1.5-.6-2.7-1.5-3.6-2.6s-1.4-2.4-1.5-3.8v-.2s7,0,7,0v.2c.2.8.6,1.3,1.2,1.8.6.4,1.4.6,2.5.6s1.2,0,1.7-.2.8-.4,1.1-.6.4-.6.4-1h0c0-.5-.2-.9-.6-1.2-.4-.3-1.1-.6-2.1-.8l-3.9-.8c-1.4-.3-2.7-.7-3.7-1.3-1-.6-1.7-1.3-2.2-2.2-.5-.9-.7-1.9-.7-3h0c0-1.5.4-2.8,1.2-3.9.8-1.1,1.9-1.9,3.4-2.5,1.5-.6,3.3-.9,5.3-.9s4,.3,5.4,1c1.5.7,2.6,1.5,3.4,2.6s1.2,2.3,1.2,3.7v.2h-6.6v-.2c0-.7-.4-1.2-1-1.7-.6-.5-1.3-.7-2.4-.7s-1.1,0-1.5.2c-.4.2-.8.4-1,.7-.2.3-.4.6-.4,1h0c0,.3,0,.6.2.9s.5.5.9.6,1,.3,1.7.5l3.9.8c2.4.5,4.1,1.2,5.2,2.2,1.1,1,1.6,2.3,1.6,4h0c0,1.6-.4,2.9-1.3,4s-2.1,2-3.6,2.6-3.3.9-5.4.9Z"/>
          <path class="cls-2" d="M270,155.3c-2.2,0-4.1-.3-5.6-.9-1.5-.6-2.7-1.5-3.6-2.6s-1.4-2.4-1.5-3.8v-.2s7,0,7,0v.2c.2.8.6,1.3,1.2,1.8.6.4,1.4.6,2.5.6s1.2,0,1.7-.2.8-.4,1.1-.6.4-.6.4-1h0c0-.5-.2-.9-.6-1.2-.4-.3-1.1-.6-2.1-.8l-3.9-.8c-1.4-.3-2.7-.7-3.7-1.3-1-.6-1.7-1.3-2.2-2.2-.5-.9-.7-1.9-.7-3h0c0-1.5.4-2.8,1.2-3.9.8-1.1,1.9-1.9,3.4-2.5,1.5-.6,3.3-.9,5.3-.9s4,.3,5.4,1c1.5.7,2.6,1.5,3.4,2.6s1.2,2.3,1.2,3.7v.2h-6.6v-.2c0-.7-.4-1.2-1-1.7-.6-.5-1.3-.7-2.4-.7s-1.1,0-1.5.2c-.4.2-.8.4-1,.7-.2.3-.4.6-.4,1h0c0,.3,0,.6.2.9s.5.5.9.6,1,.3,1.7.5l3.9.8c2.4.5,4.1,1.2,5.2,2.2,1.1,1,1.6,2.3,1.6,4h0c0,1.6-.4,2.9-1.3,4s-2.1,2-3.6,2.6-3.3.9-5.4.9Z"/>
          <path class="cls-2" d="M286.6,130.1c-1,0-1.9-.4-2.6-1.1-.7-.7-1.1-1.6-1.1-2.5s.4-1.8,1.1-2.5c.7-.7,1.6-1.1,2.6-1.1s1.9.4,2.6,1.1,1.1,1.5,1.1,2.5-.4,1.8-1.1,2.5-1.6,1.1-2.6,1.1ZM282.9,154.8v-22.3h7.3v22.3h-7.3Z"/>
          <path class="cls-2" d="M303.6,155.3c-2.2,0-4.1-.3-5.6-.9-1.5-.6-2.7-1.5-3.6-2.6s-1.4-2.4-1.5-3.8v-.2s7,0,7,0v.2c.2.8.6,1.3,1.2,1.8.6.4,1.4.6,2.5.6s1.2,0,1.7-.2.8-.4,1.1-.6.4-.6.4-1h0c0-.5-.2-.9-.6-1.2-.4-.3-1.1-.6-2.1-.8l-3.9-.8c-1.4-.3-2.7-.7-3.7-1.3-1-.6-1.7-1.3-2.2-2.2-.5-.9-.7-1.9-.7-3h0c0-1.5.4-2.8,1.2-3.9.8-1.1,1.9-1.9,3.4-2.5,1.5-.6,3.3-.9,5.3-.9s4,.3,5.4,1c1.5.7,2.6,1.5,3.4,2.6s1.2,2.3,1.2,3.7v.2h-6.6v-.2c0-.7-.4-1.2-1-1.7-.6-.5-1.3-.7-2.4-.7s-1.1,0-1.5.2c-.4.2-.8.4-1,.7-.2.3-.4.6-.4,1h0c0,.3,0,.6.2.9s.5.5.9.6,1,.3,1.7.5l3.9.8c2.4.5,4.1,1.2,5.2,2.2,1.1,1,1.6,2.3,1.6,4h0c0,1.6-.4,2.9-1.3,4s-2.1,2-3.6,2.6-3.3.9-5.4.9Z"/>
          <path class="cls-2" d="M326.2,155.3c-2.7,0-4.7-.5-6-1.6-1.3-1.1-1.9-2.9-1.9-5.4v-10.5h-3v-5.3h3v-5.1h7.3v5.1h4v5.3h-4v9.5c0,1,.2,1.6.7,2s1.1.6,2,.6.6,0,.8,0c.2,0,.4,0,.6,0v5.2c-.4,0-.9.1-1.4.2s-1.2,0-2,0Z"/>
          <path class="cls-2" d="M339.2,155.1c-1.5,0-2.8-.3-3.9-.9-1.1-.6-2-1.4-2.7-2.4-.6-1-1-2.2-1-3.5h0c0-1.4.4-2.6,1.1-3.6.7-1,1.7-1.8,3.1-2.3,1.3-.6,3-.9,4.9-1l8.9-.6v4.2l-7.8.5c-1,0-1.8.3-2.3.7s-.8.9-.8,1.6h0c0,.7.3,1.3.8,1.6.5.4,1.3.6,2.1.6s1.5-.1,2.1-.4c.6-.3,1.1-.7,1.4-1.2.3-.5.5-1.1.5-1.7v-6.8c0-.8-.3-1.4-.8-1.9-.5-.5-1.3-.7-2.3-.7s-1.8.2-2.3.6-.9.9-1,1.5v.2h-6.6v-.3c.1-1.5.6-2.7,1.5-3.8s2-1.9,3.5-2.6c1.5-.6,3.3-.9,5.4-.9s3.7.3,5.2.9c1.5.6,2.7,1.5,3.5,2.6.8,1.1,1.2,2.5,1.2,4v15.3h-7.3v-3.2h-.1c-.4.7-1,1.3-1.6,1.9s-1.3.9-2.2,1.2-1.7.4-2.7.4Z"/>
          <path class="cls-2" d="M356.5,154.8v-22.3h7.3v3.9h.1c.6-1.4,1.4-2.5,2.6-3.3s2.5-1.1,4.2-1.1c2.5,0,4.4.7,5.7,2.2,1.3,1.5,2,3.6,2,6.2v14.4h-7.3v-12.8c0-1.3-.3-2.3-.9-3-.6-.7-1.5-1.1-2.7-1.1s-1.4.2-2,.5-1,.8-1.3,1.5c-.3.6-.5,1.4-.5,2.2v12.7h-7.3Z"/>
          <path class="cls-2" d="M391.5,155.3c-2.7,0-4.7-.5-6-1.6-1.3-1.1-1.9-2.9-1.9-5.4v-10.5h-3v-5.3h3v-5.1h7.3v5.1h4v5.3h-4v9.5c0,1,.2,1.6.7,2s1.1.6,2,.6.6,0,.8,0c.2,0,.4,0,.6,0v5.2c-.4,0-.9.1-1.4.2s-1.2,0-2,0Z"/>
        </g>
        <g>
          <rect class="cls-9" x="306.2" y="163.6" width="90" height="25"/>
          <g>
            <path class="cls-3" d="M312.5,177.9c0,.6.2,1.1.6,1.5.4.4,1,.6,1.6.6s1.6-.3,2.1-1l1.5.8c-.5.7-1,1.2-1.6,1.4-.5.3-1.2.4-2,.4-1.3,0-2.3-.4-3.1-1.1s-1.1-1.8-1.1-3,.4-2.4,1.3-3.3c.8-.9,1.9-1.3,3.2-1.3s2.2.4,2.9,1.2c.7.8,1.1,1.9,1.1,3.2s0,.4,0,.7h-6.4ZM317,176.3c-.2-1.3-.9-1.9-2.1-1.9s-1.9.6-2.2,1.9h4.4Z"/>
            <path class="cls-3" d="M323.6,173v.8c.7-.6,1.5-1,2.2-1s1.5.2,1.9.7c.5.5.7,1.1.7,1.8s0,.9-.1,1.5l-.6,4.4h-1.9l.6-4.9c0-.2,0-.3,0-.5,0-.1,0-.3,0-.4,0-.8-.4-1.1-1.2-1.1s-.9.2-1.3.5c-.3.2-.5.5-.7.9,0,.2-.1.4-.2.6,0,.3,0,.5-.1.9l-.5,4h-1.9l1-8.3h1.9Z"/>
            <path class="cls-3" d="M333.4,174.8l-.8,6.5h-1.9l.8-6.5h-1.1l.2-1.8h1.1l.5-3.8h1.9l-.5,3.8h1.8l-.2,1.8h-1.8Z"/>
            <path class="cls-3" d="M338.1,177.9c0,.6.2,1.1.6,1.5.4.4,1,.6,1.6.6s1.6-.3,2.1-1l1.5.8c-.5.7-1,1.2-1.6,1.4-.5.3-1.2.4-2,.4-1.3,0-2.3-.4-3.1-1.1s-1.1-1.8-1.1-3,.4-2.4,1.3-3.3c.8-.9,1.9-1.3,3.2-1.3s2.2.4,2.9,1.2c.7.8,1.1,1.9,1.1,3.2s0,.4,0,.7h-6.4ZM342.6,176.3c-.2-1.3-.9-1.9-2.1-1.9s-1.9.6-2.2,1.9h4.4Z"/>
            <path class="cls-3" d="M349.2,173v.7c.6-.6,1.2-.9,1.9-.9s1.1.2,1.6.6l-1.2,1.6c-.4-.3-.7-.5-1.1-.5s-.5,0-.7.1c-.2,0-.4.2-.5.5-.1.2-.3.5-.3.8,0,.3-.2.7-.2,1.2l-.5,4.1h-1.9l1-8.3h1.9Z"/>
            <path class="cls-3" d="M356.2,173v.9c.7-.7,1.6-1.1,2.5-1.1s2,.4,2.8,1.2,1.1,1.7,1.1,2.9-.4,2.4-1.3,3.3c-.8.9-1.9,1.3-3.1,1.3s-1.2,0-1.6-.3c-.4-.2-.9-.6-1.3-1.1l-.7,5.9h-1.9l1.6-13h1.9ZM360.7,177c0-.7-.2-1.3-.6-1.8-.4-.5-1-.7-1.6-.7s-1.4.3-2,.9-.8,1.3-.8,2.1.2,1.3.7,1.8c.4.5,1,.7,1.7.7s1.4-.3,1.9-.8c.5-.6.8-1.3.8-2.1Z"/>
            <path class="cls-3" d="M367.3,173v.7c.6-.6,1.2-.9,1.9-.9s1.1.2,1.6.6l-1.2,1.6c-.4-.3-.7-.5-1.1-.5s-.5,0-.7.1c-.2,0-.4.2-.5.5-.1.2-.3.5-.3.8,0,.3-.2.7-.2,1.2l-.5,4.1h-1.9l1-8.3h1.9Z"/>
            <path class="cls-3" d="M374.3,173l-1,8.3h-1.9l1-8.3h1.9ZM374.9,169.1c0,.3-.1.5-.3.7s-.5.3-.7.3-.5-.1-.7-.3c-.2-.2-.3-.5-.3-.8s0-.5.3-.7.4-.3.7-.3.5.1.7.3c.2.2.3.5.3.8Z"/>
            <path class="cls-3" d="M382,173.9l-1.1,1.1c-.5-.5-1-.7-1.4-.7s-.5,0-.7.2c-.2.2-.3.4-.3.6s0,.4.2.6c.2.2.5.4,1,.7.7.4,1.2.8,1.5,1.1.3.3.4.8.4,1.3,0,.8-.3,1.4-.8,1.9-.6.5-1.3.7-2.2.7s-2.2-.5-3-1.6l1.3-.9c.5.6,1.1.9,1.7.9s.6,0,.8-.3c.2-.2.3-.4.3-.7s0-.4-.3-.6c0,0-.2-.2-.4-.3s-.5-.3-.8-.5c-.6-.3-1.1-.7-1.3-1-.2-.3-.4-.8-.4-1.3,0-.8.3-1.4.8-1.9s1.3-.7,2.1-.7,1.8.4,2.6,1.2Z"/>
            <path class="cls-3" d="M385.3,177.9c0,.6.2,1.1.6,1.5.4.4,1,.6,1.6.6s1.6-.3,2.1-1l1.5.8c-.5.7-1,1.2-1.6,1.4-.5.3-1.2.4-2,.4-1.3,0-2.3-.4-3.1-1.1s-1.1-1.8-1.1-3,.4-2.4,1.3-3.3c.8-.9,1.9-1.3,3.2-1.3s2.2.4,2.9,1.2c.7.8,1.1,1.9,1.1,3.2s0,.4,0,.7h-6.4ZM389.7,176.3c-.2-1.3-.9-1.9-2.1-1.9s-1.9.6-2.2,1.9h4.4Z"/>
          </g>
        </g>
      </g>
    </g>
  </g>
</svg>
