<?xml version="1.0" encoding="UTF-8"?>
<svg xmlns="http://www.w3.org/2000/svg" version="1.1" viewBox="0 0 400.1 198.7">
  <defs>
    <style>
      .cls-1 {
        fill: #e7479d;
      }

      .cls-2 {
        fill: #7258a2;
      }

      .cls-3 {
        fill: #271d44;
      }

      .cls-4 {
        fill: #fff;
      }

      .cls-5 {
        fill: #101022;
      }

      .cls-6 {
        fill: #4d378d;
      }

      .cls-7 {
        fill: #d0bfdf;
      }

      .cls-8 {
        fill: #e0e0ef;
      }

      .cls-9 {
        fill: #5d4495;
      }

      .cls-10 {
        fill: #51378d;
      }
    </style>
  </defs>
  <!-- Generator: Adobe Illustrator 28.7.1, SVG Export Plug-In . SVG Version: 1.2.0 Build 142)  -->
  <g>
    <g id="Calque_1">
      <g>
        <ellipse class="cls-8" cx="100" cy="186.9" rx="76.7" ry="11.8"/>
        <path class="cls-9" d="M77.5,143.8c-.6.2-.8.6-1.1.9-4.4,5-9.4,9.4-15,13-6.2,4-12.9,6.6-20.2,7.8-2.9.5-5.9.7-8.9.6-6.6-.3-12.9-1.8-18.8-5-2-1.1-4-2.1-5.8-3.6-3.9-3.3-6.3-7.5-7.3-12.5-1.5-6.8,0-12.8,4.6-18.1,3.3-3.8,7.4-5.7,12.4-5.8,3.5,0,6.9.4,10,2.2,3.7,2.1,6.2,5.1,7.2,9.3.5,2.2.4,4.4-.8,6.5-1,1.8-2.4,3.1-4.5,3.6-3.6.9-7.2-1.8-7.4-5.6-.1-2.3.9-3.9,2.9-4.9.1,0,.3-.2.4-.3,0-.6-.3-1-.7-1.3-.8-.8-1.8-1.2-2.8-1.4-2.3-.4-4.4,0-6.4,1.3-2.3,1.6-3.1,3.9-2.9,6.6.2,3.1,1.5,5.8,3.5,8.1,2.4,2.8,5.3,4.5,8.9,5,2.7.4,5.4,0,7.9-.8,6.6-2.2,12-6.1,15.8-12,1.8-2.8,2.8-5.9,3.2-9.3.3-3.1.7-6.2,1.7-9.2v-.5c-.3,0-.6,0-.9.2-2.8.9-5.6,1.4-8.6,1.5-12,.5-22.6-3-32-10.4-5.2-4.2-8.7-9.6-10.3-16.2-1-4.2-1.2-8.5.3-12.6,2.2-6.3,6.5-10.4,13.1-11.8,1.8-.4,3.6-.6,5.5-.6,7.3.3,12.9,4.9,14.6,10.9.8,2.9.8,5.9-.4,8.7-1.3,2.8-3.4,4.8-6.4,5.6-1.7.4-3.4.3-5-.7-2-1.2-3.1-3.8-2.5-6.1.5-1.9,2.1-3.2,4.1-3.2s1.2,0,1.7,0h.8c.4-.7.4-1.3.2-2-.5-2.9-3.2-5.1-6.3-5.3-2.8,0-5,.9-6.7,3.2-2.1,2.7-2.8,5.8-2.5,9.2.8,6.9,5.7,12.9,13.8,14.7,4.9,1,9.6.3,14.2-1.8,4.6-2.2,8.3-5.5,11.2-9.6.6-.8.5-.8,0-1.6-4.4-6.1-7.1-12.9-8.6-20.3-1.2-5.5-1.4-11.1-.9-16.7,1.1-12.8,5.9-24,14.4-33.7,7.8-8.9,17.5-14.9,28.9-18.1,2.9-.8,5.9-1.4,8.9-1.7,2.5-.3,5-.4,7.4-.3C110.7,0,119.5,2.1,127.7,6.5c10.4,5.7,18.6,13.6,24.3,24,3.3,6,5.5,12.4,6.5,19.2.7,4.5.8,9,.5,13.5-.6,8.4-3,16.2-7.2,23.4-1,1.7-2.2,3.3-3.3,5-.3.4-.4.7,0,1.2,3,4.3,6.8,7.7,11.7,9.7,3,1.2,6.1,1.8,9.3,1.7,5.7-.3,10.6-2.3,14.4-6.8,2.8-3.3,4.1-7.2,3.7-11.5-.3-2.9-1.5-5.4-3.7-7.4-1.9-1.6-4.1-2.3-6.6-1.8-2.4.6-5.2,3.1-4.8,6.3,0,.4.2.8.4,1.3.5,0,1-.2,1.4-.3,2.6-.4,5.5,1.1,5.3,4.6-.1,2.2-1.7,4.2-3.9,4.8-1.8.5-3.5.3-5.2-.5-3.1-1.5-4.9-4.1-5.6-7.4-.7-3.7.1-7.1,2.2-10.2,2.5-3.7,6.1-6,10.5-6.6,6.2-.8,11.7.7,16.1,5.2,2.7,2.8,4.3,6.2,4.8,10.2.7,5.4-.4,10.5-2.9,15.3-3.1,6.1-7.8,10.8-13.7,14.2-5.4,3.1-11.1,4.9-17.3,5.8-5.4.7-10.8.7-16.2-.7-2.2-.6-4.3-1.3-6.2-2.4-.1,0-.3,0-.5-.2-.2.8,0,1.5,0,2.2.8,4.9,2.5,9.4,5,13.7,2.8,4.6,6.2,8.7,10.4,12,3.2,2.5,6.7,4.2,10.7,5.1,7.5,1.6,13.6-1.4,17.1-7.6,1.1-2,1.6-4.3,1.3-6.6-.4-3.1-2.8-5.5-5.9-5.9-2.1-.3-4.1.2-5.8,1.4-.5.4-1,.8-1.3,1.5.3.1.5.3.8.4,3,1.1,3.8,4.6,2,7.1-1.3,1.8-3.1,2.9-5.3,2.9s-5.3-1.9-6.2-4.6c-.9-2.8-.7-5.6.6-8.3,2-4,5.2-6.7,9.3-8.2,5.2-1.9,10.2-1.3,14.9,1.4,5.4,3.1,8.7,7.9,9.9,14,.9,5,0,9.8-2.2,14.3-2.5,4.9-6.3,8.2-11.2,10.6-4.3,2.1-8.7,3.4-13.4,4-3.7.5-7.4.4-11,0-9.4-1.2-17.7-4.9-25.3-10.3-6.9-4.9-12.9-10.5-18.3-17-2.2-2.7-4.1-5.6-6.1-8.4-.2-.2-.3-.5-.5-.8-.2.1-.4.2-.5.4-3.1,3.4-6.1,7-8.3,11.1-2.1,3.9-3.2,8.1-3.1,12.5,0,4.5,1.4,8.7,4.5,12.1,3.3,3.7,7.6,5.3,12.5,4.9,5.5-.5,10.1-5.4,9.5-11.4-.3-3.1-2.6-5.8-5.6-6.4-1.1-.2-2.1-.1-3,.5-.7.4-1.1,1-1.4,1.7-.4,1.1-.3,1.4.8,1.9,2.2,1.1,2.8,3.5,1.2,5.4-1.3,1.6-3.5,2.1-5.6,1.1-2.5-1.1-4-4-3.7-6.8.4-3.5,3.2-7.4,8.1-8.7,4.3-1.1,8.1,0,11.3,3,3.8,3.6,5.4,8.1,4.8,13.3-.6,5.4-2.9,9.9-7.1,13.4-2.8,2.3-6,3.5-9.5,4.1-6.1.9-11.7-.6-17.1-3.3-11.2-5.6-18-14.6-20.8-26.6-.5-2.1-.7-4.3-1-6.5,0-.2,0-.4,0-.7h0l.4-.2ZM42.3,59.7c.5-.2.8-.3,1.1-.5,6.6-3.3,13.1-6.7,19.7-10,5.5-2.8,11-5.5,16.6-8.3s14-6.9,20.9-10.4c6-3,12-6,17.9-9.1,2.3-1.2,4.6-2.5,6.9-3.8,1.3-.8,2.5-1.7,3.4-3,1.2-1.9,1-3.4-.5-5s-3.4-2.6-5.4-3.5c-5.6-2.5-11.5-3.8-17.7-4.2-2.3-.1-4.7-.3-7.1,0-2.2.3-4.5.3-6.7.7-8.9,1.6-17.1,5.1-24.6,10.4-5.3,3.7-9.8,8.2-13.6,13.4-2.7,3.7-4.9,7.6-6.7,11.8-1.3,3-2.4,6.1-3.1,9.4-.6,3-1,5.9-1.2,8.9v3.2h0ZM57,68.2c0,8.2,6.7,15.1,14.6,15.1s15.2-6.9,15.1-14.8c0-9-7.2-15.1-14.9-15.1s-14.9,7.3-14.9,14.8h.1ZM129.7,83.1c8.1,0,14.9-6.6,14.9-14.9s-6.9-14.7-14.9-14.7-14.6,6-14.6,14.8,7.3,15,14.6,14.9h0ZM3.4,86.5c0,.3,0,.8.2,1.3,0,.4.3.7.7.7s.7-.3.9-.7c0-.2.2-.5.2-.8.2-.9.3-1.9.6-2.8.8-3.1,2.1-5.8,4.4-8.1,1.4-1.3,2.9-2.4,4.7-3.1.5-.2,1-.5,1.4-.8.2-.2.3-.6.2-.9,0-.2-.5-.4-.7-.4-.5,0-1.1,0-1.6.3-7.5,2.6-10.5,9.2-10.9,15.2h0ZM119.1,21.9c-1.2,0-2.1.9-2.1,2.1s1,2.4,2.2,2.4,2.1-1,2.1-2.2-1-2.2-2.2-2.2h0Z"/>
        <path class="cls-2" d="M42.3,59.7v-3.2c.2-3,.5-6,1.2-8.9.7-3.2,1.8-6.3,3.1-9.4,1.9-4.1,4-8.1,6.7-11.8,3.8-5.2,8.3-9.7,13.6-13.4,7.4-5.3,15.6-8.7,24.6-10.4,2.2-.4,4.4-.4,6.7-.7,2.4-.3,4.7,0,7.1,0,6.1.4,12,1.7,17.7,4.2,2,.9,3.9,1.9,5.4,3.5,1.5,1.6,1.7,3.1.5,5-.9,1.3-2,2.3-3.4,3-2.3,1.3-4.6,2.6-6.9,3.8-6,3-11.9,6.1-17.9,9-7,3.5-14,6.9-20.9,10.4-5.5,2.8-11.1,5.5-16.6,8.3-6.6,3.3-13.2,6.7-19.7,10-.3.2-.6.3-1.1.5h0ZM89.4,17.2h0c-.2-.1-.4-.4-.7-.5-1.5-.6-3.9-.4-5.3,1-1.7,1.6-2.1,4.4-.9,6.4,1.3,2.1,3.5,3.1,6,2.5,1.9-.4,2.9-1.9,3.4-3.6.6-2,0-3.8-1.4-5.2-.3-.3-.7-.4-1.1-.6Z"/>
        <path class="cls-4" d="M57,68.2c0-7.5,6.2-14.8,14.9-14.8s14.9,6.1,14.9,15.1-6.4,14.8-15.1,14.8-14.7-6.9-14.6-15.1h-.1ZM63.8,69.4c0,5.2,4.2,9.6,9.4,9.7,5.8,0,10.1-4.9,10.2-9.9,0-5.2-4.3-9.8-9.4-9.8s-10.1,4.6-10.2,10Z"/>
        <path class="cls-4" d="M129.7,83.1c-7.3.2-14.6-5.8-14.6-14.9s7.3-14.8,14.6-14.8,14.8,6.2,14.9,14.7c0,8.4-6.8,15.1-14.9,14.9h0ZM118.5,69.3v1.2c.6,4.8,5,8.7,9.8,8.6,5.9-.2,9.3-5.4,9.4-9.5,0-4.4-3.2-8.8-7.5-9.9-3.8-1-7.1,0-9.7,3.1-1.5,1.8-2.1,4-2.2,6.5h.2Z"/>
        <path class="cls-7" d="M3.4,86.5c.5-6,3.4-12.7,10.9-15.2.5-.2,1.1-.2,1.6-.3.2,0,.6.2.7.4,0,.2,0,.7-.2.9-.4.3-.9.6-1.4.8-1.8.7-3.3,1.8-4.7,3.1-2.3,2.2-3.6,5-4.4,8.1-.2.9-.4,1.9-.6,2.8,0,.2,0,.5-.2.8-.2.4-.4.7-.9.7s-.6-.3-.7-.7c0-.5-.2-1-.2-1.3h0Z"/>
        <path class="cls-7" d="M119.1,21.9c1.2,0,2.2,1,2.2,2.2s-1,2.2-2.1,2.2-2.2-1-2.2-2.4.9-2.1,2.1-2.1h0Z"/>
        <path class="cls-3" d="M63.8,69.4c0-5.4,4.8-10.1,10.2-10,5.1,0,9.5,4.6,9.4,9.8,0,5-4.3,10-10.2,9.9-5.1,0-9.4-4.5-9.4-9.7ZM75.7,64.6c0-1.7-1.2-2.8-3-2.8s-2.6,1.1-2.6,2.6,1.2,2.9,2.9,2.8c1.5,0,2.7-1.2,2.7-2.7h0Z"/>
        <path class="cls-3" d="M118.5,69.3c0-2.4.7-4.6,2.2-6.5,2.5-3.1,5.8-4.1,9.7-3.1,4.3,1.1,7.5,5.4,7.5,9.9s-3.5,9.3-9.4,9.5c-4.8,0-9.3-3.8-9.8-8.6v-1.2h-.2ZM128.5,61.8c-1.6,0-2.6,1.1-2.6,2.7s1.2,2.8,2.7,2.8,2.8-1.3,2.8-2.9-1.2-2.7-2.9-2.7h0Z"/>
        <path class="cls-7" d="M89.6,16.8c.4.4.9.8,1.3,1.2,2.4,2.9,1.3,6.5-1.2,8.2-2.7,1.7-7.1.3-7.9-3.6-.7-3.2,1.5-6.1,4.8-6.4,1.1-.1,2.1.3,3.1.7h-.1Z"/>
        <path class="cls-4" d="M75.7,64.6c0,1.6-1.1,2.7-2.7,2.7s-2.9-1.2-2.9-2.8,1-2.6,2.6-2.6,2.9,1.1,3,2.8h0Z"/>
        <path class="cls-4" d="M128.5,61.8c1.7,0,2.9,1.1,2.9,2.7s-1.2,2.8-2.8,2.9c-1.5,0-2.7-1.2-2.8-2.8,0-1.6,1-2.7,2.6-2.7h.1Z"/>
        <path class="cls-5" d="M111.4,85.6l.2-.2.2-.2c.2,0,.4,0,.7-.2,1-.2,1.7.3,1.8,1.3,0,.9,0,1.7-.6,2.4-1.5,2.5-3.7,4.2-6.3,5.2-4.8,1.8-9.6,1.6-14.2-.7-2.1-1.1-3.8-2.7-5-4.7-.3-.6-.6-1.2-.5-1.8,0-.7.5-1.3,1.2-1.5s1.2,0,1.6.7c.5.7.9,1.5,1.5,2.2,1.8,2,4.2,3.1,6.8,3.5,2,.3,4,.2,5.9-.3,2.2-.7,4.2-1.8,5.5-3.7.4-.6.7-1.2,1.1-1.9h.1Z"/>
        <path class="cls-10" d="M4.2,147.5c.5.9,1,1.7,1.6,2.6.6,1.1,1.4,2,2.3,2.9s1.9,1.8,3,2.6c3.4,2.5,7.3,4.1,11.3,5.1,1.6.4,3.3.7,5,.9,2.1.3,4.1.2,6.2.1,2,0,4-.4,5.9-.8,3.1-.7,6.1-1.7,9-3,3.5-1.6,6.6-3.6,9.6-5.9,1.7-1.3,3.2-2.6,4.7-4.1.2-.2.4-.4.6-.7,1-.8,1.8-1.8,2.6-2.7.9-1.1,1.8-2.2,2.7-3.3,1.5-1.8,2.8-3.8,4.1-5.7,2.7-3.9,4.8-8.2,6.9-12.4,1.8-3.7,3.2-7.4,4.6-11.3.9-2.6,1.6-5.2,2.2-7.9v-.6c0,0,.2,0,.4.2v3.2c0,1.1-.2,2.1-.3,3.2,0,1.2-.3,2.4-.4,3.5-.2,1.5-.4,3-.7,4.5-.2,1.6-.5,3.1-.7,4.7-.2,1.3-.4,2.6-.6,3.9,0,.8,0,1.5-.2,2.3,0,1.1-.3,2.2-.3,3.4s0,1.7-.2,2.5v8.1c0,1.2.2,2.4.3,3.6.2,1.4.4,2.9.6,4.3.4,2.6,1.1,5.2,2,7.6.9,2.5,2.1,4.9,3.6,7.1,0,.2.2.3.4.4,0,.2,0,.4.2.5,1.7,2.6,4,4.7,6.4,6.7.6.5,1.3.8,1.7,1.4-.2.3-.5,0-.7,0-1.5-.9-3.1-1.6-4.5-2.6-1-.7-2-1.3-3-2-.2-.1-.3-.3-.5,0v.2c.8.9,1.6,1.7,2.3,2.6l.5.5c.2.3,0,.4-.3.4-1.5-1.1-2.9-2.4-4.2-3.8-5.6-6.1-8.8-13.3-10.1-21.4-.2-1.3-.3-2.6-.5-4-.4,0-.5.3-.7.5-3.8,4.4-8,8.3-12.7,11.6-4.6,3.3-9.6,5.9-15,7.6-.2,0-.4,0-.6.1-.2,0-.5,0-.6.2h0c-.2,0-.4,0-.6.2h0c-.3,0-.5,0-.7.2h0c-.2,0-.4,0-.6.2h0c-.2,0-.5,0-.7.2h0c-.3,0-.7-.1-.9.2h0c-.4,0-.8,0-1.2.1-1.9.4-3.9.8-5.9.8h-6.1c-2,0-.7.1-.9-.2.2-.2.6-.5,0-.6-.2,0-.4-.1-.6-.2-1.1-.3-2.2-.2-3.3-.5-2-.6-3.9-1.2-5.9-1.9-.5-.1-.9-.3-1.4-.5-2.5-1.2-4.9-2.4-7.1-4.2-2.2-1.7-4.1-3.7-5.9-5.8-.4-.5-.8-1.2-1.2-1.8-.6-.8-.9-1.7-1.3-2.6,0,0,0-.1,0-.2h0l.3-.2Z"/>
        <path class="cls-10" d="M174.6,112.7c.9,0,1.8-.5,2.6-.9,3.3-1.3,6.4-3.1,9.2-5.3,2.6-2,4.9-4.3,6.6-7.1,1.7-2.7,2.9-5.7,3.3-8.9,0-.6.2-1.3.2-1.9.3,0,.4.3.4.6,0,.9,0,1.7-.2,2.6-.2,1.5-.5,3-.8,4.5-.2.9-.6,1.8-.9,2.8-.1.3-.2.7.1,1,.4-.8.9-1.4,1.1-2.2.1-.3.2-.7.7-.7-.8,2.2-1.9,4.3-3.3,6.2-4,5.6-9.2,9.7-15.5,12.4-5.4,2.4-11.1,3.8-17,4.1-4.7.3-9.3,0-13.8-1.4-1.9-.6-3.7-1.2-5.3-2.3,0-.2-.2-.2-.4-.2,0-2.8.5-5.5,1.8-8,.1-.3.2-.7.7-.8,0,.4-.1.7-.2,1-.2.6,0,1,.4,1.4,1.8,1.4,3.7,2.5,5.8,3.3,2.4.9,4.8,1.4,7.3,1.7,2.2.3,4.4.3,6.7.2,2.5-.2,5-.6,7.4-1.2,1-.3,2.1-.4,3-.9h0Z"/>
        <path class="cls-10" d="M53.8,118.5c-.4,0-.8,0-1.2.2-2,.6-4,1-6,1.2-2.6.3-5.2,0-7.7.2-.7,0-1.4-.2-2.1-.4-2.9-.5-5.7-1.4-8.4-2.3-2.8-1-5.5-2.3-8.1-3.8-1.6-1-3.3-1.9-4.9-3-1.4-.9-2.8-1.9-3.9-3.1-1.2-1.2-2.5-2.3-3.5-3.7-.4-.6-.8-1.2-.8-1.9.7.8,1.4,1.7,2.1,2.5.2.3.4.6.7.8,1.7,1.4,3.3,2.9,5.2,4.1,4.3,2.7,8.9,4.6,13.8,5.6,1.8.4,3.6.6,5.4.8,1.1,0,2.2.2,3.4,0,2.9,0,5.8-.5,8.7-1.3,3.6-1,7-2.5,10.2-4.4,1.1-.7,2-1.5,3.1-2.2.2,0,.3-.3.5-.2.2.2,0,.3,0,.4-2.3,2.9-4.2,6.1-5.6,9.6,0,.3,0,.8-.6.8h-.3Z"/>
        <path class="cls-6" d="M169.7,161.3c1.7,0,3.4,0,5.1-.2,3.2-.4,6.4-1.1,9.4-2.4,2.5-1.1,4.8-2.5,6.9-4.2.2-.1.3-.3.6-.3s.4,0,.3.4c-.8,1.2-1.6,2.4-2.8,3.3-2,1.6-4.2,2.8-6.6,3.9-2.2.9-4.5,1.8-6.9,2.2-.8.1-1.6,0-2.4.2-1,.2-2,.4-3,.3-2,0-3.9,0-5.9-.2-1.6-.2-3.2-.5-4.9-.7-1.4-.2-2.8-.7-4.2-1.1-2.9-.7-5.7-1.6-8.4-3-2.1-1.1-4.3-2.1-6.2-3.5-1.5-1.1-3.2-2-4.7-3.2-.2-.2-.5-.4-.8-.6-1.8-1-3.3-2.3-4.7-3.7-2-1.9-4.1-3.8-5.9-5.8-1.6-1.8-3.4-3.4-4.9-5.3-1.1-1.4-2.3-2.7-3.4-4.2-.4-.7-1-1.2-1.6-1.8,0-.1-.2-.2-.5-.1,0,.6.3,1.1.7,1.6.9,1.2,1.6,2.4,2.5,3.6,1,1.2,1.8,2.6,3,3.7.3.3.6.7.5,1.2-1.4-1.4-2.7-2.9-3.9-4.4-2-2.6-3.9-5.2-5.5-7.9-.5.2-.7.7-1.1.9,0,0-.2-.2,0-.3,0-.2.2-.3.4-.4,1.6-1,2.1-2.8,2.8-4.3.8-1.7,1.1-3.5,1.3-5.3.2-1.8,0-3.4-.2-5.2,0-1-.4-1.9-.5-3,.3.4.4.7.5,1,.7,2.6,1.8,5.1,2.9,7.5,2.2,4.8,4.7,9.4,7.8,13.7,1.6,2.3,3.3,4.6,5.2,6.7,1.4,1.6,2.9,3.2,4.4,4.8.3.3.6.6,1.1.8h0c.2.3.4.6.8.8.5.8,1.3,1.2,1.9,1.7,0,.2.2.3.4.4.1,0,.3.1.4.2.2.2.3.4.5.6,2.6,2,5.4,4,8.3,5.6,3.8,2.1,7.7,3.7,11.9,4.8,1.7.4,3.4.8,5.1,1,1.4.2,2.9.1,4.3.4h0v-.2Z"/>
        <g>
          <path class="cls-3" d="M221.8,104.1c-3.1,0-5.8-.5-8.1-1.6s-4-2.6-5.3-4.6-1.8-4.3-1.8-7h0c0-2.7.6-5,1.8-7s3-3.5,5.3-4.5,5-1.6,8.1-1.6,5,.4,7,1.2,3.7,1.9,5,3.4,2.1,3.2,2.4,5.1v.2s-4.8,0-4.8,0v-.2c-.4-1.2-1.1-2.3-1.9-3.1s-1.9-1.5-3.2-1.9-2.8-.7-4.4-.7-4,.4-5.5,1.1-2.7,1.8-3.6,3.2-1.2,3-1.2,4.8h0c0,1.9.4,3.5,1.2,4.9s2,2.4,3.6,3.2,3.4,1.1,5.5,1.1,3.1-.2,4.4-.7,2.4-1.1,3.2-2,1.5-1.9,1.9-3.2h0c0-.1,4.9-.1,4.9-.1v.2c-.4,2-1.2,3.7-2.5,5.2-1.3,1.5-3,2.6-5,3.4s-4.4,1.2-7,1.2Z"/>
          <path class="cls-3" d="M239.7,103.6v-25.4h4.9v25.4h-4.9Z"/>
          <path class="cls-3" d="M261.7,104.1c-2.7,0-5-.3-7-.9s-3.5-1.4-4.6-2.6c-1.1-1.1-1.8-2.5-2-4.1v-.2s4.7,0,4.7,0v.2c.3.8.7,1.5,1.5,2.1s1.7,1,3,1.3c1.3.3,2.8.4,4.6.4s2.9-.1,4-.4c1.1-.3,1.9-.7,2.5-1.3s.9-1.3.9-2.1h0c0-1.1-.4-1.8-1.2-2.4s-2.2-.9-4.3-1.1l-6.1-.5c-3.1-.3-5.3-1.1-6.8-2.2s-2.2-2.8-2.2-4.8h0c0-1.6.5-3,1.5-4.1s2.4-2,4.2-2.6,3.9-.9,6.4-.9,4.7.3,6.6.9,3.3,1.5,4.4,2.6,1.7,2.5,2,4.1v.2s-4.7,0-4.7,0v-.2c-.3-.8-.8-1.5-1.4-2.1s-1.6-1-2.7-1.3-2.5-.4-4.1-.4-2.8.1-3.9.4-1.9.7-2.4,1.2-.8,1.2-.8,2h0c0,1,.4,1.7,1.3,2.2s2.2.9,4.1,1.1l6.2.5c2.1.2,3.8.6,5.2,1.2s2.3,1.3,3,2.3,1,2.1,1,3.5h0c0,1.7-.5,3.1-1.5,4.3-1,1.2-2.4,2.1-4.3,2.7s-4.1.9-6.8.9Z"/>
          <path class="cls-3" d="M292.2,104.1c-3.1,0-5.9-.5-8.2-1.6s-4.1-2.6-5.4-4.6-1.9-4.3-1.9-7h0c0-2.7.6-5,1.9-7s3.1-3.5,5.4-4.6,5-1.6,8.2-1.6,5.8.5,8.1,1.6,4.1,2.6,5.4,4.6,1.9,4.3,1.9,7h0c0,2.7-.6,5-1.9,7s-3.1,3.5-5.4,4.6-5,1.6-8.1,1.6ZM292.2,100.1c2.1,0,4-.4,5.5-1.1s2.8-1.8,3.7-3.2,1.3-3,1.3-4.9h0c0-1.9-.4-3.5-1.3-4.9s-2.1-2.4-3.7-3.2-3.4-1.1-5.5-1.1-4,.4-5.6,1.1-2.8,1.8-3.7,3.2-1.3,3-1.3,4.8h0c0,1.9.4,3.5,1.3,4.9s2.1,2.4,3.7,3.2,3.4,1.1,5.6,1.1Z"/>
          <path class="cls-3" d="M205.6,146.8l12.3-25.4h4.3v4.3h-1.5l-10,21.1h-5.1ZM211.3,140.2l1.6-3.6h15.6l1.6,3.6h-18.8ZM230.8,146.8l-10-21.1v-4.3h2.8l12.3,25.4h-5.1Z"/>
          <path class="cls-3" d="M248,147.2c-2.2,0-4-.2-5.5-.7s-2.7-1.1-3.6-2-1.4-1.9-1.5-3.1v-.2s4.6,0,4.6,0h0c.2,1,.8,1.6,1.8,2.1s2.4.7,4.3.7,2,0,2.8-.3,1.3-.5,1.7-.8.6-.8.6-1.3h0c0-.7-.3-1.1-.8-1.4s-1.4-.6-2.7-.7l-5.1-.5c-1.5-.2-2.7-.5-3.7-.9s-1.7-1-2.2-1.7-.7-1.6-.7-2.6h0c0-1.2.4-2.3,1.1-3.1s1.8-1.5,3.2-2,3.1-.7,5-.7,3.8.2,5.3.7,2.6,1.1,3.4,2,1.2,1.9,1.3,3v.2s-4.3,0-4.3,0h0c-.1-.9-.7-1.6-1.7-2s-2.3-.7-3.9-.7-1.9,0-2.6.3-1.3.5-1.6.8-.6.8-.6,1.3h0c0,.4.1.7.4,1s.6.5,1.1.7,1.2.3,2,.4l5.2.5c2.4.3,4,.8,5.1,1.6s1.5,2,1.5,3.5h0c0,1.3-.4,2.3-1.2,3.2s-1.9,1.6-3.4,2.1-3.2.7-5.3.7Z"/>
          <path class="cls-3" d="M270.5,147.2c-2.2,0-4-.2-5.5-.7s-2.7-1.1-3.6-2-1.4-1.9-1.5-3.1v-.2s4.6,0,4.6,0h0c.2,1,.8,1.6,1.8,2.1s2.4.7,4.3.7,2,0,2.8-.3,1.3-.5,1.7-.8.6-.8.6-1.3h0c0-.7-.3-1.1-.8-1.4s-1.4-.6-2.7-.7l-5.1-.5c-1.5-.2-2.7-.5-3.7-.9s-1.7-1-2.2-1.7-.7-1.6-.7-2.6h0c0-1.2.4-2.3,1.1-3.1s1.8-1.5,3.2-2,3.1-.7,5-.7,3.8.2,5.3.7,2.6,1.1,3.4,2,1.2,1.9,1.3,3v.2s-4.3,0-4.3,0h0c-.1-.9-.7-1.6-1.7-2s-2.3-.7-3.9-.7-1.9,0-2.6.3-1.3.5-1.6.8-.6.8-.6,1.3h0c0,.4.1.7.4,1s.6.5,1.1.7,1.2.3,2,.4l5.2.5c2.4.3,4,.8,5.1,1.6s1.5,2,1.5,3.5h0c0,1.3-.4,2.3-1.2,3.2s-1.9,1.6-3.4,2.1-3.2.7-5.3.7Z"/>
          <path class="cls-3" d="M285.7,125.6c-.8,0-1.4-.2-1.9-.7s-.7-1-.7-1.7.2-1.3.7-1.7,1.1-.7,1.9-.7,1.4.2,1.9.7.7,1,.7,1.7-.2,1.3-.7,1.7-1.1.7-1.9.7ZM283.4,146.8v-18.6h4.7v18.6h-4.7Z"/>
          <path class="cls-3" d="M301.7,147.2c-2.2,0-4-.2-5.5-.7s-2.7-1.1-3.6-2-1.4-1.9-1.5-3.1v-.2s4.6,0,4.6,0h0c.2,1,.8,1.6,1.8,2.1s2.4.7,4.3.7,2,0,2.8-.3,1.3-.5,1.7-.8.6-.8.6-1.3h0c0-.7-.3-1.1-.8-1.4s-1.4-.6-2.7-.7l-5.1-.5c-1.5-.2-2.7-.5-3.7-.9s-1.7-1-2.2-1.7-.7-1.6-.7-2.6h0c0-1.2.4-2.3,1.1-3.1s1.8-1.5,3.2-2,3.1-.7,5-.7,3.8.2,5.3.7,2.6,1.1,3.4,2,1.2,1.9,1.3,3v.2s-4.3,0-4.3,0h0c-.1-.9-.7-1.6-1.7-2s-2.3-.7-3.9-.7-1.9,0-2.6.3-1.3.5-1.6.8-.6.8-.6,1.3h0c0,.4.1.7.4,1s.6.5,1.1.7,1.2.3,2,.4l5.2.5c2.4.3,4,.8,5.1,1.6s1.5,2,1.5,3.5h0c0,1.3-.4,2.3-1.2,3.2s-1.9,1.6-3.4,2.1-3.2.7-5.3.7Z"/>
          <path class="cls-3" d="M324.2,147.1c-2.6,0-4.4-.5-5.6-1.5s-1.8-2.6-1.8-4.8v-9.2h-3.9v-3.4h3.9v-4.8h4.7v4.8h6v3.4h-6v8.7c0,1.2.3,2.1.9,2.6s1.6.7,3,.7.7,0,1.1,0,.7,0,1-.1v3.3c-.4,0-.9.1-1.5.2s-1.1,0-1.7,0Z"/>
          <path class="cls-3" d="M337.7,147.2c-1.7,0-3.1-.2-4.3-.7s-2.2-1.1-2.9-2-1-1.9-1-3.2h0c0-1.1.3-2,.8-2.8s1.4-1.4,2.5-1.9,2.7-.7,4.5-.7l10.6-.2v2.8l-10,.2c-1.4,0-2.4.3-3,.7s-.9,1-.9,1.7h0c0,.9.4,1.6,1.3,2.1s2,.7,3.4.7,2.6-.2,3.6-.6,1.8-.9,2.4-1.6.8-1.5.8-2.4v-4.1c0-1.2-.5-2.2-1.4-2.9s-2.3-1-4-1-2.7.3-3.7.8-1.5,1.2-1.7,2v.2h-4.5v-.2c.2-1.2.8-2.3,1.6-3.2s2-1.7,3.4-2.2,3.1-.8,5-.8,3.9.3,5.4.9,2.6,1.4,3.4,2.5,1.2,2.4,1.2,3.8v11.8h-4.7v-3.2h0c-.4.7-1,1.4-1.8,1.9s-1.7.9-2.7,1.2-2.2.4-3.4.4Z"/>
          <path class="cls-3" d="M354,146.8v-18.6h4.7v3.6h0c.7-1.3,1.7-2.2,3-3s3-1.1,4.8-1.1c2.7,0,4.8.7,6.3,2.2s2.2,3.6,2.2,6.3v10.5h-4.7v-9.6c0-1.9-.5-3.3-1.4-4.3s-2.3-1.5-4.1-1.5-2.4.3-3.3.8-1.7,1.2-2.2,2.1-.8,2-.8,3.2v9.2h-4.7Z"/>
          <path class="cls-3" d="M388.6,147.1c-2.6,0-4.4-.5-5.6-1.5s-1.8-2.6-1.8-4.8v-9.2h-3.9v-3.4h3.9v-4.8h4.7v4.8h6v3.4h-6v8.7c0,1.2.3,2.1.9,2.6s1.6.7,3,.7.7,0,1.1,0,.7,0,1-.1v3.3c-.4,0-.9.1-1.5.2s-1.1,0-1.7,0Z"/>
        </g>
        <g>
          <path class="cls-1" d="M297.2,177.2c-1,0-1.8-.2-2.6-.6s-1.3-.9-1.7-1.7-.6-1.6-.6-2.7v-1c0-1.1.2-2,.6-2.7s1-1.3,1.7-1.6,1.5-.5,2.4-.5,1.8.2,2.5.6,1.3,1,1.7,1.7.6,1.6.6,2.6v1.2h-6.6v.5c0,.6.2,1.1.5,1.4s.8.5,1.4.5.6,0,.8-.1.5-.2.6-.4.2-.4.3-.6h2.9c0,.4-.1.7-.3,1.1s-.5.8-.8,1.1-.8.6-1.4.8-1.3.3-2.1.3ZM295.3,170.6h3.6c0-.5,0-.8-.2-1.1s-.4-.5-.6-.7-.6-.3-.9-.3-.7,0-.9.3-.5.4-.6.7-.2.6-.2,1h0Z"/>
          <path class="cls-1" d="M304.1,177v-10.4h3v1.8h.2c0-.3.3-.6.5-.9s.6-.6,1-.8,1-.3,1.6-.3c1,0,1.9.3,2.5.9s.9,1.5.9,2.8v6.9h-3.1v-6.1c0-.5,0-.9-.2-1.2s-.4-.5-.6-.6-.5-.2-.8-.2-.7,0-1,.3-.5.4-.6.8-.2.7-.2,1.2v5.8h-3.1Z"/>
          <path class="cls-1" d="M317.3,166.7v-2.6h3v2.6h2.3v2.3h-2.3v4.4c0,.5.1.8.3,1s.6.3,1.1.3.4,0,.5,0,.3,0,.4,0v2.2c-.1,0-.3,0-.7,0s-.7,0-1,0c-.9,0-1.6,0-2.2-.3s-1-.5-1.2-1-.4-1-.4-1.7v-5h-1.6v-2.3h1.7Z"/>
          <path class="cls-1" d="M329.4,177.2c-1,0-1.8-.2-2.6-.6s-1.3-.9-1.7-1.7-.6-1.6-.6-2.7v-1c0-1.1.2-2,.6-2.7s1-1.3,1.7-1.6,1.5-.5,2.4-.5,1.8.2,2.5.6,1.3,1,1.7,1.7.6,1.6.6,2.6v1.2h-6.6v.5c0,.6.2,1.1.5,1.4s.8.5,1.4.5.6,0,.8-.1.5-.2.6-.4.2-.4.3-.6h2.9c0,.4-.1.7-.3,1.1s-.5.8-.8,1.1-.8.6-1.4.8-1.3.3-2.1.3ZM327.5,170.6h3.6c0-.5,0-.8-.2-1.1s-.4-.5-.6-.7-.6-.3-.9-.3-.7,0-.9.3-.5.4-.6.7-.2.6-.2,1h0Z"/>
          <path class="cls-1" d="M336.4,177v-10.4h3.1v1.7h.1c0-.2.2-.5.4-.8s.5-.5.8-.7.8-.3,1.3-.3.4,0,.6,0,.3,0,.4,0v2.6c-.1,0-.3,0-.5,0s-.4,0-.7,0c-.5,0-1,0-1.3.3s-.6.5-.8.8-.2.8-.2,1.2v5.7h-3.2Z"/>
          <path class="cls-1" d="M351.2,177.1c-.5,0-.9,0-1.3-.2s-.7-.3-1-.6-.5-.6-.6-.9h-.2v5.1h-3.1v-13.9h3.1v1.7h.2c.1-.3.3-.5.4-.7s.4-.4.7-.6.5-.3.9-.3.7-.1,1-.1c.8,0,1.5.2,2.1.6s1,.9,1.3,1.6.5,1.6.5,2.6v1.2c0,1-.2,1.8-.5,2.6s-.7,1.3-1.3,1.6-1.3.6-2.1.6ZM350,174.7c.4,0,.7-.1,1-.3s.5-.5.6-.9.2-.8.2-1.4v-.8c0-.5,0-1-.2-1.4s-.4-.7-.6-.9-.6-.3-1-.3-.7,0-1,.3-.5.5-.6.8-.2.8-.2,1.3v1c0,.5,0,.9.2,1.2s.4.6.7.8.6.3,1,.3Z"/>
          <path class="cls-1" d="M357.5,177v-10.4h3.1v1.7h.1c0-.2.2-.5.4-.8s.5-.5.8-.7.8-.3,1.3-.3.4,0,.6,0,.3,0,.4,0v2.6c-.1,0-.3,0-.5,0s-.4,0-.7,0c-.5,0-1,0-1.3.3s-.6.5-.8.8-.2.8-.2,1.2v5.7h-3.2Z"/>
          <path class="cls-1" d="M365.9,163.6c0-.5.2-.9.5-1.1s.8-.4,1.3-.4,1,.1,1.3.4.5.7.5,1.1-.2.8-.5,1.1-.8.4-1.3.4-1-.1-1.3-.4-.5-.7-.5-1.1ZM366.2,177v-10.4h3.1v10.4h-3.1Z"/>
          <path class="cls-1" d="M371.9,169.7c0-.8.2-1.4.6-1.9s.9-.8,1.6-1.1,1.4-.3,2.2-.3,1.5.1,2.1.4,1.1.6,1.5,1,.5,1,.5,1.7h-2.7c0-.2,0-.4-.2-.5s-.3-.3-.5-.4-.5-.2-.8-.2-.8,0-1,.3-.4.4-.4.8,0,.4.3.6.4.3.7.4.6.2.9.2.6,0,.9.1c.6.1,1.2.3,1.7.5s.8.5,1.1.9.4.9.4,1.5-.2,1.3-.5,1.9-.9.9-1.6,1.2-1.5.4-2.5.4-1.8-.1-2.4-.4-1.2-.6-1.5-1.1-.5-1-.5-1.6h3c0,.2.1.4.2.6s.3.3.5.4.5.1.8.1.6,0,.9-.1.4-.2.5-.4.2-.3.2-.5c0-.3-.1-.5-.4-.7s-.6-.3-1-.3-.8-.2-1.2-.2c-.6-.1-1.2-.3-1.7-.5s-.9-.5-1.2-1-.4-1-.4-1.6Z"/>
          <path class="cls-1" d="M387.5,177.2c-1,0-1.8-.2-2.6-.6s-1.3-.9-1.7-1.7-.6-1.6-.6-2.7v-1c0-1.1.2-2,.6-2.7s1-1.3,1.7-1.6,1.5-.5,2.4-.5,1.8.2,2.5.6,1.3,1,1.7,1.7.6,1.6.6,2.6v1.2h-6.6v.5c0,.6.2,1.1.5,1.4s.8.5,1.4.5.6,0,.8-.1.5-.2.6-.4.2-.4.3-.6h2.9c0,.4-.1.7-.3,1.1s-.5.8-.8,1.1-.8.6-1.4.8-1.3.3-2.1.3ZM385.6,170.6h3.6c0-.5,0-.8-.2-1.1s-.4-.5-.6-.7-.6-.3-.9-.3-.7,0-.9.3-.5.4-.6.7-.2.6-.2,1h0Z"/>
        </g>
      </g>
    </g>
  </g>
</svg>
