<?xml version="1.0" encoding="UTF-8" standalone="no"?>
<svg
   xmlns:dc="http://purl.org/dc/elements/1.1/"
   xmlns:cc="http://creativecommons.org/ns#"
   xmlns:rdf="http://www.w3.org/1999/02/22-rdf-syntax-ns#"
   xmlns:svg="http://www.w3.org/2000/svg"
   xmlns="http://www.w3.org/2000/svg"
   viewBox="0 0 1280 720"
   height="720"
   width="1280"
   xml:space="preserve"
   id="svg2"
   version="1.1"><metadata
     id="metadata8"><rdf:RDF><cc:Work
         rdf:about=""><dc:format>image/svg+xml</dc:format><dc:type
           rdf:resource="http://purl.org/dc/dcmitype/StillImage" /></cc:Work></rdf:RDF></metadata><defs
     id="defs6"><clipPath
       id="clipPath18"
       clipPathUnits="userSpaceOnUse"><path
         style="clip-rule:evenodd"
         id="path16"
         d="M 0,1.2207e-4 H 960 V 540.00012 H 0 Z" /></clipPath><clipPath
       id="clipPath30"
       clipPathUnits="userSpaceOnUse"><path
         style="clip-rule:evenodd"
         id="path28"
         d="M 1.4305e-5,0 H 960.00001 V 540 H 1.4305e-5 Z" /></clipPath><clipPath
       id="clipPath44"
       clipPathUnits="userSpaceOnUse"><path
         style="clip-rule:evenodd"
         id="path42"
         d="M 1.4305e-5,0 H 960.00001 V 540 H 1.4305e-5 Z" /></clipPath><clipPath
       id="clipPath58"
       clipPathUnits="userSpaceOnUse"><path
         style="clip-rule:evenodd"
         id="path56"
         d="M 1.4305e-5,0 H 960.00001 V 540 H 1.4305e-5 Z" /></clipPath><clipPath
       id="clipPath72"
       clipPathUnits="userSpaceOnUse"><path
         style="clip-rule:evenodd"
         id="path70"
         d="M 1.4305e-5,0 H 960.00001 V 540 H 1.4305e-5 Z" /></clipPath><clipPath
       id="clipPath86"
       clipPathUnits="userSpaceOnUse"><path
         style="clip-rule:evenodd"
         id="path84"
         d="M 1.4305e-5,0 H 960.00001 V 540 H 1.4305e-5 Z" /></clipPath><clipPath
       id="clipPath100"
       clipPathUnits="userSpaceOnUse"><path
         style="clip-rule:evenodd"
         id="path98"
         d="M 1.4305e-5,0 H 960.00001 V 540 H 1.4305e-5 Z" /></clipPath><clipPath
       id="clipPath112"
       clipPathUnits="userSpaceOnUse"><path
         style="clip-rule:evenodd"
         id="path110"
         d="M -6.1035e-5,540 H 960 V 0 L -1.2207e-4,6.1035e-5" /></clipPath><clipPath
       id="clipPath122"
       clipPathUnits="userSpaceOnUse"><path
         style="clip-rule:evenodd"
         id="path120"
         d="M 1.4305e-5,0 H 960.00001 V 540 H 1.4305e-5 Z" /></clipPath><clipPath
       id="clipPath134"
       clipPathUnits="userSpaceOnUse"><path
         style="clip-rule:evenodd"
         id="path132"
         d="M -1.5259e-5,540 H 960 V 0 L -3.0518e-5,6.1035e-5" /></clipPath><clipPath
       id="clipPath144"
       clipPathUnits="userSpaceOnUse"><path
         style="clip-rule:evenodd"
         id="path142"
         d="M 1.4305e-5,0 H 960.00001 V 540 H 1.4305e-5 Z" /></clipPath><clipPath
       id="clipPath160"
       clipPathUnits="userSpaceOnUse"><path
         style="clip-rule:evenodd"
         id="path158"
         d="M 1.4305e-5,0 H 960.00001 V 540 H 1.4305e-5 Z" /></clipPath><clipPath
       id="clipPath172"
       clipPathUnits="userSpaceOnUse"><path
         style="clip-rule:evenodd"
         id="path170"
         d="M 1.4305e-5,0 H 960.00001 V 540 H 1.4305e-5 Z" /></clipPath><clipPath
       id="clipPath190"
       clipPathUnits="userSpaceOnUse"><path
         style="clip-rule:evenodd"
         id="path188"
         d="M 6.1035e-5,540 H 960 V 2.4414e-4 L 1.2207e-4,1.8311e-4" /></clipPath><clipPath
       id="clipPath216"
       clipPathUnits="userSpaceOnUse"><path
         style="clip-rule:evenodd"
         id="path214"
         d="M 1.4305e-5,0 H 960.00001 V 540 H 1.4305e-5 Z" /></clipPath><clipPath
       id="clipPath228"
       clipPathUnits="userSpaceOnUse"><path
         style="clip-rule:evenodd"
         id="path226"
         d="M 1.4305e-5,0 H 960.00001 V 540 H 1.4305e-5 Z" /></clipPath><clipPath
       id="clipPath244"
       clipPathUnits="userSpaceOnUse"><path
         style="clip-rule:evenodd"
         id="path242"
         d="M 1.4305e-5,0 H 960.00001 V 540 H 1.4305e-5 Z" /></clipPath><clipPath
       id="clipPath256"
       clipPathUnits="userSpaceOnUse"><path
         style="clip-rule:evenodd"
         id="path254"
         d="M 1.4305e-5,0 H 960.00001 V 540 H 1.4305e-5 Z" /></clipPath><clipPath
       id="clipPath268"
       clipPathUnits="userSpaceOnUse"><path
         style="clip-rule:evenodd"
         id="path266"
         d="M 1.4305e-5,0 H 960.00001 V 540 H 1.4305e-5 Z" /></clipPath></defs><g
     transform="matrix(1.3333333,0,0,-1.3333333,0,720)"
     id="g10"><g
       id="g12"><g
         clip-path="url(#clipPath18)"
         id="g14"><path
           id="path20"
           style="fill:#ffffff;fill-opacity:1;fill-rule:evenodd;stroke:none"
           d="M 0,6.1035e-5 H 960 V 540.00006 H 0 Z" /></g></g><path
       id="path22"
       style="fill:#2f5597;fill-opacity:1;fill-rule:evenodd;stroke:none"
       d="m 324.72,453.24 h 294.84 v 33.24 H 324.72 Z" /><g
       id="g24"><g
         clip-path="url(#clipPath30)"
         id="g26"><text
           id="text34"
           style="font-variant:normal;font-weight:normal;font-size:18px;font-family:Calibri;-inkscape-font-specification:Calibri;writing-mode:lr-tb;fill:#ffffff;fill-opacity:1;fill-rule:nonzero;stroke:none"
           transform="matrix(1,0,0,-1,390.07,463.99)"><tspan
             id="tspan32"
             y="0"
             x="0 9.5939999 19.08 28.440001 34.200001 42.966 50.759998 56.790001 60.948002 69.912003 76.788002 82.547997 91.169998 100.62 104.76 108.828 115.866 125.37 139.752 148.716 158.166">Context establishment</tspan></text>
</g></g><path
       id="path36"
       style="fill:#2f5597;fill-opacity:1;fill-rule:evenodd;stroke:none"
       d="m 324.72,373.32 h 294.84 v 33.36 H 324.72 Z" /><g
       id="g38"><g
         clip-path="url(#clipPath44)"
         id="g40"><text
           id="text48"
           style="font-variant:normal;font-weight:normal;font-size:18px;font-family:Calibri;-inkscape-font-specification:Calibri;writing-mode:lr-tb;fill:#ffffff;fill-opacity:1;fill-rule:nonzero;stroke:none"
           transform="matrix(1,0,0,-1,407.35,384.12)"><tspan
             id="tspan46"
             y="0"
             x="0 9.7740002 13.806 20.844 29.034 33.102001 37.242001 46.692001 55.655998 65.052002 71.082001 75.132004 80.622002 84.762001 92.178001 100.692 106.722 110.772 120.258">Risk identification</tspan></text>
</g></g><path
       id="path50"
       style="fill:#2f5597;fill-opacity:1;fill-rule:evenodd;stroke:none"
       d="m 324.72,308.04 h 294.84 v 33.24 H 324.72 Z" /><g
       id="g52"><g
         clip-path="url(#clipPath58)"
         id="g54"><text
           id="text62"
           style="font-variant:normal;font-weight:normal;font-size:18px;font-family:Calibri;-inkscape-font-specification:Calibri;writing-mode:lr-tb;fill:#ffffff;fill-opacity:1;fill-rule:nonzero;stroke:none"
           transform="matrix(1,0,0,-1,427.03,318.79)"><tspan
             id="tspan60"
             y="0"
             x="0 9.7740002 13.806 20.844 29.034 33.102001 41.723999 51.228001 59.849998 63.990002 71.982002 79.019997 83.160004">Risk analysis</tspan></text>
</g></g><path
       id="path64"
       style="fill:#2f5597;fill-opacity:1;fill-rule:evenodd;stroke:none"
       d="m 324.72,239.88 h 294.84 v 33.24 H 324.72 Z" /><g
       id="g66"><g
         clip-path="url(#clipPath72)"
         id="g68"><text
           id="text76"
           style="font-variant:normal;font-weight:normal;font-size:18px;font-family:Calibri;-inkscape-font-specification:Calibri;writing-mode:lr-tb;fill:#ffffff;fill-opacity:1;fill-rule:nonzero;stroke:none"
           transform="matrix(1,0,0,-1,417.31,250.58)"><tspan
             id="tspan74"
             y="0"
             x="0 9.7740002 13.806 20.844 29.034 33.102001 42.012001 49.931999 58.554001 62.694 72.143997 80.657997 86.688004 90.737999 100.224">Risk evaluation</tspan></text>
</g></g><path
       id="path78"
       style="fill:#2f5597;fill-opacity:1;fill-rule:evenodd;stroke:none"
       d="M 324.72,128.76 H 619.56 V 162 H 324.72 Z" /><g
       id="g80"><g
         clip-path="url(#clipPath86)"
         id="g82"><text
           id="text90"
           style="font-variant:normal;font-weight:normal;font-size:18px;font-family:Calibri;-inkscape-font-specification:Calibri;writing-mode:lr-tb;fill:#ffffff;fill-opacity:1;fill-rule:nonzero;stroke:none"
           transform="matrix(1,0,0,-1,418.51,139.44)"><tspan
             id="tspan88"
             y="0"
             x="0 9.7740002 13.806 20.844 29.034 33.102001 39.132 45.125999 54.09 62.639999 68.669998 83.052002 92.015999 101.394">Risk treatment</tspan></text>
</g></g><path
       id="path92"
       style="fill:#2f5597;fill-opacity:1;fill-rule:evenodd;stroke:none"
       d="M 324.72,13.32 H 619.56 V 46.56 H 324.72 Z" /><g
       id="g94"><g
         clip-path="url(#clipPath100)"
         id="g96"><text
           id="text104"
           style="font-variant:normal;font-weight:normal;font-size:18px;font-family:Calibri;-inkscape-font-specification:Calibri;writing-mode:lr-tb;fill:#ffffff;fill-opacity:1;fill-rule:nonzero;stroke:none"
           transform="matrix(1,0,0,-1,414.31,23.952)"><tspan
             id="tspan102"
             y="0"
             x="0 9.7740002 13.806 20.844 29.034 33.102001 41.723999 49.338001 56.880001 65.844002 75.239998 81 89.622002 99.071999 106.686">Risk acceptance</tspan></text>
</g></g><g
       id="g106"><g
         clip-path="url(#clipPath112)"
         id="g108"><path
           id="path114"
           style="fill:#2f5597;fill-opacity:1;fill-rule:evenodd;stroke:none"
           d="M 711.96,132.96 H 745.2 V 486.48 H 711.96 Z" /></g></g><g
       id="g116"><g
         clip-path="url(#clipPath122)"
         id="g118"><text
           id="text126"
           style="font-variant:normal;font-weight:normal;font-size:18.02400017px;font-family:Calibri;-inkscape-font-specification:Calibri;writing-mode:lr-tb;fill:#ffffff;fill-opacity:1;fill-rule:nonzero;stroke:none"
           transform="matrix(-4.4e-8,1,1,4.4e-8,734.54,210.02)"><tspan
             id="tspan124"
             y="0"
             x="0 9.7149363 13.78836 20.835745 29.036663 33.110088 47.511265 57.009911 66.472511 70.545937 76.421761 85.92041 92.138687 96.212112 105.67471 114.16402 118.39966 127.03315 136.49576 145.95836 150.17596 156.17796 165.0638 173.21065 177.35616 186.18793">Risk monitoring and review</tspan></text>
</g></g><g
       id="g128"><g
         clip-path="url(#clipPath134)"
         id="g130"><path
           id="path136"
           style="fill:#2f5597;fill-opacity:1;fill-rule:evenodd;stroke:none"
           d="m 219.72,132.96 h 33.24 v 353.52 h -33.24 z" /></g></g><g
       id="g138"><g
         clip-path="url(#clipPath144)"
         id="g140"><text
           id="text148"
           style="font-variant:normal;font-weight:normal;font-size:18.02400017px;font-family:Calibri;-inkscape-font-specification:Calibri;writing-mode:lr-tb;fill:#ffffff;fill-opacity:1;fill-rule:nonzero;stroke:none"
           transform="matrix(-4.4e-8,1,1,4.4e-8,242.23,236.18)"><tspan
             id="tspan146"
             y="0"
             x="0 9.7149363 13.78836 20.835745 29.036663 33.110088 40.554001 50.052647 64.453827 78.855003 88.317596 97.780197 101.92572 109.31556 117.84091 123.87895 127.91633 137.41498">Risk communication</tspan></text>
</g></g><g
       id="g150"><path
         id="path152"
         style="fill:none;stroke:#172c51;stroke-width:1.20000005;stroke-linecap:butt;stroke-linejoin:miter;stroke-miterlimit:10;stroke-dasharray:4.8, 3.6;stroke-dashoffset:0;stroke-opacity:1"
         d="m 308.64,227.76 h 327 v 212.4 h -327 z" /></g><g
       id="g154"><g
         clip-path="url(#clipPath160)"
         id="g156"><text
           id="text164"
           style="font-style:italic;font-variant:normal;font-weight:normal;font-size:14.03999996px;font-family:Calibri;-inkscape-font-specification:Calibri-Italic;writing-mode:lr-tb;fill:#000000;fill-opacity:1;fill-rule:nonzero;stroke:none"
           transform="matrix(1,0,0,-1,315.94,423.41)"><tspan
             id="tspan162"
             y="0"
             x="0">R</tspan></text>
</g></g><g
       id="g166"><g
         clip-path="url(#clipPath172)"
         id="g168"><text
           id="text176"
           style="font-style:italic;font-variant:normal;font-weight:normal;font-size:14.03999996px;font-family:Calibri;-inkscape-font-specification:Calibri-Italic;writing-mode:lr-tb;fill:#000000;fill-opacity:1;fill-rule:nonzero;stroke:none"
           transform="matrix(1,0,0,-1,323.62,423.41)"><tspan
             id="tspan174"
             y="0"
             x="0 3.2291999 8.7469196 15.13512 18.223921 25.440479 30.90204 36.447842 43.158958 48.676682 54.180359 65.328117 72.039238 79.12944">isk assessment</tspan></text>
</g></g><path
       id="path178"
       style="fill:#4472c4;fill-opacity:1;fill-rule:evenodd;stroke:none"
       d="m 456.12,196.5 16.02,14.58 16.02,-14.58 -16.02,-14.58 z" /><path
       id="path180"
       style="fill:none;stroke:#172c51;stroke-width:0.95999998;stroke-linecap:butt;stroke-linejoin:miter;stroke-miterlimit:10;stroke-dasharray:none;stroke-opacity:1"
       d="m 456.12,196.5 16.02,14.58 16.02,-14.58 -16.02,-14.58 z" /><path
       id="path182"
       style="fill:#4472c4;fill-opacity:1;fill-rule:nonzero;stroke:none"
       d="M 488.16,195.98 H 657.87 V 470.3 h -33.36 v -1 h 32.86 l -0.5,0.5 V 196.48 l 0.5,0.5 H 488.16 Z m 137.35,276.82 -6,-3 6,-3 z" /><g
       id="g184"><g
         clip-path="url(#clipPath190)"
         id="g186"><path
           id="path192"
           style="fill:#4472c4;fill-opacity:1;fill-rule:nonzero;stroke:none"
           d="m 728.06,486.48 v 18 l 0.5,-0.5 H 472.08 l 0.5,0.5 v -13 h -1 v 13.5 h 257.48 v -18.5 z m -252.98,6 -3,-6 -3,6 z" /></g></g><path
       id="path194"
       style="fill:#4472c4;fill-opacity:1;fill-rule:nonzero;stroke:none"
       d="m 619.56,145.82 h 87.45 v -1 h -87.45 z m 86.45,2.5 6,-3 -6,-3 z" /><path
       id="path196"
       style="fill:#4472c4;fill-opacity:1;fill-rule:nonzero;stroke:none"
       d="m 472.58,377.52 v -31.24 h -1 v 31.24 z m 2.5,-30.24 -3,-6 -3,6 z" /><path
       id="path198"
       style="fill:#4472c4;fill-opacity:1;fill-rule:nonzero;stroke:none"
       d="m 472.58,457.44 v -45.78 h -1 v 45.78 z m 2.5,-44.78 -3,-6 -3,6 z" /><path
       id="path200"
       style="fill:#4472c4;fill-opacity:1;fill-rule:nonzero;stroke:none"
       d="m 472.58,312.24 v -34.1 h -1 v 34.1 z m 2.5,-33.1 -3,-6 -3,6 z" /><path
       id="path202"
       style="fill:#4472c4;fill-opacity:1;fill-rule:nonzero;stroke:none"
       d="m 472.31,244.09 -0.62,-27.9 1,-0.02 0.62,27.9 z m -3.1,-26.85 2.87,-6.06 3.13,5.93 z" /><path
       id="path204"
       style="fill:#4472c4;fill-opacity:1;fill-rule:nonzero;stroke:none"
       d="m 472.58,181.94 0.55,-14.96 -1,-0.04 -0.55,14.96 z m 3.01,-13.87 -2.78,-6.1 -3.22,5.88 z" /><path
       id="path206"
       style="fill:#4472c4;fill-opacity:1;fill-rule:evenodd;stroke:none"
       d="M 456.12,82.98 472.14,97.56 488.16,82.98 472.14,68.4 Z" /><path
       id="path208"
       style="fill:none;stroke:#172c51;stroke-width:0.95999998;stroke-linecap:butt;stroke-linejoin:miter;stroke-miterlimit:10;stroke-dasharray:none;stroke-opacity:1"
       d="M 456.12,82.98 472.14,97.56 488.16,82.98 472.14,68.4 Z" /><g
       id="g210"><g
         clip-path="url(#clipPath216)"
         id="g212"><text
           id="text220"
           style="font-style:italic;font-variant:normal;font-weight:normal;font-size:14.03999996px;font-family:Calibri;-inkscape-font-specification:Calibri-Italic;writing-mode:lr-tb;fill:#000000;fill-opacity:1;fill-rule:nonzero;stroke:none"
           transform="matrix(1,0,0,-1,376.8,197.76)"><tspan
             id="tspan218"
             y="0"
             x="0 8.1291599 13.66092 19.1646 25.875719 31.39344 36.897121 48.04488 54.756001 61.846199 66.549599">Assessment </tspan></text>
</g></g><g
       id="g222"><g
         clip-path="url(#clipPath228)"
         id="g224"><text
           id="text232"
           style="font-style:italic;font-variant:normal;font-weight:normal;font-size:14.06400013px;font-family:Calibri;-inkscape-font-specification:Calibri-Italic;writing-mode:lr-tb;fill:#000000;fill-opacity:1;fill-rule:nonzero;stroke:none"
           transform="matrix(1,0,0,-1,370.56,180.96)"><tspan
             id="tspan230"
             y="0"
             x="0 5.4990239 12.72792 17.383104 20.617825 26.130913 30.336048 37.564945 43.415569 47.972305 55.187138 60.081409 66.325821">satisfactory?</tspan></text>
</g></g><path
       id="path234"
       style="fill:#4472c4;fill-opacity:1;fill-rule:nonzero;stroke:none"
       d="m 472.31,132.97 -0.63,-31.37 1,-0.02 0.63,31.37 z m -3.11,-30.32 2.88,-6.055 3.12,5.935 z" /><path
       id="path236"
       style="fill:#4472c4;fill-opacity:1;fill-rule:nonzero;stroke:none"
       d="M 472.58,68.4 V 53.445 h -1 V 68.4 Z m 2.5,-13.955 -3,-6 -3,6 z" /><g
       id="g238"><g
         clip-path="url(#clipPath244)"
         id="g240"><text
           id="text248"
           style="font-style:italic;font-variant:normal;font-weight:normal;font-size:14.06400013px;font-family:Calibri;-inkscape-font-specification:Calibri-Italic;writing-mode:lr-tb;fill:#000000;fill-opacity:1;fill-rule:nonzero;stroke:none"
           transform="matrix(1,0,0,-1,359.88,79.8)"><tspan
             id="tspan246"
             y="0"
             x="0 7.6648798 10.8996 16.412687 22.811808 25.891825 33.12072 38.858833 44.625072 51.347664 58.576561 63.105167 69.827759 77.056656">Risk accepted?</tspan></text>
</g></g><g
       id="g250"><g
         clip-path="url(#clipPath256)"
         id="g252"><text
           id="text260"
           style="font-style:italic;font-variant:normal;font-weight:normal;font-size:15.96000004px;font-family:Calibri;-inkscape-font-specification:Calibri-Italic;writing-mode:lr-tb;fill:#000000;fill-opacity:1;fill-rule:nonzero;stroke:none"
           transform="matrix(1,0,0,-1,492.38,198.43)"><tspan
             id="tspan258"
             y="0"
             x="0 8.1600399">no</tspan></text>
</g></g><g
       id="g262"><g
         clip-path="url(#clipPath268)"
         id="g264"><text
           id="text272"
           style="font-style:italic;font-variant:normal;font-weight:normal;font-size:15.96000004px;font-family:Calibri;-inkscape-font-specification:Calibri-Italic;writing-mode:lr-tb;fill:#000000;fill-opacity:1;fill-rule:nonzero;stroke:none"
           transform="matrix(1,0,0,-1,490.94,84.432)"><tspan
             id="tspan270"
             y="0"
             x="0 8.1840401">no</tspan></text>
</g></g><path
       id="path274"
       style="fill:#4472c4;fill-opacity:1;fill-rule:nonzero;stroke:none"
       d="m 257.96,470.86 61.74,-0.49 -0.01,-1 -61.73,0.49 z m 0.98,-3.51 -5.98,3.05 6.02,2.95 z m 59.78,5.53 5.97,-3.05 -6.02,-2.95 z" /><path
       id="path276"
       style="fill:#4472c4;fill-opacity:1;fill-rule:nonzero;stroke:none"
       d="m 255.92,325.82 h 47.77 v -1 h -47.77 z m 1,-3.5 -6,3 6,3 z m 45.77,6 6,-3 -6,-3 z" /><path
       id="path278"
       style="fill:#4472c4;fill-opacity:1;fill-rule:nonzero;stroke:none"
       d="M 488.16,82.383 H 657.87 V 470.3 h -33.36 v -1 h 32.86 l -0.5,0.5 V 82.883 l 0.5,0.5 H 488.16 Z m 137.35,390.417 -6,-3 6,-3 z" /><path
       id="path280"
       style="fill:#4472c4;fill-opacity:1;fill-rule:nonzero;stroke:none"
       d="m 567.86,82.968 v 40.792 h -1 V 82.968 Z m 2.5,39.792 -3,6 -3,-6 z" /><path
       id="path282"
       style="fill:#4472c4;fill-opacity:1;fill-rule:nonzero;stroke:none"
       d="m 255.92,145.82 h 63.82 v -1 h -63.82 z m 1,-3.5 -6,3 6,3 z m 61.82,6 6,-3 -6,-3 z" /></g></svg>