<?xml version="1.0" encoding="UTF-8"?>
<svg id="Calque_1" data-name="Calque 1" xmlns="http://www.w3.org/2000/svg" width="800" height="794.83" viewBox="0 0 800 794.83">
  <defs>
    <style>
      .cls-1 {
        fill: #5d4495;
      }

      .cls-1, .cls-2, .cls-3, .cls-4, .cls-5, .cls-6, .cls-7, .cls-8, .cls-9 {
        stroke-width: 0px;
      }

      .cls-2 {
        fill: #4d378d;
      }

      .cls-3 {
        fill: #271d44;
      }

      .cls-4 {
        fill: #51378d;
      }

      .cls-5 {
        fill: #7258a2;
      }

      .cls-6 {
        fill: #101022;
      }

      .cls-7 {
        fill: #d0bfdf;
      }

      .cls-8 {
        fill: #e0e0ef;
      }

      .cls-9 {
        fill: #fff;
      }
    </style>
  </defs>
  <ellipse class="cls-8" cx="400" cy="747.51" rx="306.76" ry="47.32"/>
  <g>
    <path class="cls-1" d="M310.16,575.1c-2.21.68-3.09,2.35-4.22,3.64-17.61,20.06-37.47,37.54-59.95,51.96-24.8,15.92-51.77,26.34-80.81,31.25-11.75,1.99-23.64,2.88-35.57,2.41-26.47-1.06-51.62-7.12-75.02-19.87-7.95-4.33-16.05-8.37-22.99-14.35-15.46-13.33-25.07-30.15-29.4-49.93-5.92-27.07.06-51.38,18.29-72.34,13.08-15.03,29.82-22.62,49.74-23.39,14.11-.55,27.61,1.54,40.01,8.63,14.72,8.42,24.94,20.48,28.7,37.28,2,8.92,1.45,17.79-3.11,26.01-4,7.21-9.77,12.32-17.95,14.34-14.59,3.6-28.86-7.32-29.52-22.31-.41-9.25,3.43-15.66,11.72-19.54.57-.27,1.1-.64,1.73-1.02.3-2.44-1.35-3.85-2.75-5.28-3.11-3.17-7.13-4.73-11.36-5.5-9.16-1.66-17.78-.04-25.49,5.32-9.2,6.41-12.25,15.71-11.64,26.41.71,12.52,6.12,23.16,14.11,32.52,9.41,11.02,21.17,17.98,35.73,19.98,10.85,1.49,21.45.36,31.75-3.03,26.46-8.71,47.81-24.32,62.99-47.87,7.26-11.26,11.41-23.72,12.91-37.03,1.4-12.47,2.86-24.92,6.72-36.94.15-.45.1-.97.17-1.87-1.33.27-2.43.39-3.47.73-11.14,3.59-22.55,5.58-34.24,6.08-47.86,2.04-90.6-12.04-128.01-41.68-21.01-16.65-34.96-38.31-41.03-64.63-3.89-16.88-4.73-33.89,1.03-50.55,8.75-25.28,25.85-41.56,52.4-47.21,7.23-1.54,14.51-2.56,21.92-2.28,29.27,1.08,51.61,19.67,58.45,43.6,3.37,11.78,3.4,23.6-1.71,34.92-5.09,11.29-13.42,19.32-25.76,22.25-6.82,1.62-13.63,1.18-19.86-2.63-8.19-5.01-12.36-15.33-9.94-24.56,1.97-7.52,8.36-12.64,16.46-13,2.3-.1,4.62.29,6.94.45,1.01.07,2.03.14,3.19.22,1.6-2.59,1.39-5.28.9-7.95-2.14-11.66-12.74-20.57-25.05-21.09-11.17-.47-20.18,3.81-26.91,12.68-8.31,10.94-11.33,23.4-9.82,36.94,3.07,27.55,22.58,51.67,55.11,58.59,19.64,4.17,38.58,1.28,56.67-7.23,18.48-8.7,33.07-22,44.79-38.57,2.3-3.24,2.21-3.29,0-6.38-17.44-24.52-28.5-51.77-34.61-81.11-4.59-22.08-5.69-44.4-3.78-66.81,4.38-51.15,23.6-96.06,57.49-134.62,31.35-35.66,70.1-59.62,115.72-72.52,11.69-3.31,23.61-5.45,35.71-6.74,9.92-1.06,19.85-1.57,29.81-1.41,37.21.6,72.36,9.16,105.2,26.94,41.75,22.6,74.21,54.55,97.04,96.18,13.18,24.03,21.9,49.65,25.93,76.76,2.65,17.84,3.22,35.79,1.88,53.81-2.48,33.46-12.07,64.7-28.98,93.63-4.04,6.91-8.81,13.4-13.34,20.01-1.13,1.64-1.68,2.88-.33,4.8,12.14,17.16,27.13,30.82,46.83,38.88,11.91,4.88,24.28,7.32,37.11,6.65,22.82-1.2,42.57-9.26,57.54-27.13,11.14-13.3,16.31-28.67,14.66-46.06-1.11-11.68-5.94-21.7-14.82-29.43-7.51-6.54-16.26-9.42-26.27-7.12-9.8,2.25-20.91,12.38-19.05,25.22.25,1.73.87,3.41,1.4,5.37,2.16-.47,3.89-.92,5.64-1.21,10.35-1.73,22.06,4.36,21.17,18.26-.56,8.77-6.68,16.59-15.68,19.14-7.13,2.02-14.13,1.15-20.73-2.17-12.28-6.17-19.68-16.29-22.35-29.56-2.95-14.68.46-28.31,8.81-40.61,10.13-14.92,24.27-24.02,42.12-26.34,24.68-3.21,46.85,2.65,64.59,20.96,10.94,11.29,17.32,25.01,19.27,40.67,2.69,21.62-1.73,41.98-11.41,61.25-12.33,24.56-31.07,43.08-54.81,56.62-21.48,12.25-44.62,19.8-69.07,23.1-21.7,2.93-43.34,2.67-64.71-2.85-8.67-2.24-17.04-5.23-24.81-9.77-.53-.31-1.12-.52-1.96-.91-.69,3.08-.17,5.86.25,8.58,3,19.56,9.86,37.75,20.09,54.62,11.16,18.4,24.64,34.86,41.78,48.1,12.76,9.85,26.87,16.98,42.69,20.38,29.95,6.44,54.2-5.58,68.28-30.58,4.6-8.17,6.42-17.1,5.15-26.58-1.67-12.46-11.15-21.95-23.72-23.65-8.47-1.14-16.18.63-23.14,5.59-2.12,1.51-3.94,3.31-5.26,6.11,1.15.53,2.12,1.05,3.14,1.44,11.89,4.52,15.33,18.22,8.02,28.22-5.29,7.23-12.23,11.6-21.35,11.4-11.15-.24-21.13-7.59-24.69-18.21-3.8-11.34-2.79-22.56,2.52-33.17,7.96-15.88,20.67-26.71,37.28-32.72,20.75-7.52,40.89-5.05,59.77,5.73,21.7,12.38,34.88,31.49,39.43,55.89,3.71,19.89.33,39.07-8.94,57.24-9.95,19.5-25.31,32.98-44.79,42.42-17.04,8.26-34.86,13.71-53.6,16.03-14.69,1.82-29.42,1.59-44.14-.24-37.48-4.66-70.66-19.73-101.25-41.33-27.46-19.39-51.78-42.18-73.03-68.12-8.75-10.68-16.23-22.4-24.29-33.66-.65-.92-1.26-1.87-2.02-3.01-.85.6-1.55.93-2.03,1.46-12.44,13.74-24.4,27.84-33.17,44.32-8.31,15.61-12.86,32.19-12.3,49.91.57,18.08,5.61,34.74,17.89,48.5,13.32,14.92,30.27,21.32,50.07,19.59,21.85-1.92,40.47-21.39,37.91-45.59-1.34-12.62-10.49-23.26-22.43-25.68-4.2-.85-8.25-.43-11.98,1.84-2.64,1.6-4.5,3.88-5.48,6.81-1.53,4.59-1.08,5.56,3.31,7.71,8.92,4.36,10.98,14.07,4.61,21.7-5.35,6.41-14.15,8.22-22.23,4.56-10.11-4.57-16.04-15.97-14.61-27.14,1.77-13.84,12.67-29.8,32.43-34.8,17.18-4.35,32.32-.29,45.03,12.04,14.98,14.53,21.42,32.24,19.18,53.08-2.33,21.6-11.5,39.59-28.35,53.38-11.06,9.06-23.98,14.1-38.07,16.2-24.27,3.62-46.81-2.39-68.24-13.04-44.68-22.21-71.88-58.4-83.38-106.6-2.03-8.51-2.7-17.35-4.01-26.04-.12-.83-.27-1.66-.45-2.74ZM169.31,238.63c1.82-.83,3.09-1.36,4.31-1.98,26.31-13.36,52.58-26.79,78.91-40.08,22.06-11.14,44.18-22.15,66.3-33.17,27.91-13.91,55.87-27.73,83.76-41.68,23.95-11.99,47.88-24.03,71.73-36.21,9.33-4.76,18.48-9.88,27.61-15.02,5.34-3.01,10.07-6.84,13.47-12.06,4.82-7.39,4.18-13.63-1.98-19.95-6.16-6.33-13.71-10.52-21.69-14.03-22.51-9.92-46.14-15.26-70.62-16.69-9.4-.55-18.84-1.33-28.29-.24-8.85,1.02-17.84,1.22-26.58,2.79-35.81,6.43-68.57,20.29-98.26,41.39-21.07,14.98-39.1,32.97-54.47,53.74-10.84,14.65-19.51,30.52-26.94,47.08-5.41,12.06-9.74,24.51-12.54,37.47-2.55,11.79-3.81,23.75-4.68,35.75-.29,4.07-.05,8.18-.05,12.92ZM227.84,272.77c-.04,32.68,26.7,60.23,58.54,60.28,34.95.06,60.65-27.78,60.55-59-.11-35.86-28.87-60.46-59.56-60.37-34.84.1-59.72,29.16-59.53,59.09ZM518.95,332.52c32.34.41,59.7-26.26,59.57-59.8-.13-34.23-27.66-58.86-59.46-58.93-29.11-.06-58.53,23.89-58.46,59.21.08,36.26,29.19,60.17,58.34,59.51ZM13.73,345.91c.19,1.1.43,3.16.9,5.16.34,1.45,1.27,2.65,2.87,2.81,1.84.18,2.83-1.07,3.44-2.59.38-.95.6-1.97.81-2.98.78-3.8,1.36-7.65,2.32-11.4,3.11-12.24,8.23-23.39,17.6-32.25,5.51-5.21,11.5-9.59,18.65-12.33,2.01-.77,3.97-1.93,5.59-3.33.74-.64,1.04-2.43.72-3.43-.25-.78-1.79-1.65-2.73-1.62-2.16.07-4.4.38-6.44,1.07-30.09,10.22-41.88,36.76-43.74,60.9ZM476.34,87.55c-4.82.05-8.48,3.65-8.42,8.28.08,5.24,4.02,9.41,8.9,9.4,4.61,0,8.47-4.06,8.45-8.87-.02-4.94-3.99-8.85-8.93-8.8Z"/>
    <path class="cls-5" d="M169.31,238.63c0-4.74-.25-8.85.05-12.92.86-12,2.13-23.95,4.68-35.75,2.8-12.96,7.13-25.42,12.54-37.47,7.43-16.56,16.1-32.42,26.94-47.08,15.37-20.77,33.4-38.76,54.47-53.74,29.69-21.1,62.45-34.96,98.26-41.39,8.75-1.57,17.73-1.77,26.58-2.79,9.45-1.09,18.89-.32,28.29.24,24.48,1.44,48.11,6.77,70.62,16.69,7.98,3.52,15.53,7.7,21.69,14.03,6.16,6.33,6.81,12.56,1.98,19.95-3.4,5.22-8.13,9.05-13.47,12.06-9.13,5.14-18.29,10.26-27.61,15.02-23.85,12.18-47.78,24.23-71.73,36.21-27.89,13.96-55.85,27.77-83.76,41.68-22.12,11.02-44.24,22.04-66.3,33.17-26.34,13.3-52.61,26.72-78.91,40.08-1.22.62-2.49,1.15-4.31,1.98ZM357.66,68.83l.12.11c-.9-.69-1.7-1.65-2.72-2.03-6.04-2.3-15.47-1.76-21.35,4.08-6.61,6.57-8.43,17.72-3.74,25.42,5.21,8.56,13.96,12.28,23.99,10.12,7.79-1.67,11.54-7.43,13.75-14.37,2.58-8.11-.09-15.01-5.76-20.88-1.1-1.14-2.85-1.64-4.3-2.44Z"/>
    <path class="cls-9" d="M227.84,272.77c-.19-29.93,24.69-58.99,59.53-59.09,30.69-.09,59.45,24.51,59.56,60.37.1,31.22-25.6,59.06-60.55,59-31.84-.06-58.58-27.6-58.54-60.28ZM255.39,277.68c-.19,20.71,16.99,38.54,37.48,38.79,23.34.28,40.24-19.54,40.62-39.64.39-20.88-17.12-39.13-37.44-39.3-21.53-.18-40.46,18.51-40.66,40.15Z"/>
    <path class="cls-9" d="M518.95,332.52c-29.15.66-58.26-23.25-58.34-59.51-.08-35.32,29.35-59.27,58.46-59.21,31.79.07,59.32,24.7,59.46,58.93.13,33.54-27.23,60.21-59.57,59.8ZM473.96,277.25c.12,1.49.2,3.18.39,4.85,2.2,19.34,19.84,34.91,39.25,34.39,23.48-.63,37.26-21.49,37.48-37.89.24-17.78-12.64-35.01-29.89-39.5-15.39-4.01-28.49.04-38.6,12.33-6.04,7.33-8.47,16.18-8.63,25.83Z"/>
    <path class="cls-7" d="M13.73,345.91c1.86-24.14,13.64-50.68,43.74-60.9,2.04-.69,4.28-1,6.44-1.07.94-.03,2.47.83,2.73,1.62.32,1,.02,2.79-.72,3.43-1.62,1.4-3.58,2.56-5.59,3.33-7.15,2.74-13.14,7.12-18.65,12.33-9.37,8.86-14.49,20.02-17.6,32.25-.95,3.75-1.54,7.6-2.32,11.4-.21,1.01-.43,2.03-.81,2.98-.61,1.52-1.6,2.77-3.44,2.59-1.6-.16-2.53-1.35-2.87-2.81-.47-2-.72-4.06-.9-5.16Z"/>
    <path class="cls-7" d="M476.34,87.55c4.94-.05,8.92,3.87,8.93,8.8.02,4.82-3.84,8.86-8.45,8.87-4.87,0-8.82-4.16-8.9-9.4-.07-4.62,3.6-8.23,8.42-8.28Z"/>
    <path class="cls-3" d="M255.39,277.68c.2-21.64,19.13-40.34,40.66-40.15,20.32.17,37.84,18.42,37.44,39.3-.38,20.1-17.28,39.92-40.62,39.64-20.5-.25-37.68-18.07-37.48-38.79ZM302.97,258.48c-.08-6.59-4.96-11.12-11.87-11.01-6.31.1-10.38,4.26-10.33,10.56.05,6.58,5.02,11.45,11.61,11.39,6.12-.06,10.66-4.75,10.59-10.94Z"/>
    <path class="cls-3" d="M473.96,277.25c.16-9.66,2.59-18.5,8.63-25.83,10.11-12.29,23.21-16.33,38.6-12.33,17.26,4.49,30.14,21.73,29.89,39.5-.22,16.4-14.01,37.26-37.48,37.89-19.41.52-37.05-15.05-39.25-34.39-.19-1.67-.27-3.35-.39-4.85ZM513.98,247.25c-6.38.07-10.55,4.46-10.41,10.95.14,6.36,4.92,11.18,11.02,11.12,6.35-.07,11.23-5.07,11.18-11.44-.05-6.29-4.95-10.71-11.8-10.63Z"/>
    <path class="cls-7" d="M358.55,67.24c1.73,1.65,3.65,3.15,5.17,4.98,9.74,11.65,5.35,26.17-4.98,32.66-10.82,6.8-28.35,1.13-31.55-14.6-2.63-12.96,6.07-24.41,19.25-25.66,4.37-.42,8.31,1.16,12.24,2.74,0,0-.14-.12-.14-.12Z"/>
    <path class="cls-9" d="M302.97,258.48c.07,6.19-4.47,10.88-10.59,10.94-6.59.06-11.56-4.81-11.61-11.39-.05-6.3,4.02-10.46,10.33-10.56,6.91-.11,11.79,4.42,11.87,11.01Z"/>
    <path class="cls-9" d="M513.98,247.25c6.85-.07,11.75,4.34,11.8,10.63.05,6.37-4.84,11.37-11.18,11.44-6.09.07-10.88-4.76-11.02-11.12-.14-6.49,4.03-10.88,10.41-10.95Z"/>
    <path class="cls-6" d="M445.8,342.44c.25-.26.49-.53.74-.79.26-.26.51-.51.77-.77.87-.21,1.74-.43,2.62-.62,3.89-.84,6.95,1.34,7.4,5.32.39,3.48-.57,6.62-2.38,9.59-6.01,9.9-14.68,16.71-25.36,20.7-19.22,7.17-38.27,6.58-56.67-2.85-8.44-4.32-15.23-10.63-19.95-18.98-1.29-2.27-2.31-4.63-2.17-7.33.16-2.94,1.97-5.2,4.74-5.89,2.81-.7,4.92.12,6.58,2.79,1.84,2.96,3.51,6.01,5.88,8.63,7.38,8.15,16.78,12.4,27.42,13.95,7.97,1.16,15.99.89,23.8-1.42,8.9-2.63,16.62-7.14,22.14-14.8,1.7-2.36,2.98-5.01,4.45-7.53Z"/>
    <path class="cls-4" d="M16.69,589.93c2.08,3.4,4.18,6.78,6.25,10.19,2.55,4.21,5.65,8.08,9.05,11.52,3.69,3.72,7.73,7.16,12.03,10.27,13.71,9.88,29.04,16.19,45.22,20.5,6.56,1.75,13.3,2.75,20.08,3.59,8.27,1.03,16.53.76,24.76.52,7.94-.23,15.85-1.57,23.63-3.26,12.51-2.73,24.55-6.79,36.22-12.14,13.79-6.33,26.52-14.3,38.51-23.53,6.64-5.12,13.01-10.56,18.89-16.55.81-.83,1.77-1.53,2.26-2.63,3.88-3.23,7.17-7,10.52-10.76,3.77-4.24,7.21-8.73,10.81-13.09,5.99-7.27,11.12-15.14,16.39-22.91,10.68-15.75,19.34-32.62,27.57-49.73,7.05-14.65,13-29.77,18.23-45.15,3.52-10.34,6.58-20.84,8.76-31.57.15-.75.11-1.54.16-2.32.51.26,1.02.52,1.53.77,0,4.26.18,8.54-.04,12.79-.22,4.22-.94,8.4-1.29,12.62-.4,4.73-1.03,9.43-1.75,14.12-.91,5.95-1.81,11.91-2.7,17.86-.93,6.21-1.85,12.42-2.74,18.63-.75,5.2-1.49,10.39-2.19,15.6-.41,3.05-.46,6.15-.7,9.21-.36,4.47-1.34,8.91-1.03,13.46.23,3.33.18,6.7-.71,9.97,0,10.74-.29,21.48.1,32.2.17,4.7.66,9.46,1.25,14.18.71,5.73,1.48,11.44,2.39,17.15,1.67,10.48,4.53,20.63,8.09,30.56,3.62,10.1,8.36,19.71,14.5,28.58.45.65.86,1.28,1.6,1.62.02.81.45,1.43.89,2.09,6.97,10.38,16,18.78,25.56,26.68,2.27,1.88,5.09,3.02,6.96,5.39-.99,1.28-1.94.23-2.69-.21-6-3.51-12.44-6.25-18.17-10.25-3.9-2.72-7.9-5.3-11.86-7.94-.58-.39-1.1-1.24-1.99-.3.12.32.17.74.4,1,3.11,3.43,6.25,6.84,9.39,10.26.61.67,1.36,1.24,1.83,1.99.83,1.32-.28,1.47-1.19,1.67-6.16-4.34-11.54-9.57-16.59-15.1-22.3-24.38-35.32-53.21-40.5-85.69-.83-5.22-1.22-10.51-1.82-15.9-1.48-.18-1.92,1.12-2.59,1.89-15.11,17.53-32.04,33.05-50.89,46.47-18.45,13.13-38.27,23.57-59.88,30.5-.73.23-1.5.34-2.25.51-.87-.03-1.78-.21-2.35.72,0,0-.08.02-.08.02-.83,0-1.7-.15-2.26.71,0,0-.15.03-.15.03-1.02.12-2.21-.34-2.94.82,0,0-.04.01-.04.01-.84-.03-1.72-.17-2.31.68,0,0-.16.03-.16.03-1.01.12-2.17-.3-2.94.76,0,0-.15.03-.15.03-1.25.21-2.72-.51-3.71.84,0,0-.03,0-.03,0-1.67-.02-3.3.02-4.99.41-7.77,1.78-15.68,3-23.63,3.35-8.14.36-16.3.1-24.46.06-1.24,0-2.62.43-3.64-.76.68-.9,2.45-1.85-.22-2.51-.87-.22-1.76-.4-2.61-.64-4.36-1.22-8.98-.91-13.28-2.17-7.9-2.31-15.7-4.97-23.53-7.51-1.84-.6-3.71-1.15-5.46-1.97-9.93-4.63-19.55-9.76-28.18-16.67-8.71-6.97-16.56-14.75-23.71-23.27-1.81-2.16-3.04-4.82-4.84-6.99-2.55-3.08-3.6-6.81-5.1-10.36-.08-.2.34-.61.53-.92Z"/>
    <path class="cls-4" d="M698.42,450.66c3.8-.34,7.17-2.06,10.61-3.45,13.24-5.32,25.59-12.36,36.71-21.23,10.19-8.12,19.59-17.22,26.55-28.41,6.8-10.93,11.66-22.62,13.25-35.56.32-2.56.62-5.09.66-7.67,1.37.15,1.56,1.1,1.55,2.23-.06,3.47-.27,6.9-.62,10.37-.62,6.16-1.99,12.14-3.29,18.14-.81,3.76-2.25,7.38-3.41,11.06-.41,1.3-.92,2.6.55,3.95,1.65-3.02,3.53-5.62,4.42-8.75.39-1.36.72-2.86,2.67-2.71-3.18,8.95-7.72,17.2-13.17,24.95-15.84,22.5-36.81,38.61-61.9,49.55-21.65,9.44-44.2,15.01-67.82,16.47-18.78,1.16-37.2-.34-55.26-5.65-7.46-2.19-14.67-5.02-21.22-9.32-.33-.64-.92-.74-1.55-.75-.06-11.26,2.02-22.04,7.15-32.13.61-1.19.95-2.7,2.79-3.1.23,1.59-.55,2.85-1.02,4.12-.83,2.29-.21,4.02,1.62,5.47,7.02,5.59,14.65,10.07,23.09,13.17,9.47,3.47,19.26,5.65,29.23,6.96,8.86,1.16,17.81,1.29,26.68.71,9.99-.64,19.92-2.21,29.64-4.77,4.07-1.07,8.34-1.52,12.09-3.64Z"/>
    <path class="cls-4" d="M215.14,474.01c-1.7-.15-3.3.15-4.93.68-7.84,2.55-15.88,3.95-24.1,4.85-10.33,1.13-20.63.31-30.93.62-2.85.09-5.55-.99-8.32-1.51-11.53-2.17-22.71-5.63-33.78-9.39-11.37-3.87-22.16-9.13-32.48-15.31-6.52-3.9-13.06-7.77-19.4-11.96-5.58-3.68-11.16-7.42-15.8-12.31-4.71-4.95-10.08-9.28-14.09-14.88-1.65-2.3-3.24-4.67-3.39-7.65,2.82,3.32,5.72,6.59,8.42,10.01.89,1.12,1.75,2.27,2.82,3.17,6.78,5.72,13.3,11.75,20.85,16.55,17.07,10.85,35.46,18.26,55.24,22.45,7.2,1.53,14.4,2.5,21.73,3.16,4.52.41,9.02.77,13.51.55,11.71-.56,23.28-2.06,34.66-5.07,14.48-3.83,27.92-9.86,40.75-17.53,4.35-2.6,8.03-6.04,12.28-8.72.62-.39,1.06-1.19,2.02-.9.63.67.06,1.16-.31,1.64-9.13,11.8-16.61,24.58-22.46,38.31-.5,1.17-.33,3.02-2.29,3.23Z"/>
    <path class="cls-2" d="M678.79,645.36c6.84.37,13.67-.03,20.43-.84,12.92-1.54,25.46-4.56,37.51-9.75,10.05-4.32,19.09-10.06,27.48-16.96.71-.59,1.37-1.18,2.35-1.18.79.15,1.77.37,1.11,1.42-3.08,4.94-6.37,9.68-11.07,13.31-8.12,6.27-16.97,11.36-26.35,15.4-8.86,3.81-17.94,7.07-27.51,8.87-3.22.61-6.42.32-9.6.86-3.92.66-7.85,1.43-11.85,1.31-7.86-.24-15.71.29-23.59-.63-6.52-.76-12.93-2.04-19.4-2.94-5.74-.8-11.2-2.81-16.8-4.23-11.54-2.91-22.86-6.46-33.39-12-8.41-4.43-17.06-8.43-24.82-14.12-6.11-4.48-12.96-7.92-18.91-12.69-1-.81-1.98-1.68-3.1-2.29-7.08-3.88-13.05-9.3-18.75-14.79-7.98-7.68-16.18-15.15-23.71-23.33-6.53-7.1-13.5-13.79-19.58-21.29-4.53-5.59-9.33-10.97-13.43-16.93-1.81-2.64-4.14-4.92-6.26-7.35-.41-.46-.9-.96-1.88-.38.38,2.35,1.28,4.59,2.73,6.54,3.46,4.65,6.33,9.69,9.98,14.21,4.03,4.99,7.33,10.56,12.09,14.96,1.38,1.27,2.24,2.84,2.12,4.8-5.7-5.44-10.64-11.56-15.42-17.79-7.85-10.22-15.43-20.64-22.06-31.71-2.11.65-2.79,2.79-4.47,3.72-.47-.33-.73-.82-.39-1.31.43-.63.92-1.32,1.55-1.72,6.41-4.02,8.27-11.05,11.13-17.28,3.07-6.69,4.21-13.91,5.05-21.29.8-7.05-.15-13.81-.75-20.71-.33-3.85-1.6-7.52-1.86-12.06,1.31,1.61,1.51,2.94,1.87,4.17,2.98,10.31,6.99,20.2,11.42,29.97,8.72,19.21,18.95,37.55,31.03,54.84,6.49,9.28,13.23,18.38,20.81,26.85,5.77,6.44,11.57,12.83,17.58,19.04,1.27,1.31,2.61,2.5,4.34,3.19,0,0,0,0,0,0,.75,1.33,1.8,2.36,3.11,3.12,1.94,3.05,5.2,4.63,7.77,6.97.3.73.82,1.24,1.55,1.54.52.27,1.03.53,1.55.8.67.78,1.23,1.7,2.02,2.31,10.61,8.17,21.44,16.08,33.18,22.56,15.06,8.31,30.88,14.86,47.57,19.16,6.72,1.73,13.52,3.08,20.38,4.08,5.71.84,11.54.57,17.24,1.57Z"/>
  </g>
</svg>